<svg width="202" height="34" viewBox="0 0 202 34" fill="none" xmlns="http://www.w3.org/2000/svg">
<path d="M9.34688 30.928L1.28539 8.71129H5.39548L11.8225 26.4053L18.2653 8.71129H22.3595L14.298 30.928H9.34688Z" fill="white"/>
<path d="M38.6676 31.3406C37.1653 31.3406 35.753 31.0444 34.4306 30.4519C33.1081 29.8489 31.9444 29.0184 30.9394 27.9605C29.9343 26.9025 29.1462 25.6806 28.5749 24.2947C28.0036 22.8982 27.718 21.4066 27.718 19.8196C27.718 18.2327 28.0036 16.7463 28.5749 15.3604C29.1462 13.964 29.9343 12.7368 30.9394 11.6788C31.9444 10.6209 33.1081 9.79569 34.4306 9.20325C35.753 8.60022 37.1653 8.29871 38.6676 8.29871C40.1805 8.29871 41.5981 8.60022 42.9205 9.20325C44.2429 9.79569 45.4067 10.6209 46.4117 11.6788C47.4167 12.7368 48.1996 13.964 48.7603 15.3604C49.3316 16.7463 49.6173 18.2327 49.6173 19.8196C49.6173 21.4066 49.3316 22.8982 48.7603 24.2947C48.1996 25.6806 47.4167 26.9025 46.4117 27.9605C45.4067 29.0184 44.2429 29.8489 42.9205 30.4519C41.5981 31.0444 40.1805 31.3406 38.6676 31.3406ZM38.6676 27.4685C39.6409 27.4685 40.556 27.2675 41.413 26.8655C42.2699 26.4635 43.021 25.9134 43.6664 25.2151C44.3223 24.5063 44.8301 23.6917 45.1898 22.7713C45.5601 21.8509 45.7452 20.867 45.7452 19.8196C45.7452 18.7723 45.5601 17.7884 45.1898 16.868C44.8195 15.937 44.3064 15.1224 43.6505 14.4242C43.0051 13.7259 42.254 13.1758 41.3971 12.7738C40.5507 12.3718 39.6409 12.1708 38.6676 12.1708C37.6943 12.1708 36.7792 12.3718 35.9223 12.7738C35.0653 13.1758 34.3089 13.7312 33.653 14.44C33.0076 15.1383 32.4998 15.9476 32.1295 16.868C31.7699 17.7884 31.59 18.7723 31.59 19.8196C31.59 20.8776 31.7751 21.8668 32.1454 22.7872C32.5157 23.7076 33.0235 24.5222 33.6688 25.231C34.3248 25.9292 35.0759 26.4794 35.9223 26.8814C36.7792 27.2728 37.6943 27.4685 38.6676 27.4685Z" fill="white"/>
<path d="M54.8012 30.928V8.7113H58.6733V27.0559H67.9249V30.928H54.8012Z" fill="white"/>
<path d="M81.887 31.3406C80.1097 31.3406 78.5492 30.9068 77.2057 30.0393C75.8727 29.1718 74.8359 28.0081 74.0953 26.5481C73.3548 25.0776 72.9845 23.4484 72.9845 21.6605V8.7113H76.8565V21.6605C76.8565 22.7184 77.0523 23.6917 77.4437 24.5804C77.8457 25.4585 78.417 26.162 79.1576 26.691C79.9087 27.2093 80.8185 27.4685 81.887 27.4685C82.9661 27.4685 83.876 27.2093 84.6165 26.691C85.3571 26.162 85.9178 25.4585 86.2986 24.5804C86.6901 23.6917 86.8858 22.7184 86.8858 21.6605V8.7113H90.7578V21.6605C90.7578 23.004 90.5463 24.263 90.1231 25.4373C89.6999 26.601 89.0969 27.6272 88.314 28.5159C87.5311 29.4046 86.5949 30.0975 85.5052 30.5947C84.4261 31.092 83.22 31.3406 81.887 31.3406Z" fill="white"/>
<path d="M99.4329 30.928V8.7113H103.622L113.001 23.9297V8.7113H116.873V30.928H112.699L103.305 15.7096V30.928H99.4329Z" fill="white"/>
<path d="M142.703 8.7113V12.5834H135.911V30.928H132.039V12.5834H125.247V8.7113H142.703Z" fill="white"/>
<rect x="150.426" y="9.52374" width="20.4975" height="3.96726" fill="white"/>
<rect x="150.426" y="18.4501" width="20.4975" height="3.96726" fill="white"/>
<rect x="150.426" y="27.3764" width="20.4975" height="3.96726" fill="white"/>
<path d="M192.653 8.98854L200.715 31.2052H196.605L190.178 13.5112L183.735 31.2052H179.64L187.702 8.98854H192.653Z" fill="white"/>
</svg>
