<svg width="233" height="233" viewBox="0 0 233 233" fill="none" xmlns="http://www.w3.org/2000/svg">
<g filter="url(#filter0_d_0_1)">
<path d="M62.4615 38.7692C62.4615 32.8216 67.2831 28 73.2308 28H189.538C195.486 28 200.308 32.8215 200.308 38.7692V101.231C200.308 107.178 195.486 112 189.538 112H73.2308C67.2831 112 62.4615 107.178 62.4615 101.231V38.7692Z" fill="#EFEFEF"/>
</g>
<rect x="78.6154" y="51.6923" width="74.3077" height="4.30769" rx="2.15385" fill="#B2AFAF"/>
<g filter="url(#filter1_d_0_1)">
<rect x="32.3077" y="66.7692" width="137.846" height="84" rx="10.7692" fill="white"/>
</g>
<rect x="51.6923" y="117.385" width="99.0769" height="4.30769" rx="2.15385" fill="#D9D9D9"/>
<rect x="51.6923" y="92.6154" width="62.4615" height="4.30769" rx="2.15385" fill="#B2AFAF"/>
<rect y="81.8462" width="6.46154" height="6.46154" rx="3.23077" fill="#CFBFBF"/>
<rect x="191.692" y="147.538" width="6.46154" height="6.46154" rx="3.23077" fill="#CFBFBF"/>
<rect x="185.769" y="7.00001" width="5.38461" height="5.38461" rx="2.69231" stroke="#B2AFAF" stroke-width="1.07692"/>
<rect x="46.8461" y="0.538462" width="5.38461" height="5.38461" rx="2.69231" stroke="#B2AFAF" stroke-width="1.07692"/>
<rect x="16.1538" y="35.5385" width="1.07692" height="7.53846" rx="0.538462" fill="#D9D9D9"/>
<rect x="112" y="2.15384" width="1.07692" height="7.53846" rx="0.538462" fill="#D9D9D9"/>
<rect x="214.308" y="63.5385" width="1.07692" height="7.53846" rx="0.538462" fill="#D9D9D9"/>
<rect x="12.9231" y="39.8462" width="1.07692" height="7.53846" rx="0.538462" transform="rotate(-90 12.9231 39.8462)" fill="#D9D9D9"/>
<rect x="108.769" y="6.46155" width="1.07692" height="7.53846" rx="0.538462" transform="rotate(-90 108.769 6.46155)" fill="#D9D9D9"/>
<rect x="211.077" y="67.8462" width="1.07692" height="7.53846" rx="0.538462" transform="rotate(-90 211.077 67.8462)" fill="#D9D9D9"/>
<path d="M4.136 185V174.328H6.728V185H4.136ZM12.2274 185.32C11.2887 185.32 10.59 185.101 10.1314 184.664C9.67271 184.216 9.44338 183.587 9.44338 182.776V178.728H8.25938V176.904H9.44338V174.68H11.9394V176.904H13.7154V178.728H11.9394V182.472C11.9394 182.749 11.998 182.957 12.1154 183.096C12.2327 183.224 12.43 183.288 12.7074 183.288C12.8674 183.288 13.0434 183.256 13.2354 183.192C13.4274 183.128 13.5874 183.048 13.7154 182.952V185C13.4914 185.117 13.246 185.197 12.9794 185.24C12.7234 185.293 12.4727 185.32 12.2274 185.32ZM15.2208 177.32L16.4048 174.184H18.3568L16.8848 177.32H15.2208ZM22.5185 185.24C21.9425 185.24 21.4465 185.176 21.0305 185.048C20.6252 184.931 20.2412 184.797 19.8785 184.648V182.552C20.1025 182.701 20.3532 182.856 20.6305 183.016C20.9078 183.165 21.2118 183.288 21.5425 183.384C21.8838 183.48 22.2412 183.528 22.6145 183.528C22.9985 183.528 23.2652 183.464 23.4145 183.336C23.5745 183.197 23.6545 183.032 23.6545 182.84C23.6545 182.659 23.5745 182.515 23.4145 182.408C23.2545 182.291 23.0465 182.195 22.7905 182.12C22.5345 182.045 22.2625 181.976 21.9745 181.912C21.7185 181.859 21.4625 181.779 21.2065 181.672C20.9505 181.555 20.7212 181.4 20.5185 181.208C20.3158 181.016 20.1505 180.781 20.0225 180.504C19.9052 180.216 19.8465 179.869 19.8465 179.464C19.8465 178.941 19.9478 178.509 20.1505 178.168C20.3532 177.816 20.6198 177.533 20.9505 177.32C21.2812 177.107 21.6385 176.957 22.0225 176.872C22.4065 176.776 22.7798 176.733 23.1425 176.744C23.8038 176.765 24.3265 176.84 24.7105 176.968C25.1052 177.085 25.4625 177.24 25.7825 177.432V179.304C25.4198 179.101 25.0572 178.915 24.6945 178.744C24.3425 178.563 23.9372 178.472 23.4785 178.472C23.0625 178.472 22.7638 178.536 22.5825 178.664C22.4012 178.792 22.3105 178.963 22.3105 179.176C22.3105 179.379 22.3692 179.539 22.4865 179.656C22.6145 179.773 22.7798 179.869 22.9825 179.944C23.1852 180.008 23.4092 180.072 23.6545 180.136C23.9212 180.2 24.1932 180.28 24.4705 180.376C24.7585 180.461 25.0252 180.589 25.2705 180.76C25.5265 180.92 25.7292 181.149 25.8785 181.448C26.0385 181.736 26.1185 182.12 26.1185 182.6C26.1078 183.251 25.9318 183.773 25.5905 184.168C25.2492 184.552 24.8065 184.829 24.2625 185C23.7292 185.16 23.1478 185.24 22.5185 185.24ZM32.2591 177.592C32.4618 177.485 32.7285 177.379 33.0591 177.272C33.3898 177.155 33.7525 177.053 34.1471 176.968C34.5418 176.883 34.9365 176.813 35.3311 176.76C35.7365 176.707 36.1098 176.68 36.4511 176.68C37.1765 176.68 37.7951 176.776 38.3071 176.968C38.8191 177.149 39.2085 177.448 39.4751 177.864C39.7525 178.28 39.8911 178.845 39.8911 179.56V185H37.5071V180.04C37.5071 179.837 37.4751 179.651 37.4111 179.48C37.3578 179.309 37.2725 179.165 37.1551 179.048C37.0378 178.92 36.8778 178.824 36.6751 178.76C36.4725 178.685 36.2271 178.648 35.9391 178.648C35.6938 178.648 35.4485 178.68 35.2031 178.744C34.9578 178.797 34.7711 178.856 34.6431 178.92V185H32.2591V177.592ZM42.0571 185V177.016H44.4411L44.4571 185H42.0571ZM42.0091 175.8V173.96H44.4731V175.8H42.0091ZM50.3793 185.208C49.8033 185.208 49.2593 185.123 48.7473 184.952C48.2353 184.781 47.7819 184.525 47.3873 184.184C46.9926 183.843 46.6833 183.411 46.4593 182.888C46.2353 182.365 46.1233 181.757 46.1233 181.064C46.1233 180.328 46.2299 179.688 46.4433 179.144C46.6566 178.589 46.9499 178.131 47.3233 177.768C47.7073 177.405 48.1553 177.133 48.6673 176.952C49.1793 176.771 49.7446 176.68 50.3633 176.68C50.8006 176.68 51.2486 176.728 51.7073 176.824C52.1766 176.909 52.5873 177.032 52.9393 177.192V179.24C52.5659 179.069 52.1979 178.931 51.8353 178.824C51.4833 178.707 51.1206 178.648 50.7473 178.648C50.0753 178.648 49.5313 178.819 49.1153 179.16C48.7099 179.491 48.5073 180.035 48.5073 180.792C48.5073 181.592 48.6886 182.195 49.0513 182.6C49.4139 183.005 50.0166 183.208 50.8593 183.208C51.2539 183.208 51.6326 183.139 51.9953 183C52.3686 182.861 52.6886 182.717 52.9553 182.568V184.6C52.5819 184.792 52.1926 184.941 51.7873 185.048C51.3819 185.155 50.9126 185.208 50.3793 185.208ZM58.2825 185.24C57.4718 185.24 56.7518 185.075 56.1225 184.744C55.5038 184.403 55.0185 183.923 54.6665 183.304C54.3252 182.675 54.1545 181.928 54.1545 181.064C54.1545 179.656 54.5012 178.568 55.1945 177.8C55.8985 177.021 56.9012 176.632 58.2025 176.632C59.0985 176.632 59.8185 176.824 60.3625 177.208C60.9172 177.592 61.3225 178.152 61.5785 178.888C61.8345 179.624 61.9572 180.52 61.9465 181.576H55.7865L55.5305 180.056H59.9785L59.6265 180.808C59.6158 179.944 59.4932 179.336 59.2585 178.984C59.0238 178.632 58.6398 178.456 58.1065 178.456C57.8078 178.456 57.5358 178.531 57.2905 178.68C57.0558 178.829 56.8692 179.08 56.7305 179.432C56.6025 179.773 56.5385 180.248 56.5385 180.856C56.5385 181.624 56.7198 182.216 57.0825 182.632C57.4558 183.048 58.0478 183.256 58.8585 183.256C59.1572 183.256 59.4505 183.224 59.7385 183.16C60.0372 183.085 60.3145 183 60.5705 182.904C60.8265 182.808 61.0452 182.723 61.2265 182.648V184.696C60.8425 184.856 60.4105 184.984 59.9305 185.08C59.4612 185.187 58.9118 185.24 58.2825 185.24ZM71.3368 185.32C70.3981 185.32 69.6994 185.101 69.2408 184.664C68.7821 184.216 68.5528 183.587 68.5528 182.776V178.728H67.3688V176.904H68.5528V174.68H71.0488V176.904H72.8248V178.728H71.0488V182.472C71.0488 182.749 71.1074 182.957 71.2248 183.096C71.3421 183.224 71.5394 183.288 71.8168 183.288C71.9768 183.288 72.1528 183.256 72.3448 183.192C72.5368 183.128 72.6968 183.048 72.8248 182.952V185C72.6008 185.117 72.3554 185.197 72.0888 185.24C71.8328 185.293 71.5821 185.32 71.3368 185.32ZM78.2821 185.24C76.9168 185.24 75.8875 184.877 75.1941 184.152C74.5115 183.416 74.1701 182.339 74.1701 180.92C74.1701 179.395 74.5168 178.301 75.2101 177.64C75.9141 176.968 76.9381 176.632 78.2821 176.632C79.1888 176.632 79.9461 176.787 80.5541 177.096C81.1728 177.395 81.6368 177.859 81.9461 178.488C82.2661 179.117 82.4261 179.928 82.4261 180.92C82.4261 182.339 82.0688 183.416 81.3541 184.152C80.6395 184.877 79.6155 185.24 78.2821 185.24ZM78.2821 183.336C78.6768 183.336 79.0021 183.245 79.2581 183.064C79.5248 182.872 79.7221 182.6 79.8501 182.248C79.9888 181.885 80.0581 181.443 80.0581 180.92C80.0581 180.323 79.9888 179.853 79.8501 179.512C79.7221 179.16 79.5248 178.909 79.2581 178.76C78.9915 178.6 78.6661 178.52 78.2821 178.52C77.8768 178.52 77.5461 178.6 77.2901 178.76C77.0341 178.92 76.8421 179.176 76.7141 179.528C76.5968 179.869 76.5381 180.333 76.5381 180.92C76.5381 181.731 76.6768 182.339 76.9541 182.744C77.2421 183.139 77.6848 183.336 78.2821 183.336ZM92.2855 185.208C91.7095 185.208 91.1655 185.123 90.6535 184.952C90.1415 184.781 89.6882 184.525 89.2935 184.184C88.8988 183.843 88.5895 183.411 88.3655 182.888C88.1415 182.365 88.0295 181.757 88.0295 181.064C88.0295 180.328 88.1362 179.688 88.3495 179.144C88.5628 178.589 88.8562 178.131 89.2295 177.768C89.6135 177.405 90.0615 177.133 90.5735 176.952C91.0855 176.771 91.6508 176.68 92.2695 176.68C92.7068 176.68 93.1548 176.728 93.6135 176.824C94.0828 176.909 94.4935 177.032 94.8455 177.192V179.24C94.4722 179.069 94.1042 178.931 93.7415 178.824C93.3895 178.707 93.0268 178.648 92.6535 178.648C91.9815 178.648 91.4375 178.819 91.0215 179.16C90.6162 179.491 90.4135 180.035 90.4135 180.792C90.4135 181.592 90.5948 182.195 90.9575 182.6C91.3202 183.005 91.9228 183.208 92.7655 183.208C93.1602 183.208 93.5388 183.139 93.9015 183C94.2748 182.861 94.5948 182.717 94.8615 182.568V184.6C94.4882 184.792 94.0988 184.941 93.6935 185.048C93.2882 185.155 92.8188 185.208 92.2855 185.208ZM96.5247 185V173.704H98.9248V178.504L97.9168 177.96C98.3434 177.587 98.8448 177.283 99.4208 177.048C100.007 176.803 100.605 176.68 101.213 176.68C101.799 176.68 102.317 176.776 102.765 176.968C103.213 177.16 103.559 177.475 103.805 177.912C104.061 178.339 104.189 178.931 104.189 179.688V185H101.805V180.184C101.805 179.651 101.671 179.267 101.405 179.032C101.149 178.787 100.77 178.664 100.269 178.664C100.013 178.664 99.7568 178.701 99.5008 178.776C99.2554 178.84 99.0634 178.925 98.9248 179.032L98.8928 185H96.5247ZM109.426 185.24C108.935 185.24 108.471 185.192 108.034 185.096C107.607 185.011 107.229 184.867 106.898 184.664C106.578 184.451 106.327 184.168 106.146 183.816C105.965 183.453 105.874 183.005 105.874 182.472C105.874 181.971 105.975 181.533 106.178 181.16C106.391 180.787 106.711 180.499 107.138 180.296C107.565 180.093 108.103 179.992 108.754 179.992C109.117 179.992 109.469 180.029 109.81 180.104C110.151 180.179 110.455 180.28 110.722 180.408C110.999 180.536 111.218 180.675 111.378 180.824L111.474 181.976C111.261 181.848 111.005 181.747 110.706 181.672C110.407 181.597 110.087 181.56 109.746 181.56C109.223 181.56 108.839 181.64 108.594 181.8C108.359 181.949 108.242 182.189 108.242 182.52C108.242 182.723 108.301 182.904 108.418 183.064C108.535 183.224 108.69 183.347 108.882 183.432C109.085 183.517 109.293 183.56 109.506 183.56C110.05 183.56 110.429 183.523 110.642 183.448C110.866 183.373 110.978 183.224 110.978 183V180.024C110.978 179.533 110.818 179.181 110.498 178.968C110.189 178.744 109.746 178.632 109.17 178.632C108.701 178.632 108.226 178.717 107.746 178.888C107.277 179.048 106.893 179.245 106.594 179.48V177.368C106.871 177.197 107.298 177.037 107.874 176.888C108.461 176.739 109.117 176.664 109.842 176.664C110.098 176.664 110.381 176.685 110.69 176.728C110.999 176.771 111.309 176.851 111.618 176.968C111.927 177.075 112.21 177.235 112.466 177.448C112.733 177.661 112.946 177.933 113.106 178.264C113.266 178.595 113.346 179.005 113.346 179.496L113.33 183.32C113.33 183.779 113.175 184.152 112.866 184.44C112.557 184.717 112.109 184.92 111.522 185.048C110.946 185.176 110.247 185.24 109.426 185.24ZM118.774 185.32C117.836 185.32 117.137 185.101 116.678 184.664C116.22 184.216 115.99 183.587 115.99 182.776V178.728H114.806V176.904H115.99V174.68H118.486V176.904H120.262V178.728H118.486V182.472C118.486 182.749 118.545 182.957 118.662 183.096C118.78 183.224 118.977 183.288 119.254 183.288C119.414 183.288 119.59 183.256 119.782 183.192C119.974 183.128 120.134 183.048 120.262 182.952V185C120.038 185.117 119.793 185.197 119.526 185.24C119.27 185.293 119.02 185.32 118.774 185.32ZM128.542 185L125.822 176.904H128.398L130.206 183.448L129.454 183.48L131.166 176.904H132.926L134.606 183.288H134.014L135.742 176.904H138.27L135.582 185H133.422L131.822 179.768L132.222 179.816L130.702 185H128.542ZM139.776 185V177.016H142.16L142.176 185H139.776ZM139.728 175.8V173.96H142.192V175.8H139.728ZM147.618 185.32C146.679 185.32 145.981 185.101 145.522 184.664C145.063 184.216 144.834 183.587 144.834 182.776V178.728H143.65V176.904H144.834V174.68H147.33V176.904H149.106V178.728H147.33V182.472C147.33 182.749 147.389 182.957 147.506 183.096C147.623 183.224 147.821 183.288 148.098 183.288C148.258 183.288 148.434 183.256 148.626 183.192C148.818 183.128 148.978 183.048 149.106 182.952V185C148.882 185.117 148.637 185.197 148.37 185.24C148.114 185.293 147.863 185.32 147.618 185.32ZM150.915 185V173.704H153.315V178.504L152.307 177.96C152.734 177.587 153.235 177.283 153.811 177.048C154.398 176.803 154.995 176.68 155.603 176.68C156.19 176.68 156.707 176.776 157.155 176.968C157.603 177.16 157.95 177.475 158.195 177.912C158.451 178.339 158.579 178.931 158.579 179.688V185H156.195V180.184C156.195 179.651 156.062 179.267 155.795 179.032C155.539 178.787 155.161 178.664 154.659 178.664C154.403 178.664 154.147 178.701 153.891 178.776C153.646 178.84 153.454 178.925 153.315 179.032L153.283 185H150.915ZM167.519 185.24C166.943 185.24 166.447 185.176 166.031 185.048C165.625 184.931 165.241 184.797 164.879 184.648V182.552C165.103 182.701 165.353 182.856 165.631 183.016C165.908 183.165 166.212 183.288 166.543 183.384C166.884 183.48 167.241 183.528 167.615 183.528C167.999 183.528 168.265 183.464 168.415 183.336C168.575 183.197 168.655 183.032 168.655 182.84C168.655 182.659 168.575 182.515 168.415 182.408C168.255 182.291 168.047 182.195 167.791 182.12C167.535 182.045 167.263 181.976 166.975 181.912C166.719 181.859 166.463 181.779 166.207 181.672C165.951 181.555 165.721 181.4 165.519 181.208C165.316 181.016 165.151 180.781 165.023 180.504C164.905 180.216 164.847 179.869 164.847 179.464C164.847 178.941 164.948 178.509 165.151 178.168C165.353 177.816 165.62 177.533 165.951 177.32C166.281 177.107 166.639 176.957 167.023 176.872C167.407 176.776 167.78 176.733 168.143 176.744C168.804 176.765 169.327 176.84 169.711 176.968C170.105 177.085 170.463 177.24 170.783 177.432V179.304C170.42 179.101 170.057 178.915 169.695 178.744C169.343 178.563 168.937 178.472 168.479 178.472C168.063 178.472 167.764 178.536 167.583 178.664C167.401 178.792 167.311 178.963 167.311 179.176C167.311 179.379 167.369 179.539 167.487 179.656C167.615 179.773 167.78 179.869 167.983 179.944C168.185 180.008 168.409 180.072 168.655 180.136C168.921 180.2 169.193 180.28 169.471 180.376C169.759 180.461 170.025 180.589 170.271 180.76C170.527 180.92 170.729 181.149 170.879 181.448C171.039 181.736 171.119 182.12 171.119 182.6C171.108 183.251 170.932 183.773 170.591 184.168C170.249 184.552 169.807 184.829 169.263 185C168.729 185.16 168.148 185.24 167.519 185.24ZM176.485 185.24C175.12 185.24 174.091 184.877 173.397 184.152C172.715 183.416 172.373 182.339 172.373 180.92C172.373 179.395 172.72 178.301 173.413 177.64C174.117 176.968 175.141 176.632 176.485 176.632C177.392 176.632 178.149 176.787 178.757 177.096C179.376 177.395 179.84 177.859 180.149 178.488C180.469 179.117 180.629 179.928 180.629 180.92C180.629 182.339 180.272 183.416 179.557 184.152C178.843 184.877 177.819 185.24 176.485 185.24ZM176.485 183.336C176.88 183.336 177.205 183.245 177.461 183.064C177.728 182.872 177.925 182.6 178.053 182.248C178.192 181.885 178.261 181.443 178.261 180.92C178.261 180.323 178.192 179.853 178.053 179.512C177.925 179.16 177.728 178.909 177.461 178.76C177.195 178.6 176.869 178.52 176.485 178.52C176.08 178.52 175.749 178.6 175.493 178.76C175.237 178.92 175.045 179.176 174.917 179.528C174.8 179.869 174.741 180.333 174.741 180.92C174.741 181.731 174.88 182.339 175.157 182.744C175.445 183.139 175.888 183.336 176.485 183.336ZM189.795 179.56V185H187.411V180.04C187.411 179.837 187.379 179.651 187.315 179.48C187.261 179.309 187.176 179.165 187.059 179.048C186.941 178.92 186.781 178.824 186.579 178.76C186.376 178.685 186.131 178.648 185.843 178.648C185.597 178.648 185.368 178.68 185.155 178.744C184.952 178.797 184.787 178.856 184.659 178.92V185H182.275V177.592C182.477 177.485 182.744 177.379 183.075 177.272C183.405 177.155 183.768 177.053 184.163 176.968C184.557 176.883 184.952 176.813 185.347 176.76C185.752 176.707 186.125 176.68 186.467 176.68C187.192 176.68 187.8 176.776 188.291 176.968C188.792 177.149 189.165 177.448 189.411 177.864C189.667 178.28 189.795 178.845 189.795 179.56ZM187.347 178.136C187.677 177.848 188.077 177.597 188.547 177.384C189.016 177.16 189.512 176.989 190.035 176.872C190.557 176.744 191.043 176.68 191.491 176.68C192.216 176.68 192.824 176.776 193.315 176.968C193.816 177.149 194.189 177.448 194.435 177.864C194.691 178.28 194.819 178.845 194.819 179.56V185H192.435V180.04C192.435 179.837 192.403 179.651 192.339 179.48C192.285 179.309 192.2 179.165 192.083 179.048C191.965 178.92 191.805 178.824 191.603 178.76C191.4 178.685 191.155 178.648 190.867 178.648C190.621 178.648 190.392 178.685 190.179 178.76C189.976 178.824 189.811 178.909 189.683 179.016L187.347 178.136ZM200.595 185.24C199.784 185.24 199.064 185.075 198.435 184.744C197.816 184.403 197.331 183.923 196.979 183.304C196.638 182.675 196.467 181.928 196.467 181.064C196.467 179.656 196.814 178.568 197.507 177.8C198.211 177.021 199.214 176.632 200.515 176.632C201.411 176.632 202.131 176.824 202.675 177.208C203.23 177.592 203.635 178.152 203.891 178.888C204.147 179.624 204.27 180.52 204.259 181.576H198.099L197.843 180.056H202.291L201.939 180.808C201.928 179.944 201.806 179.336 201.571 178.984C201.336 178.632 200.952 178.456 200.419 178.456C200.12 178.456 199.848 178.531 199.603 178.68C199.368 178.829 199.182 179.08 199.043 179.432C198.915 179.773 198.851 180.248 198.851 180.856C198.851 181.624 199.032 182.216 199.395 182.632C199.768 183.048 200.36 183.256 201.171 183.256C201.47 183.256 201.763 183.224 202.051 183.16C202.35 183.085 202.627 183 202.883 182.904C203.139 182.808 203.358 182.723 203.539 182.648V184.696C203.155 184.856 202.723 184.984 202.243 185.08C201.774 185.187 201.224 185.24 200.595 185.24ZM209.563 185.24C208.198 185.24 207.169 184.877 206.475 184.152C205.793 183.416 205.451 182.339 205.451 180.92C205.451 179.395 205.798 178.301 206.491 177.64C207.195 176.968 208.219 176.632 209.563 176.632C210.47 176.632 211.227 176.787 211.835 177.096C212.454 177.395 212.918 177.859 213.227 178.488C213.547 179.117 213.707 179.928 213.707 180.92C213.707 182.339 213.35 183.416 212.635 184.152C211.921 184.877 210.897 185.24 209.563 185.24ZM209.563 183.336C209.958 183.336 210.283 183.245 210.539 183.064C210.806 182.872 211.003 182.6 211.131 182.248C211.27 181.885 211.339 181.443 211.339 180.92C211.339 180.323 211.27 179.853 211.131 179.512C211.003 179.16 210.806 178.909 210.539 178.76C210.273 178.6 209.947 178.52 209.563 178.52C209.158 178.52 208.827 178.6 208.571 178.76C208.315 178.92 208.123 179.176 207.995 179.528C207.878 179.869 207.819 180.333 207.819 180.92C207.819 181.731 207.958 182.339 208.235 182.744C208.523 183.139 208.966 183.336 209.563 183.336ZM215.353 177.592C215.556 177.485 215.822 177.379 216.153 177.272C216.484 177.155 216.846 177.053 217.241 176.968C217.636 176.883 218.03 176.813 218.425 176.76C218.83 176.707 219.204 176.68 219.545 176.68C220.27 176.68 220.889 176.776 221.401 176.968C221.913 177.149 222.302 177.448 222.569 177.864C222.846 178.28 222.985 178.845 222.985 179.56V185H220.601V180.04C220.601 179.837 220.569 179.651 220.505 179.48C220.452 179.309 220.366 179.165 220.249 179.048C220.132 178.92 219.972 178.824 219.769 178.76C219.566 178.685 219.321 178.648 219.033 178.648C218.788 178.648 218.542 178.68 218.297 178.744C218.052 178.797 217.865 178.856 217.737 178.92V185H215.353V177.592ZM228.767 185.24C227.956 185.24 227.236 185.075 226.607 184.744C225.988 184.403 225.503 183.923 225.151 183.304C224.81 182.675 224.639 181.928 224.639 181.064C224.639 179.656 224.986 178.568 225.679 177.8C226.383 177.021 227.386 176.632 228.687 176.632C229.583 176.632 230.303 176.824 230.847 177.208C231.402 177.592 231.807 178.152 232.063 178.888C232.319 179.624 232.442 180.52 232.431 181.576H226.271L226.015 180.056H230.463L230.111 180.808C230.1 179.944 229.978 179.336 229.743 178.984C229.508 178.632 229.124 178.456 228.591 178.456C228.292 178.456 228.02 178.531 227.775 178.68C227.54 178.829 227.354 179.08 227.215 179.432C227.087 179.773 227.023 180.248 227.023 180.856C227.023 181.624 227.204 182.216 227.567 182.632C227.94 183.048 228.532 183.256 229.343 183.256C229.642 183.256 229.935 183.224 230.223 183.16C230.522 183.085 230.799 183 231.055 182.904C231.311 182.808 231.53 182.723 231.711 182.648V184.696C231.327 184.856 230.895 184.984 230.415 185.08C229.946 185.187 229.396 185.24 228.767 185.24Z" fill="#34324E"/>
<path d="M25.164 200.292C25.716 200.292 26.204 200.424 26.628 200.688C27.052 200.952 27.38 201.34 27.612 201.852C27.852 202.356 27.972 202.96 27.972 203.664C27.972 204.84 27.656 205.724 27.024 206.316C26.4 206.9 25.572 207.192 24.54 207.192C24.14 207.192 23.764 207.136 23.412 207.024V209.82H22.092V200.472H23.1L23.244 201C23.812 200.528 24.452 200.292 25.164 200.292ZM24.468 206.208C25.196 206.208 25.736 205.984 26.088 205.536C26.448 205.08 26.628 204.448 26.628 203.64C26.628 202.808 26.476 202.212 26.172 201.852C25.876 201.484 25.504 201.3 25.056 201.3C24.736 201.3 24.448 201.344 24.192 201.432C23.944 201.52 23.684 201.664 23.412 201.864V206.028C23.732 206.148 24.084 206.208 24.468 206.208ZM30.3117 198.78C30.0877 198.78 29.8957 198.7 29.7357 198.54C29.5757 198.38 29.4957 198.192 29.4957 197.976C29.4957 197.752 29.5757 197.56 29.7357 197.4C29.8957 197.232 30.0877 197.148 30.3117 197.148C30.5357 197.148 30.7277 197.232 30.8877 197.4C31.0477 197.56 31.1277 197.752 31.1277 197.976C31.1277 198.192 31.0477 198.38 30.8877 198.54C30.7277 198.7 30.5357 198.78 30.3117 198.78ZM29.6517 200.484H30.9717V207H29.6517V200.484ZM35.8651 207.192C35.1611 207.192 34.5691 207.04 34.0891 206.736C33.6091 206.432 33.2491 206.02 33.0091 205.5C32.7771 204.98 32.6611 204.4 32.6611 203.76C32.6611 203.128 32.7811 202.552 33.0211 202.032C33.2611 201.504 33.6331 201.084 34.1371 200.772C34.6411 200.452 35.2691 200.292 36.0211 200.292C36.3891 200.292 36.7531 200.352 37.1131 200.472C37.4731 200.592 37.7691 200.752 38.0011 200.952L37.6051 201.888C37.3971 201.704 37.1531 201.56 36.8731 201.456C36.5931 201.344 36.3091 201.288 36.0211 201.288C35.3811 201.288 34.8851 201.512 34.5331 201.96C34.1811 202.4 34.0051 202.996 34.0051 203.748C34.0051 204.5 34.1691 205.1 34.4971 205.548C34.8251 205.988 35.2811 206.208 35.8651 206.208C36.2411 206.208 36.5771 206.136 36.8731 205.992C37.1691 205.84 37.4611 205.632 37.7491 205.368L38.1931 206.208C37.9131 206.496 37.5731 206.732 37.1731 206.916C36.7731 207.1 36.3371 207.192 35.8651 207.192ZM39.5764 197.4H40.8964V207H39.5764V197.4ZM45.2404 207H43.7524L41.0404 203.568V203.328L43.3924 200.484H44.7964L42.3124 203.436L45.2404 207ZM55.1408 206.976C54.9248 207.032 54.7448 207.072 54.6008 207.096C54.4568 207.12 54.2928 207.132 54.1088 207.132C53.7888 207.132 53.5208 207.072 53.3048 206.952C53.0968 206.824 52.9568 206.608 52.8848 206.304C52.5248 206.576 52.1728 206.784 51.8288 206.928C51.4848 207.072 51.1328 207.144 50.7728 207.144C50.2608 207.144 49.8408 206.996 49.5128 206.7C49.1848 206.396 49.0208 206.02 49.0208 205.572C49.0208 205.14 49.1368 204.788 49.3688 204.516C49.6008 204.236 49.9208 204.008 50.3288 203.832C50.7448 203.656 51.3248 203.46 52.0688 203.244L52.8368 203.028V202.668C52.8368 202.252 52.7488 201.924 52.5728 201.684C52.4048 201.436 52.1328 201.312 51.7568 201.312C51.3808 201.312 51.0168 201.392 50.6648 201.552C50.3208 201.712 49.9288 202 49.4888 202.416L49.0568 201.552C50.0008 200.712 51.0128 200.292 52.0928 200.292C52.7968 200.292 53.3168 200.48 53.6528 200.856C53.9888 201.232 54.1568 201.86 54.1568 202.74V205.656C54.1568 205.832 54.1888 205.96 54.2528 206.04C54.3168 206.112 54.4208 206.148 54.5648 206.148C54.7008 206.148 54.8688 206.112 55.0688 206.04L55.1408 206.976ZM50.3408 205.44C50.3408 205.688 50.4088 205.872 50.5448 205.992C50.6888 206.104 50.8848 206.16 51.1328 206.16C51.3888 206.16 51.6528 206.1 51.9248 205.98C52.1968 205.852 52.5008 205.664 52.8368 205.416V203.856L52.2728 204.024C51.5528 204.248 51.0488 204.464 50.7608 204.672C50.4808 204.872 50.3408 205.128 50.3408 205.44ZM62.4765 200.292C63.0285 200.292 63.5165 200.424 63.9405 200.688C64.3645 200.952 64.6925 201.34 64.9245 201.852C65.1645 202.356 65.2845 202.96 65.2845 203.664C65.2845 204.84 64.9685 205.724 64.3365 206.316C63.7125 206.9 62.8845 207.192 61.8525 207.192C61.4525 207.192 61.0765 207.136 60.7245 207.024V209.82H59.4045V200.472H60.4125L60.5565 201C61.1245 200.528 61.7645 200.292 62.4765 200.292ZM61.7805 206.208C62.5085 206.208 63.0485 205.984 63.4005 205.536C63.7605 205.08 63.9405 204.448 63.9405 203.64C63.9405 202.808 63.7885 202.212 63.4845 201.852C63.1885 201.484 62.8165 201.3 62.3685 201.3C62.0485 201.3 61.7605 201.344 61.5045 201.432C61.2565 201.52 60.9965 201.664 60.7245 201.864V206.028C61.0445 206.148 61.3965 206.208 61.7805 206.208ZM69.5682 206.208C69.9602 206.208 70.3162 206.128 70.6362 205.968C70.9642 205.8 71.2882 205.564 71.6082 205.26L72.0522 206.1C71.7082 206.452 71.3362 206.724 70.9362 206.916C70.5362 207.1 70.0802 207.192 69.5682 207.192C68.8642 207.192 68.2722 207.04 67.7922 206.736C67.3122 206.432 66.9522 206.02 66.7122 205.5C66.4802 204.98 66.3642 204.4 66.3642 203.76C66.3642 203.096 66.4802 202.504 66.7122 201.984C66.9522 201.464 67.3122 201.052 67.7922 200.748C68.2722 200.444 68.8642 200.292 69.5682 200.292C70.3362 200.292 70.9482 200.512 71.4042 200.952C71.8682 201.392 72.1002 202.004 72.1002 202.788C72.1002 203.028 72.0682 203.296 72.0042 203.592H67.6842V203.736C67.6842 204.504 67.8402 205.108 68.1522 205.548C68.4722 205.988 68.9442 206.208 69.5682 206.208ZM69.5082 201.228C69.0602 201.228 68.6922 201.356 68.4042 201.612C68.1242 201.868 67.9242 202.224 67.8042 202.68H70.8042V202.56C70.8042 202.128 70.6762 201.8 70.4202 201.576C70.1722 201.344 69.8682 201.228 69.5082 201.228ZM77.3477 201.552C76.9557 201.552 76.5877 201.604 76.2437 201.708C75.8997 201.812 75.5157 202.012 75.0917 202.308V207H73.7717V200.484H74.7797L75.0077 201.324C75.4077 200.948 75.7917 200.684 76.1597 200.532C76.5357 200.38 76.9317 200.304 77.3477 200.304V201.552ZM80.551 207.192C79.647 207.192 78.879 207.004 78.247 206.628L78.583 205.68C79.175 206.032 79.831 206.208 80.551 206.208C80.943 206.208 81.263 206.124 81.511 205.956C81.767 205.788 81.895 205.548 81.895 205.236C81.895 204.972 81.779 204.768 81.547 204.624C81.323 204.48 80.963 204.316 80.467 204.132C80.043 203.98 79.695 203.836 79.423 203.7C79.151 203.564 78.919 203.38 78.727 203.148C78.543 202.908 78.451 202.604 78.451 202.236C78.451 201.604 78.675 201.124 79.123 200.796C79.571 200.46 80.167 200.292 80.911 200.292C81.695 200.292 82.383 200.472 82.975 200.832L82.639 201.78C82.095 201.452 81.527 201.288 80.935 201.288C80.583 201.288 80.299 201.356 80.083 201.492C79.867 201.628 79.759 201.832 79.759 202.104C79.759 202.36 79.871 202.56 80.095 202.704C80.319 202.848 80.671 203.004 81.151 203.172C81.591 203.324 81.943 203.472 82.207 203.616C82.479 203.752 82.711 203.948 82.903 204.204C83.103 204.452 83.203 204.772 83.203 205.164C83.203 205.796 82.967 206.292 82.495 206.652C82.023 207.012 81.375 207.192 80.551 207.192ZM87.4862 207.192C86.7902 207.192 86.2022 207.04 85.7222 206.736C85.2422 206.432 84.8822 206.02 84.6422 205.5C84.4022 204.98 84.2822 204.4 84.2822 203.76C84.2822 203.096 84.4022 202.504 84.6422 201.984C84.8822 201.464 85.2422 201.052 85.7222 200.748C86.2022 200.444 86.7902 200.292 87.4862 200.292C88.1822 200.292 88.7702 200.452 89.2502 200.772C89.7302 201.084 90.0902 201.5 90.3302 202.02C90.5702 202.54 90.6902 203.112 90.6902 203.736C90.6902 204.36 90.5702 204.936 90.3302 205.464C90.0902 205.984 89.7302 206.404 89.2502 206.724C88.7702 207.036 88.1822 207.192 87.4862 207.192ZM87.4982 206.208C88.1062 206.208 88.5662 205.992 88.8782 205.56C89.1982 205.12 89.3582 204.516 89.3582 203.748C89.3582 202.988 89.1982 202.388 88.8782 201.948C88.5662 201.508 88.1062 201.288 87.4982 201.288C86.8822 201.288 86.4182 201.508 86.1062 201.948C85.7942 202.388 85.6382 202.988 85.6382 203.748C85.6382 204.516 85.7942 205.12 86.1062 205.56C86.4182 205.992 86.8822 206.208 87.4982 206.208ZM95.7542 200.292C96.5142 200.292 97.0342 200.492 97.3142 200.892C97.6022 201.284 97.7462 201.852 97.7462 202.596V207H96.4142V202.74C96.4142 202.22 96.3382 201.852 96.1862 201.636C96.0422 201.42 95.7742 201.312 95.3822 201.312C94.8542 201.312 94.2782 201.548 93.6542 202.02V207H92.3342V200.484H93.3422L93.5102 201.12C94.2942 200.568 95.0422 200.292 95.7542 200.292ZM104.681 200.484H106.601V201.468H104.681V207H103.361V201.468H102.341V200.904L103.361 200.58V199.992C103.361 199.144 103.553 198.496 103.937 198.048C104.329 197.592 104.921 197.364 105.713 197.364C105.977 197.364 106.281 197.396 106.625 197.46L106.493 198.42C106.269 198.38 106.065 198.36 105.881 198.36C105.465 198.36 105.161 198.5 104.969 198.78C104.777 199.052 104.681 199.464 104.681 200.016V200.484ZM111.391 201.552C110.999 201.552 110.631 201.604 110.287 201.708C109.943 201.812 109.559 202.012 109.135 202.308V207H107.815V200.484H108.823L109.051 201.324C109.451 200.948 109.835 200.684 110.203 200.532C110.579 200.38 110.975 200.304 111.391 200.304V201.552ZM115.494 207.192C114.798 207.192 114.21 207.04 113.73 206.736C113.25 206.432 112.89 206.02 112.65 205.5C112.41 204.98 112.29 204.4 112.29 203.76C112.29 203.096 112.41 202.504 112.65 201.984C112.89 201.464 113.25 201.052 113.73 200.748C114.21 200.444 114.798 200.292 115.494 200.292C116.19 200.292 116.778 200.452 117.258 200.772C117.738 201.084 118.098 201.5 118.338 202.02C118.578 202.54 118.698 203.112 118.698 203.736C118.698 204.36 118.578 204.936 118.338 205.464C118.098 205.984 117.738 206.404 117.258 206.724C116.778 207.036 116.19 207.192 115.494 207.192ZM115.506 206.208C116.114 206.208 116.574 205.992 116.886 205.56C117.206 205.12 117.366 204.516 117.366 203.748C117.366 202.988 117.206 202.388 116.886 201.948C116.574 201.508 116.114 201.288 115.506 201.288C114.89 201.288 114.426 201.508 114.114 201.948C113.802 202.388 113.646 202.988 113.646 203.748C113.646 204.516 113.802 205.12 114.114 205.56C114.426 205.992 114.89 206.208 115.506 206.208ZM127.674 200.292C128.41 200.292 128.914 200.488 129.186 200.88C129.458 201.272 129.594 201.844 129.594 202.596V207H128.274V202.74C128.274 202.22 128.202 201.852 128.058 201.636C127.914 201.42 127.662 201.312 127.302 201.312C127.038 201.312 126.77 201.376 126.498 201.504C126.226 201.624 125.93 201.804 125.61 202.044L125.598 202.008C125.614 202.248 125.622 202.444 125.622 202.596V207H124.302V202.74C124.302 202.22 124.23 201.852 124.086 201.636C123.942 201.42 123.69 201.312 123.33 201.312C122.842 201.312 122.286 201.548 121.662 202.02V207H120.342V200.484H121.35L121.518 201.12C122.294 200.568 123.022 200.292 123.702 200.292C124.158 200.292 124.522 200.368 124.794 200.52C125.066 200.672 125.266 200.896 125.394 201.192C126.21 200.592 126.97 200.292 127.674 200.292ZM138.573 206.712C138.125 206.992 137.633 207.132 137.097 207.132C136.377 207.132 135.841 206.948 135.489 206.58C135.137 206.204 134.961 205.668 134.961 204.972V201.468H133.941V200.904L135.093 200.532L135.489 198.912H136.281V200.484H138.201V201.468H136.281V204.72C136.281 205.224 136.361 205.588 136.521 205.812C136.681 206.028 136.941 206.136 137.301 206.136C137.485 206.128 137.657 206.1 137.817 206.052C137.977 206.004 138.153 205.928 138.345 205.824L138.573 206.712ZM143.462 200.292C144.214 200.292 144.73 200.488 145.01 200.88C145.298 201.272 145.442 201.844 145.442 202.596V207H144.122V202.74C144.122 202.22 144.046 201.852 143.894 201.636C143.742 201.42 143.47 201.312 143.078 201.312C142.55 201.312 141.974 201.552 141.35 202.032V207H140.03V197.4H141.35V201.036C142.078 200.54 142.782 200.292 143.462 200.292ZM150.217 206.208C150.609 206.208 150.965 206.128 151.285 205.968C151.613 205.8 151.937 205.564 152.257 205.26L152.701 206.1C152.357 206.452 151.985 206.724 151.585 206.916C151.185 207.1 150.729 207.192 150.217 207.192C149.513 207.192 148.921 207.04 148.441 206.736C147.961 206.432 147.601 206.02 147.361 205.5C147.129 204.98 147.013 204.4 147.013 203.76C147.013 203.096 147.129 202.504 147.361 201.984C147.601 201.464 147.961 201.052 148.441 200.748C148.921 200.444 149.513 200.292 150.217 200.292C150.985 200.292 151.597 200.512 152.053 200.952C152.517 201.392 152.749 202.004 152.749 202.788C152.749 203.028 152.717 203.296 152.653 203.592H148.333V203.736C148.333 204.504 148.489 205.108 148.801 205.548C149.121 205.988 149.593 206.208 150.217 206.208ZM150.157 201.228C149.709 201.228 149.341 201.356 149.053 201.612C148.773 201.868 148.573 202.224 148.453 202.68H151.453V202.56C151.453 202.128 151.325 201.8 151.069 201.576C150.821 201.344 150.517 201.228 150.157 201.228ZM157.42 197.4H158.74V207H157.42V197.4ZM163.576 206.208C163.968 206.208 164.324 206.128 164.644 205.968C164.972 205.8 165.296 205.564 165.616 205.26L166.06 206.1C165.716 206.452 165.344 206.724 164.944 206.916C164.544 207.1 164.088 207.192 163.576 207.192C162.872 207.192 162.28 207.04 161.8 206.736C161.32 206.432 160.96 206.02 160.72 205.5C160.488 204.98 160.372 204.4 160.372 203.76C160.372 203.096 160.488 202.504 160.72 201.984C160.96 201.464 161.32 201.052 161.8 200.748C162.28 200.444 162.872 200.292 163.576 200.292C164.344 200.292 164.956 200.512 165.412 200.952C165.876 201.392 166.108 202.004 166.108 202.788C166.108 203.028 166.076 203.296 166.012 203.592H161.692V203.736C161.692 204.504 161.848 205.108 162.16 205.548C162.48 205.988 162.952 206.208 163.576 206.208ZM163.516 201.228C163.068 201.228 162.7 201.356 162.412 201.612C162.132 201.868 161.932 202.224 161.812 202.68H164.812V202.56C164.812 202.128 164.684 201.8 164.428 201.576C164.18 201.344 163.876 201.228 163.516 201.228ZM169.592 200.484H171.512V201.468H169.592V207H168.271V201.468H167.252V200.904L168.271 200.58V199.992C168.271 199.144 168.464 198.496 168.848 198.048C169.24 197.592 169.832 197.364 170.624 197.364C170.888 197.364 171.192 197.396 171.536 197.46L171.404 198.42C171.18 198.38 170.976 198.36 170.792 198.36C170.376 198.36 170.072 198.5 169.88 198.78C169.688 199.052 169.592 199.464 169.592 200.016V200.484ZM176.577 206.712C176.129 206.992 175.637 207.132 175.101 207.132C174.381 207.132 173.845 206.948 173.493 206.58C173.141 206.204 172.965 205.668 172.965 204.972V201.468H171.945V200.904L173.097 200.532L173.493 198.912H174.285V200.484H176.205V201.468H174.285V204.72C174.285 205.224 174.365 205.588 174.525 205.812C174.685 206.028 174.945 206.136 175.305 206.136C175.489 206.128 175.661 206.1 175.821 206.052C175.981 206.004 176.157 205.928 176.349 205.824L176.577 206.712ZM188.365 200.292C189.101 200.292 189.605 200.488 189.877 200.88C190.149 201.272 190.285 201.844 190.285 202.596V207H188.965V202.74C188.965 202.22 188.893 201.852 188.749 201.636C188.605 201.42 188.353 201.312 187.993 201.312C187.729 201.312 187.461 201.376 187.189 201.504C186.917 201.624 186.621 201.804 186.301 202.044L186.289 202.008C186.305 202.248 186.313 202.444 186.313 202.596V207H184.993V202.74C184.993 202.22 184.921 201.852 184.777 201.636C184.633 201.42 184.381 201.312 184.021 201.312C183.533 201.312 182.977 201.548 182.353 202.02V207H181.033V200.484H182.041L182.209 201.12C182.985 200.568 183.713 200.292 184.393 200.292C184.849 200.292 185.213 200.368 185.485 200.52C185.757 200.672 185.957 200.896 186.085 201.192C186.901 200.592 187.661 200.292 188.365 200.292ZM195.064 206.208C195.456 206.208 195.812 206.128 196.132 205.968C196.46 205.8 196.784 205.564 197.104 205.26L197.548 206.1C197.204 206.452 196.832 206.724 196.432 206.916C196.032 207.1 195.576 207.192 195.064 207.192C194.36 207.192 193.768 207.04 193.288 206.736C192.808 206.432 192.448 206.02 192.208 205.5C191.976 204.98 191.86 204.4 191.86 203.76C191.86 203.096 191.976 202.504 192.208 201.984C192.448 201.464 192.808 201.052 193.288 200.748C193.768 200.444 194.36 200.292 195.064 200.292C195.832 200.292 196.444 200.512 196.9 200.952C197.364 201.392 197.596 202.004 197.596 202.788C197.596 203.028 197.564 203.296 197.5 203.592H193.18V203.736C193.18 204.504 193.336 205.108 193.648 205.548C193.968 205.988 194.44 206.208 195.064 206.208ZM195.004 201.228C194.556 201.228 194.188 201.356 193.9 201.612C193.62 201.868 193.42 202.224 193.3 202.68H196.3V202.56C196.3 202.128 196.172 201.8 195.916 201.576C195.668 201.344 195.364 201.228 195.004 201.228ZM202.688 200.292C203.448 200.292 203.968 200.492 204.248 200.892C204.536 201.284 204.68 201.852 204.68 202.596V207H203.348V202.74C203.348 202.22 203.272 201.852 203.12 201.636C202.976 201.42 202.708 201.312 202.316 201.312C201.788 201.312 201.212 201.548 200.588 202.02V207H199.268V200.484H200.276L200.444 201.12C201.228 200.568 201.976 200.292 202.688 200.292ZM212.155 200.484V207H211.147L210.979 206.376C210.203 206.92 209.451 207.192 208.723 207.192C207.971 207.192 207.451 206.996 207.163 206.604C206.883 206.212 206.743 205.64 206.743 204.888V200.484H208.063V204.756C208.063 205.268 208.139 205.636 208.291 205.86C208.443 206.076 208.715 206.184 209.107 206.184C209.635 206.184 210.211 205.944 210.835 205.464V200.484H212.155Z" fill="#34324E"/>
<path d="M40.672 231.976C40.456 232.032 40.276 232.072 40.132 232.096C39.988 232.12 39.824 232.132 39.64 232.132C39.32 232.132 39.052 232.072 38.836 231.952C38.628 231.824 38.488 231.608 38.416 231.304C38.056 231.576 37.704 231.784 37.36 231.928C37.016 232.072 36.664 232.144 36.304 232.144C35.792 232.144 35.372 231.996 35.044 231.7C34.716 231.396 34.552 231.02 34.552 230.572C34.552 230.14 34.668 229.788 34.9 229.516C35.132 229.236 35.452 229.008 35.86 228.832C36.276 228.656 36.856 228.46 37.6 228.244L38.368 228.028V227.668C38.368 227.252 38.28 226.924 38.104 226.684C37.936 226.436 37.664 226.312 37.288 226.312C36.912 226.312 36.548 226.392 36.196 226.552C35.852 226.712 35.46 227 35.02 227.416L34.588 226.552C35.532 225.712 36.544 225.292 37.624 225.292C38.328 225.292 38.848 225.48 39.184 225.856C39.52 226.232 39.688 226.86 39.688 227.74V230.656C39.688 230.832 39.72 230.96 39.784 231.04C39.848 231.112 39.952 231.148 40.096 231.148C40.232 231.148 40.4 231.112 40.6 231.04L40.672 231.976ZM35.872 230.44C35.872 230.688 35.94 230.872 36.076 230.992C36.22 231.104 36.416 231.16 36.664 231.16C36.92 231.16 37.184 231.1 37.456 230.98C37.728 230.852 38.032 230.664 38.368 230.416V228.856L37.804 229.024C37.084 229.248 36.58 229.464 36.292 229.672C36.012 229.872 35.872 230.128 35.872 230.44ZM45.3558 225.292C46.1158 225.292 46.6358 225.492 46.9158 225.892C47.2038 226.284 47.3478 226.852 47.3478 227.596V232H46.0158V227.74C46.0158 227.22 45.9398 226.852 45.7878 226.636C45.6438 226.42 45.3758 226.312 44.9838 226.312C44.4558 226.312 43.8798 226.548 43.2558 227.02V232H41.9358V225.484H42.9438L43.1118 226.12C43.8958 225.568 44.6438 225.292 45.3558 225.292ZM54.7989 222.4V232H53.7909L53.6469 231.472C53.0709 231.952 52.4309 232.192 51.7269 232.192C51.1749 232.192 50.6869 232.064 50.2629 231.808C49.8389 231.544 49.5069 231.16 49.2669 230.656C49.0349 230.152 48.9189 229.544 48.9189 228.832C48.9189 227.64 49.2309 226.752 49.8549 226.168C50.4869 225.584 51.3189 225.292 52.3509 225.292C52.7509 225.292 53.1269 225.348 53.4789 225.46V222.4H54.7989ZM50.2629 228.832C50.2629 229.664 50.4109 230.268 50.7069 230.644C51.0109 231.012 51.3869 231.196 51.8349 231.196C52.1549 231.196 52.4389 231.152 52.6869 231.064C52.9429 230.968 53.2069 230.82 53.4789 230.62V226.456C53.1829 226.344 52.8309 226.288 52.4229 226.288C51.6949 226.288 51.1509 226.512 50.7909 226.96C50.4389 227.408 50.2629 228.032 50.2629 228.832ZM61.7346 232.192C60.8306 232.192 60.0626 232.004 59.4306 231.628L59.7666 230.68C60.3586 231.032 61.0146 231.208 61.7346 231.208C62.1266 231.208 62.4466 231.124 62.6946 230.956C62.9506 230.788 63.0786 230.548 63.0786 230.236C63.0786 229.972 62.9626 229.768 62.7306 229.624C62.5066 229.48 62.1466 229.316 61.6506 229.132C61.2266 228.98 60.8786 228.836 60.6066 228.7C60.3346 228.564 60.1026 228.38 59.9106 228.148C59.7266 227.908 59.6346 227.604 59.6346 227.236C59.6346 226.604 59.8586 226.124 60.3066 225.796C60.7546 225.46 61.3506 225.292 62.0946 225.292C62.8786 225.292 63.5666 225.472 64.1586 225.832L63.8226 226.78C63.2786 226.452 62.7106 226.288 62.1186 226.288C61.7666 226.288 61.4826 226.356 61.2666 226.492C61.0506 226.628 60.9426 226.832 60.9426 227.104C60.9426 227.36 61.0546 227.56 61.2786 227.704C61.5026 227.848 61.8546 228.004 62.3346 228.172C62.7746 228.324 63.1266 228.472 63.3906 228.616C63.6626 228.752 63.8946 228.948 64.0866 229.204C64.2866 229.452 64.3866 229.772 64.3866 230.164C64.3866 230.796 64.1506 231.292 63.6786 231.652C63.2066 232.012 62.5586 232.192 61.7346 232.192ZM69.8698 231.712C69.4218 231.992 68.9298 232.132 68.3938 232.132C67.6738 232.132 67.1378 231.948 66.7858 231.58C66.4338 231.204 66.2578 230.668 66.2578 229.972V226.468H65.2378V225.904L66.3898 225.532L66.7858 223.912H67.5778V225.484H69.4978V226.468H67.5778V229.72C67.5778 230.224 67.6578 230.588 67.8178 230.812C67.9778 231.028 68.2378 231.136 68.5978 231.136C68.7818 231.128 68.9538 231.1 69.1138 231.052C69.2738 231.004 69.4498 230.928 69.6418 230.824L69.8698 231.712ZM76.9064 231.976C76.6904 232.032 76.5104 232.072 76.3664 232.096C76.2224 232.12 76.0584 232.132 75.8744 232.132C75.5544 232.132 75.2864 232.072 75.0704 231.952C74.8624 231.824 74.7224 231.608 74.6504 231.304C74.2904 231.576 73.9384 231.784 73.5944 231.928C73.2504 232.072 72.8984 232.144 72.5384 232.144C72.0264 232.144 71.6064 231.996 71.2784 231.7C70.9504 231.396 70.7864 231.02 70.7864 230.572C70.7864 230.14 70.9024 229.788 71.1344 229.516C71.3664 229.236 71.6864 229.008 72.0944 228.832C72.5104 228.656 73.0904 228.46 73.8344 228.244L74.6024 228.028V227.668C74.6024 227.252 74.5144 226.924 74.3384 226.684C74.1704 226.436 73.8984 226.312 73.5224 226.312C73.1464 226.312 72.7824 226.392 72.4304 226.552C72.0864 226.712 71.6944 227 71.2544 227.416L70.8224 226.552C71.7664 225.712 72.7784 225.292 73.8584 225.292C74.5624 225.292 75.0824 225.48 75.4184 225.856C75.7544 226.232 75.9224 226.86 75.9224 227.74V230.656C75.9224 230.832 75.9544 230.96 76.0184 231.04C76.0824 231.112 76.1864 231.148 76.3304 231.148C76.4664 231.148 76.6344 231.112 76.8344 231.04L76.9064 231.976ZM72.1064 230.44C72.1064 230.688 72.1744 230.872 72.3104 230.992C72.4544 231.104 72.6504 231.16 72.8984 231.16C73.1544 231.16 73.4184 231.1 73.6904 230.98C73.9624 230.852 74.2664 230.664 74.6024 230.416V228.856L74.0384 229.024C73.3184 229.248 72.8144 229.464 72.5264 229.672C72.2464 229.872 72.1064 230.128 72.1064 230.44ZM81.7461 226.552C81.3541 226.552 80.9861 226.604 80.6421 226.708C80.2981 226.812 79.9141 227.012 79.4901 227.308V232H78.1701V225.484H79.1781L79.4061 226.324C79.8061 225.948 80.1901 225.684 80.5581 225.532C80.9341 225.38 81.3301 225.304 81.7461 225.304V226.552ZM87.0495 231.712C86.6015 231.992 86.1095 232.132 85.5735 232.132C84.8535 232.132 84.3175 231.948 83.9655 231.58C83.6135 231.204 83.4375 230.668 83.4375 229.972V226.468H82.4175V225.904L83.5695 225.532L83.9655 223.912H84.7575V225.484H86.6775V226.468H84.7575V229.72C84.7575 230.224 84.8375 230.588 84.9975 230.812C85.1575 231.028 85.4175 231.136 85.7775 231.136C85.9615 231.128 86.1335 231.1 86.2935 231.052C86.4535 231.004 86.6295 230.928 86.8215 230.824L87.0495 231.712ZM95.3581 231.712C94.9101 231.992 94.4181 232.132 93.8821 232.132C93.1621 232.132 92.6261 231.948 92.2741 231.58C91.9221 231.204 91.7461 230.668 91.7461 229.972V226.468H90.7261V225.904L91.8781 225.532L92.2741 223.912H93.0661V225.484H94.9861V226.468H93.0661V229.72C93.0661 230.224 93.1461 230.588 93.3061 230.812C93.4661 231.028 93.7261 231.136 94.0861 231.136C94.2701 231.128 94.4421 231.1 94.6021 231.052C94.7621 231.004 94.9381 230.928 95.1301 230.824L95.3581 231.712ZM100.247 225.292C100.999 225.292 101.515 225.488 101.795 225.88C102.083 226.272 102.227 226.844 102.227 227.596V232H100.907V227.74C100.907 227.22 100.831 226.852 100.679 226.636C100.527 226.42 100.255 226.312 99.8627 226.312C99.3347 226.312 98.7587 226.552 98.1347 227.032V232H96.8147V222.4H98.1347V226.036C98.8627 225.54 99.5667 225.292 100.247 225.292ZM107.002 231.208C107.394 231.208 107.75 231.128 108.07 230.968C108.398 230.8 108.722 230.564 109.042 230.26L109.486 231.1C109.142 231.452 108.77 231.724 108.37 231.916C107.97 232.1 107.514 232.192 107.002 232.192C106.298 232.192 105.706 232.04 105.226 231.736C104.746 231.432 104.386 231.02 104.146 230.5C103.914 229.98 103.798 229.4 103.798 228.76C103.798 228.096 103.914 227.504 104.146 226.984C104.386 226.464 104.746 226.052 105.226 225.748C105.706 225.444 106.298 225.292 107.002 225.292C107.77 225.292 108.382 225.512 108.838 225.952C109.302 226.392 109.534 227.004 109.534 227.788C109.534 228.028 109.502 228.296 109.438 228.592H105.118V228.736C105.118 229.504 105.274 230.108 105.586 230.548C105.906 230.988 106.378 231.208 107.002 231.208ZM106.942 226.228C106.494 226.228 106.126 226.356 105.838 226.612C105.558 226.868 105.358 227.224 105.238 227.68H108.238V227.56C108.238 227.128 108.11 226.8 107.854 226.576C107.606 226.344 107.302 226.228 106.942 226.228ZM116.857 232.192C116.153 232.192 115.561 232.04 115.081 231.736C114.601 231.432 114.241 231.02 114.001 230.5C113.769 229.98 113.653 229.4 113.653 228.76C113.653 228.128 113.773 227.552 114.013 227.032C114.253 226.504 114.625 226.084 115.129 225.772C115.633 225.452 116.261 225.292 117.013 225.292C117.381 225.292 117.745 225.352 118.105 225.472C118.465 225.592 118.761 225.752 118.993 225.952L118.597 226.888C118.389 226.704 118.145 226.56 117.865 226.456C117.585 226.344 117.301 226.288 117.013 226.288C116.373 226.288 115.877 226.512 115.525 226.96C115.173 227.4 114.997 227.996 114.997 228.748C114.997 229.5 115.161 230.1 115.489 230.548C115.817 230.988 116.273 231.208 116.857 231.208C117.233 231.208 117.569 231.136 117.865 230.992C118.161 230.84 118.453 230.632 118.741 230.368L119.185 231.208C118.905 231.496 118.565 231.732 118.165 231.916C117.765 232.1 117.329 232.192 116.857 232.192ZM123.221 232.192C122.525 232.192 121.937 232.04 121.457 231.736C120.977 231.432 120.617 231.02 120.377 230.5C120.137 229.98 120.017 229.4 120.017 228.76C120.017 228.096 120.137 227.504 120.377 226.984C120.617 226.464 120.977 226.052 121.457 225.748C121.937 225.444 122.525 225.292 123.221 225.292C123.917 225.292 124.505 225.452 124.985 225.772C125.465 226.084 125.825 226.5 126.065 227.02C126.305 227.54 126.425 228.112 126.425 228.736C126.425 229.36 126.305 229.936 126.065 230.464C125.825 230.984 125.465 231.404 124.985 231.724C124.505 232.036 123.917 232.192 123.221 232.192ZM123.233 231.208C123.841 231.208 124.301 230.992 124.613 230.56C124.933 230.12 125.093 229.516 125.093 228.748C125.093 227.988 124.933 227.388 124.613 226.948C124.301 226.508 123.841 226.288 123.233 226.288C122.617 226.288 122.153 226.508 121.841 226.948C121.529 227.388 121.373 227.988 121.373 228.748C121.373 229.516 121.529 230.12 121.841 230.56C122.153 230.992 122.617 231.208 123.233 231.208ZM131.489 225.292C132.249 225.292 132.769 225.492 133.049 225.892C133.337 226.284 133.481 226.852 133.481 227.596V232H132.149V227.74C132.149 227.22 132.073 226.852 131.921 226.636C131.777 226.42 131.509 226.312 131.117 226.312C130.589 226.312 130.013 226.548 129.389 227.02V232H128.069V225.484H129.077L129.245 226.12C130.029 225.568 130.777 225.292 131.489 225.292ZM140.992 225.484L138.46 232.084H137.212L134.68 225.484H136.036L137.848 230.62L139.648 225.484H140.992ZM144.9 231.208C145.292 231.208 145.648 231.128 145.968 230.968C146.296 230.8 146.62 230.564 146.94 230.26L147.384 231.1C147.04 231.452 146.668 231.724 146.268 231.916C145.868 232.1 145.412 232.192 144.9 232.192C144.196 232.192 143.604 232.04 143.124 231.736C142.644 231.432 142.284 231.02 142.044 230.5C141.812 229.98 141.696 229.4 141.696 228.76C141.696 228.096 141.812 227.504 142.044 226.984C142.284 226.464 142.644 226.052 143.124 225.748C143.604 225.444 144.196 225.292 144.9 225.292C145.668 225.292 146.28 225.512 146.736 225.952C147.2 226.392 147.432 227.004 147.432 227.788C147.432 228.028 147.4 228.296 147.336 228.592H143.016V228.736C143.016 229.504 143.172 230.108 143.484 230.548C143.804 230.988 144.276 231.208 144.9 231.208ZM144.84 226.228C144.392 226.228 144.024 226.356 143.736 226.612C143.456 226.868 143.256 227.224 143.136 227.68H146.136V227.56C146.136 227.128 146.008 226.8 145.752 226.576C145.504 226.344 145.2 226.228 144.84 226.228ZM152.68 226.552C152.288 226.552 151.92 226.604 151.576 226.708C151.232 226.812 150.848 227.012 150.424 227.308V232H149.104V225.484H150.112L150.34 226.324C150.74 225.948 151.124 225.684 151.492 225.532C151.868 225.38 152.264 225.304 152.68 225.304V226.552ZM155.883 232.192C154.979 232.192 154.211 232.004 153.579 231.628L153.915 230.68C154.507 231.032 155.163 231.208 155.883 231.208C156.275 231.208 156.595 231.124 156.843 230.956C157.099 230.788 157.227 230.548 157.227 230.236C157.227 229.972 157.111 229.768 156.879 229.624C156.655 229.48 156.295 229.316 155.799 229.132C155.375 228.98 155.027 228.836 154.755 228.7C154.483 228.564 154.251 228.38 154.059 228.148C153.875 227.908 153.783 227.604 153.783 227.236C153.783 226.604 154.007 226.124 154.455 225.796C154.903 225.46 155.499 225.292 156.243 225.292C157.027 225.292 157.715 225.472 158.307 225.832L157.971 226.78C157.427 226.452 156.859 226.288 156.267 226.288C155.915 226.288 155.631 226.356 155.415 226.492C155.199 226.628 155.091 226.832 155.091 227.104C155.091 227.36 155.203 227.56 155.427 227.704C155.651 227.848 156.003 228.004 156.483 228.172C156.923 228.324 157.275 228.472 157.539 228.616C157.811 228.752 158.043 228.948 158.235 229.204C158.435 229.452 158.535 229.772 158.535 230.164C158.535 230.796 158.299 231.292 157.827 231.652C157.355 232.012 156.707 232.192 155.883 232.192ZM165.746 231.976C165.53 232.032 165.35 232.072 165.206 232.096C165.062 232.12 164.898 232.132 164.714 232.132C164.394 232.132 164.126 232.072 163.91 231.952C163.702 231.824 163.562 231.608 163.49 231.304C163.13 231.576 162.778 231.784 162.434 231.928C162.09 232.072 161.738 232.144 161.378 232.144C160.866 232.144 160.446 231.996 160.118 231.7C159.79 231.396 159.626 231.02 159.626 230.572C159.626 230.14 159.742 229.788 159.974 229.516C160.206 229.236 160.526 229.008 160.934 228.832C161.35 228.656 161.93 228.46 162.674 228.244L163.442 228.028V227.668C163.442 227.252 163.354 226.924 163.178 226.684C163.01 226.436 162.738 226.312 162.362 226.312C161.986 226.312 161.622 226.392 161.27 226.552C160.926 226.712 160.534 227 160.094 227.416L159.662 226.552C160.606 225.712 161.618 225.292 162.698 225.292C163.402 225.292 163.922 225.48 164.258 225.856C164.594 226.232 164.762 226.86 164.762 227.74V230.656C164.762 230.832 164.794 230.96 164.858 231.04C164.922 231.112 165.026 231.148 165.17 231.148C165.306 231.148 165.474 231.112 165.674 231.04L165.746 231.976ZM160.946 230.44C160.946 230.688 161.014 230.872 161.15 230.992C161.294 231.104 161.49 231.16 161.738 231.16C161.994 231.16 162.258 231.1 162.53 230.98C162.802 230.852 163.106 230.664 163.442 230.416V228.856L162.878 229.024C162.158 229.248 161.654 229.464 161.366 229.672C161.086 229.872 160.946 230.128 160.946 230.44ZM170.862 231.712C170.414 231.992 169.922 232.132 169.386 232.132C168.666 232.132 168.13 231.948 167.778 231.58C167.426 231.204 167.25 230.668 167.25 229.972V226.468H166.23V225.904L167.382 225.532L167.778 223.912H168.57V225.484H170.49V226.468H168.57V229.72C168.57 230.224 168.65 230.588 168.81 230.812C168.97 231.028 169.23 231.136 169.59 231.136C169.774 231.128 169.946 231.1 170.106 231.052C170.266 231.004 170.442 230.928 170.634 230.824L170.862 231.712ZM173.027 223.78C172.803 223.78 172.611 223.7 172.451 223.54C172.291 223.38 172.211 223.192 172.211 222.976C172.211 222.752 172.291 222.56 172.451 222.4C172.611 222.232 172.803 222.148 173.027 222.148C173.251 222.148 173.443 222.232 173.603 222.4C173.763 222.56 173.843 222.752 173.843 222.976C173.843 223.192 173.763 223.38 173.603 223.54C173.443 223.7 173.251 223.78 173.027 223.78ZM172.367 225.484H173.687V232H172.367V225.484ZM178.58 232.192C177.884 232.192 177.296 232.04 176.816 231.736C176.336 231.432 175.976 231.02 175.736 230.5C175.496 229.98 175.376 229.4 175.376 228.76C175.376 228.096 175.496 227.504 175.736 226.984C175.976 226.464 176.336 226.052 176.816 225.748C177.296 225.444 177.884 225.292 178.58 225.292C179.276 225.292 179.864 225.452 180.344 225.772C180.824 226.084 181.184 226.5 181.424 227.02C181.664 227.54 181.784 228.112 181.784 228.736C181.784 229.36 181.664 229.936 181.424 230.464C181.184 230.984 180.824 231.404 180.344 231.724C179.864 232.036 179.276 232.192 178.58 232.192ZM178.592 231.208C179.2 231.208 179.66 230.992 179.972 230.56C180.292 230.12 180.452 229.516 180.452 228.748C180.452 227.988 180.292 227.388 179.972 226.948C179.66 226.508 179.2 226.288 178.592 226.288C177.976 226.288 177.512 226.508 177.2 226.948C176.888 227.388 176.732 227.988 176.732 228.748C176.732 229.516 176.888 230.12 177.2 230.56C177.512 230.992 177.976 231.208 178.592 231.208ZM186.848 225.292C187.608 225.292 188.128 225.492 188.408 225.892C188.696 226.284 188.84 226.852 188.84 227.596V232H187.508V227.74C187.508 227.22 187.432 226.852 187.28 226.636C187.136 226.42 186.868 226.312 186.476 226.312C185.948 226.312 185.372 226.548 184.748 227.02V232H183.428V225.484H184.436L184.604 226.12C185.388 225.568 186.136 225.292 186.848 225.292Z" fill="#34324E"/>
<defs>
<filter id="filter0_d_0_1" x="58.1538" y="28" width="146.462" height="92.6154" filterUnits="userSpaceOnUse" color-interpolation-filters="sRGB">
<feFlood flood-opacity="0" result="BackgroundImageFix"/>
<feColorMatrix in="SourceAlpha" type="matrix" values="0 0 0 0 0 0 0 0 0 0 0 0 0 0 0 0 0 0 127 0" result="hardAlpha"/>
<feOffset dy="4.30769"/>
<feGaussianBlur stdDeviation="2.15385"/>
<feComposite in2="hardAlpha" operator="out"/>
<feColorMatrix type="matrix" values="0 0 0 0 0 0 0 0 0 0 0 0 0 0 0 0 0 0 0.25 0"/>
<feBlend mode="normal" in2="BackgroundImageFix" result="effect1_dropShadow_0_1"/>
<feBlend mode="normal" in="SourceGraphic" in2="effect1_dropShadow_0_1" result="shape"/>
</filter>
<filter id="filter1_d_0_1" x="28" y="66.7692" width="146.462" height="92.6154" filterUnits="userSpaceOnUse" color-interpolation-filters="sRGB">
<feFlood flood-opacity="0" result="BackgroundImageFix"/>
<feColorMatrix in="SourceAlpha" type="matrix" values="0 0 0 0 0 0 0 0 0 0 0 0 0 0 0 0 0 0 127 0" result="hardAlpha"/>
<feOffset dy="4.30769"/>
<feGaussianBlur stdDeviation="2.15385"/>
<feComposite in2="hardAlpha" operator="out"/>
<feColorMatrix type="matrix" values="0 0 0 0 0 0 0 0 0 0 0 0 0 0 0 0 0 0 0.25 0"/>
<feBlend mode="normal" in2="BackgroundImageFix" result="effect1_dropShadow_0_1"/>
<feBlend mode="normal" in="SourceGraphic" in2="effect1_dropShadow_0_1" result="shape"/>
</filter>
</defs>
</svg>
