<svg width="1363" height="297" viewBox="0 0 1363 297" fill="none" xmlns="http://www.w3.org/2000/svg">
<path d="M0 15C0 6.71573 6.71573 0 15 0H37V297H15C6.71573 297 0 290.284 0 282V15Z" fill="#9EA4DA"/>
<path d="M37 0H1066V297H37V0Z" fill="#F0F0F0"/>
<path d="M113.795 70.8867V75H95.6543V70.8867H113.795ZM113.531 52.3418L97.9922 75H94.2832V71.9766L109.945 49.4062H113.531V52.3418ZM111.721 49.4062V53.5371H94.3008V49.4062H111.721ZM127.102 70.7109V62.2383C127.102 61.6289 127.002 61.1074 126.803 60.6738C126.604 60.2285 126.293 59.8828 125.871 59.6367C125.461 59.3906 124.928 59.2676 124.271 59.2676C123.709 59.2676 123.223 59.3672 122.812 59.5664C122.402 59.7539 122.086 60.0293 121.863 60.3926C121.641 60.7441 121.529 61.1602 121.529 61.6406H116.467C116.467 60.832 116.654 60.0645 117.029 59.3379C117.404 58.6113 117.949 57.9727 118.664 57.4219C119.379 56.8594 120.229 56.4199 121.213 56.1035C122.209 55.7871 123.322 55.6289 124.553 55.6289C126.029 55.6289 127.342 55.875 128.49 56.3672C129.639 56.8594 130.541 57.5977 131.197 58.582C131.865 59.5664 132.199 60.7969 132.199 62.2734V70.4121C132.199 71.4551 132.264 72.3105 132.393 72.9785C132.521 73.6348 132.709 74.209 132.955 74.7012V75H127.84C127.594 74.4844 127.406 73.8398 127.277 73.0664C127.16 72.2812 127.102 71.4961 127.102 70.7109ZM127.77 63.416L127.805 66.2812H124.975C124.307 66.2812 123.727 66.3574 123.234 66.5098C122.742 66.6621 122.338 66.8789 122.021 67.1602C121.705 67.4297 121.471 67.7461 121.318 68.1094C121.178 68.4727 121.107 68.8711 121.107 69.3047C121.107 69.7383 121.207 70.1309 121.406 70.4824C121.605 70.8223 121.893 71.0918 122.268 71.291C122.643 71.4785 123.082 71.5723 123.586 71.5723C124.348 71.5723 125.01 71.4199 125.572 71.1152C126.135 70.8105 126.568 70.4355 126.873 69.9902C127.189 69.5449 127.354 69.123 127.365 68.7246L128.701 70.8691C128.514 71.3496 128.256 71.8477 127.928 72.3633C127.611 72.8789 127.207 73.3652 126.715 73.8223C126.223 74.2676 125.631 74.6367 124.939 74.9297C124.248 75.2109 123.428 75.3516 122.479 75.3516C121.271 75.3516 120.176 75.1113 119.191 74.6309C118.219 74.1387 117.445 73.4648 116.871 72.6094C116.309 71.7422 116.027 70.7578 116.027 69.6562C116.027 68.6602 116.215 67.7754 116.59 67.002C116.965 66.2285 117.516 65.5781 118.242 65.0508C118.98 64.5117 119.9 64.1074 121.002 63.8379C122.104 63.5566 123.381 63.416 124.834 63.416H127.77ZM141.463 72.8555L146.508 55.9805H151.939L144.293 77.8652C144.129 78.3457 143.906 78.8613 143.625 79.4121C143.355 79.9629 142.986 80.4844 142.518 80.9766C142.061 81.4805 141.48 81.8906 140.777 82.207C140.086 82.5234 139.236 82.6816 138.229 82.6816C137.748 82.6816 137.355 82.6523 137.051 82.5938C136.746 82.5352 136.383 82.4531 135.961 82.3477V78.6387C136.09 78.6387 136.225 78.6387 136.365 78.6387C136.506 78.6504 136.641 78.6562 136.77 78.6562C137.438 78.6562 137.982 78.5801 138.404 78.4277C138.826 78.2754 139.166 78.041 139.424 77.7246C139.682 77.4199 139.887 77.0215 140.039 76.5293L141.463 72.8555ZM139.354 55.9805L143.484 69.7617L144.205 75.123L140.76 75.4922L133.922 55.9805H139.354ZM158.918 60.041V75H153.855V55.9805H158.602L158.918 60.041ZM158.18 64.8223H156.809C156.809 63.416 156.99 62.1504 157.354 61.0254C157.717 59.8887 158.227 58.9219 158.883 58.125C159.539 57.3164 160.318 56.7012 161.221 56.2793C162.135 55.8457 163.154 55.6289 164.279 55.6289C165.17 55.6289 165.984 55.7578 166.723 56.0156C167.461 56.2734 168.094 56.6836 168.621 57.2461C169.16 57.8086 169.57 58.5527 169.852 59.4785C170.145 60.4043 170.291 61.5352 170.291 62.8711V75H165.193V62.8535C165.193 62.0098 165.076 61.3535 164.842 60.8848C164.607 60.416 164.262 60.0879 163.805 59.9004C163.359 59.7012 162.809 59.6016 162.152 59.6016C161.473 59.6016 160.881 59.7363 160.377 60.0059C159.885 60.2754 159.475 60.6504 159.146 61.1309C158.83 61.5996 158.59 62.1504 158.426 62.7832C158.262 63.416 158.18 64.0957 158.18 64.8223ZM184.406 70.7109V62.2383C184.406 61.6289 184.307 61.1074 184.107 60.6738C183.908 60.2285 183.598 59.8828 183.176 59.6367C182.766 59.3906 182.232 59.2676 181.576 59.2676C181.014 59.2676 180.527 59.3672 180.117 59.5664C179.707 59.7539 179.391 60.0293 179.168 60.3926C178.945 60.7441 178.834 61.1602 178.834 61.6406H173.771C173.771 60.832 173.959 60.0645 174.334 59.3379C174.709 58.6113 175.254 57.9727 175.969 57.4219C176.684 56.8594 177.533 56.4199 178.518 56.1035C179.514 55.7871 180.627 55.6289 181.857 55.6289C183.334 55.6289 184.646 55.875 185.795 56.3672C186.943 56.8594 187.846 57.5977 188.502 58.582C189.17 59.5664 189.504 60.7969 189.504 62.2734V70.4121C189.504 71.4551 189.568 72.3105 189.697 72.9785C189.826 73.6348 190.014 74.209 190.26 74.7012V75H185.145C184.898 74.4844 184.711 73.8398 184.582 73.0664C184.465 72.2812 184.406 71.4961 184.406 70.7109ZM185.074 63.416L185.109 66.2812H182.279C181.611 66.2812 181.031 66.3574 180.539 66.5098C180.047 66.6621 179.643 66.8789 179.326 67.1602C179.01 67.4297 178.775 67.7461 178.623 68.1094C178.482 68.4727 178.412 68.8711 178.412 69.3047C178.412 69.7383 178.512 70.1309 178.711 70.4824C178.91 70.8223 179.197 71.0918 179.572 71.291C179.947 71.4785 180.387 71.5723 180.891 71.5723C181.652 71.5723 182.314 71.4199 182.877 71.1152C183.439 70.8105 183.873 70.4355 184.178 69.9902C184.494 69.5449 184.658 69.123 184.67 68.7246L186.006 70.8691C185.818 71.3496 185.561 71.8477 185.232 72.3633C184.916 72.8789 184.512 73.3652 184.02 73.8223C183.527 74.2676 182.936 74.6367 182.244 74.9297C181.553 75.2109 180.732 75.3516 179.783 75.3516C178.576 75.3516 177.48 75.1113 176.496 74.6309C175.523 74.1387 174.75 73.4648 174.176 72.6094C173.613 71.7422 173.332 70.7578 173.332 69.6562C173.332 68.6602 173.52 67.7754 173.895 67.002C174.27 66.2285 174.82 65.5781 175.547 65.0508C176.285 64.5117 177.205 64.1074 178.307 63.8379C179.408 63.5566 180.686 63.416 182.139 63.416H185.074ZM193.406 48H198.469V70.6406L197.959 75H193.406V48ZM210.51 65.2969V65.666C210.51 67.084 210.357 68.3848 210.053 69.5684C209.76 70.752 209.303 71.7773 208.682 72.6445C208.061 73.5 207.287 74.168 206.361 74.6484C205.447 75.1172 204.369 75.3516 203.127 75.3516C201.967 75.3516 200.959 75.1172 200.104 74.6484C199.26 74.1797 198.551 73.5176 197.977 72.6621C197.402 71.8066 196.939 70.8047 196.588 69.6562C196.236 68.5078 195.973 67.2539 195.797 65.8945V65.0859C195.973 63.7266 196.236 62.4727 196.588 61.3242C196.939 60.1758 197.402 59.1738 197.977 58.3184C198.551 57.4629 199.26 56.8008 200.104 56.332C200.947 55.8633 201.943 55.6289 203.092 55.6289C204.346 55.6289 205.436 55.8691 206.361 56.3496C207.299 56.8184 208.072 57.4863 208.682 58.3535C209.303 59.209 209.76 60.2285 210.053 61.4121C210.357 62.584 210.51 63.8789 210.51 65.2969ZM205.447 65.666V65.2969C205.447 64.5234 205.389 63.7969 205.271 63.1172C205.166 62.4258 204.979 61.8223 204.709 61.3066C204.439 60.7793 204.07 60.3633 203.602 60.0586C203.145 59.7539 202.553 59.6016 201.826 59.6016C201.135 59.6016 200.549 59.7188 200.068 59.9531C199.588 60.1875 199.189 60.5156 198.873 60.9375C198.568 61.3594 198.34 61.8633 198.188 62.4492C198.035 63.0234 197.941 63.6562 197.906 64.3477V66.6504C197.941 67.5762 198.094 68.3965 198.363 69.1113C198.645 69.8145 199.066 70.3711 199.629 70.7812C200.203 71.1797 200.947 71.3789 201.861 71.3789C202.576 71.3789 203.168 71.2383 203.637 70.957C204.105 70.6758 204.469 70.2773 204.727 69.7617C204.996 69.2461 205.184 68.6426 205.289 67.9512C205.395 67.248 205.447 66.4863 205.447 65.666ZM234.803 49.4062V75H229.529L219.246 57.8438V75H213.973V49.4062H219.246L229.547 66.5801V49.4062H234.803ZM238.266 65.6836V65.3145C238.266 63.9199 238.465 62.6367 238.863 61.4648C239.262 60.2812 239.842 59.2559 240.604 58.3887C241.365 57.5215 242.303 56.8477 243.416 56.3672C244.529 55.875 245.807 55.6289 247.248 55.6289C248.689 55.6289 249.973 55.875 251.098 56.3672C252.223 56.8477 253.166 57.5215 253.928 58.3887C254.701 59.2559 255.287 60.2812 255.686 61.4648C256.084 62.6367 256.283 63.9199 256.283 65.3145V65.6836C256.283 67.0664 256.084 68.3496 255.686 69.5332C255.287 70.7051 254.701 71.7305 253.928 72.6094C253.166 73.4766 252.229 74.1504 251.115 74.6309C250.002 75.1113 248.725 75.3516 247.283 75.3516C245.842 75.3516 244.559 75.1113 243.434 74.6309C242.32 74.1504 241.377 73.4766 240.604 72.6094C239.842 71.7305 239.262 70.7051 238.863 69.5332C238.465 68.3496 238.266 67.0664 238.266 65.6836ZM243.328 65.3145V65.6836C243.328 66.4805 243.398 67.2246 243.539 67.916C243.68 68.6074 243.902 69.2168 244.207 69.7441C244.523 70.2598 244.934 70.6641 245.438 70.957C245.941 71.25 246.557 71.3965 247.283 71.3965C247.986 71.3965 248.59 71.25 249.094 70.957C249.598 70.6641 250.002 70.2598 250.307 69.7441C250.611 69.2168 250.834 68.6074 250.975 67.916C251.127 67.2246 251.203 66.4805 251.203 65.6836V65.3145C251.203 64.541 251.127 63.8145 250.975 63.1348C250.834 62.4434 250.605 61.834 250.289 61.3066C249.984 60.7676 249.58 60.3457 249.076 60.041C248.572 59.7363 247.963 59.584 247.248 59.584C246.533 59.584 245.924 59.7363 245.42 60.041C244.928 60.3457 244.523 60.7676 244.207 61.3066C243.902 61.834 243.68 62.4434 243.539 63.1348C243.398 63.8145 243.328 64.541 243.328 65.3145ZM270.645 70.4473V55.9805H275.707V75H270.943L270.645 70.4473ZM271.207 66.5449L272.701 66.5098C272.701 67.7754 272.555 68.9531 272.262 70.043C271.969 71.1211 271.529 72.0586 270.943 72.8555C270.357 73.6406 269.619 74.2559 268.729 74.7012C267.838 75.1348 266.789 75.3516 265.582 75.3516C264.656 75.3516 263.801 75.2227 263.016 74.9648C262.242 74.6953 261.574 74.2793 261.012 73.7168C260.461 73.1426 260.027 72.4102 259.711 71.5195C259.406 70.6172 259.254 69.5332 259.254 68.2676V55.9805H264.316V68.3027C264.316 68.8652 264.381 69.3398 264.51 69.7266C264.65 70.1133 264.844 70.4297 265.09 70.6758C265.336 70.9219 265.623 71.0977 265.951 71.2031C266.291 71.3086 266.666 71.3613 267.076 71.3613C268.119 71.3613 268.939 71.1504 269.537 70.7285C270.146 70.3066 270.574 69.7324 270.82 69.0059C271.078 68.2676 271.207 67.4473 271.207 66.5449ZM284.637 60.1289V75H279.574V55.9805H284.338L284.637 60.1289ZM290.367 55.8574L290.279 60.5508C290.033 60.5156 289.734 60.4863 289.383 60.4629C289.043 60.4277 288.732 60.4102 288.451 60.4102C287.736 60.4102 287.115 60.5039 286.588 60.6914C286.072 60.8672 285.639 61.1309 285.287 61.4824C284.947 61.834 284.689 62.2617 284.514 62.7656C284.35 63.2695 284.256 63.8438 284.232 64.4883L283.213 64.1719C283.213 62.9414 283.336 61.8105 283.582 60.7793C283.828 59.7363 284.186 58.8281 284.654 58.0547C285.135 57.2812 285.721 56.6836 286.412 56.2617C287.104 55.8398 287.895 55.6289 288.785 55.6289C289.066 55.6289 289.354 55.6523 289.646 55.6992C289.939 55.7344 290.18 55.7871 290.367 55.8574ZM312.445 53.7832L305.484 75H299.877L309.387 49.4062H312.955L312.445 53.7832ZM318.229 75L311.25 53.7832L310.688 49.4062H314.291L323.854 75H318.229ZM317.912 65.4727V69.6035H304.395V65.4727H317.912ZM331.254 48V75H326.174V48H331.254ZM365.004 61.623V71.7656C364.605 72.2461 363.99 72.7676 363.158 73.3301C362.326 73.8809 361.254 74.3555 359.941 74.7539C358.629 75.1523 357.041 75.3516 355.178 75.3516C353.525 75.3516 352.02 75.082 350.66 74.543C349.301 73.9922 348.129 73.1895 347.145 72.1348C346.172 71.0801 345.422 69.791 344.895 68.2676C344.367 66.7324 344.104 64.9805 344.104 63.0117V61.4121C344.104 59.4434 344.355 57.6914 344.859 56.1562C345.375 54.6211 346.107 53.3262 347.057 52.2715C348.006 51.2168 349.137 50.4141 350.449 49.8633C351.762 49.3125 353.221 49.0371 354.826 49.0371C357.053 49.0371 358.881 49.4004 360.311 50.127C361.74 50.8418 362.83 51.8379 363.58 53.1152C364.342 54.3809 364.811 55.834 364.986 57.4746H359.871C359.742 56.6074 359.496 55.8516 359.133 55.207C358.77 54.5625 358.248 54.0586 357.568 53.6953C356.9 53.332 356.033 53.1504 354.967 53.1504C354.088 53.1504 353.303 53.332 352.611 53.6953C351.932 54.0469 351.357 54.5684 350.889 55.2598C350.42 55.9512 350.062 56.8066 349.816 57.8262C349.57 58.8457 349.447 60.0293 349.447 61.377V63.0117C349.447 64.3477 349.576 65.5312 349.834 66.5625C350.092 67.582 350.473 68.4434 350.977 69.1465C351.492 69.8379 352.125 70.3594 352.875 70.7109C353.625 71.0625 354.498 71.2383 355.494 71.2383C356.326 71.2383 357.018 71.168 357.568 71.0273C358.131 70.8867 358.582 70.7168 358.922 70.5176C359.273 70.3066 359.543 70.1074 359.73 69.9199V65.3848H354.914V61.623H365.004ZM373.881 48V75H368.818V48H373.881ZM373.16 64.8223H371.771C371.783 63.498 371.959 62.2793 372.299 61.166C372.639 60.041 373.125 59.0684 373.758 58.248C374.391 57.416 375.146 56.7715 376.025 56.3145C376.916 55.8574 377.9 55.6289 378.979 55.6289C379.916 55.6289 380.766 55.7637 381.527 56.0332C382.301 56.291 382.963 56.7129 383.514 57.2988C384.076 57.873 384.51 58.6289 384.814 59.5664C385.119 60.5039 385.271 61.6406 385.271 62.9766V75H380.174V62.9414C380.174 62.0977 380.051 61.4355 379.805 60.9551C379.57 60.4629 379.225 60.1172 378.768 59.918C378.322 59.707 377.771 59.6016 377.115 59.6016C376.389 59.6016 375.768 59.7363 375.252 60.0059C374.748 60.2754 374.344 60.6504 374.039 61.1309C373.734 61.5996 373.512 62.1504 373.371 62.7832C373.23 63.416 373.16 64.0957 373.16 64.8223ZM388.312 65.6836V65.3145C388.312 63.9199 388.512 62.6367 388.91 61.4648C389.309 60.2812 389.889 59.2559 390.65 58.3887C391.412 57.5215 392.35 56.8477 393.463 56.3672C394.576 55.875 395.854 55.6289 397.295 55.6289C398.736 55.6289 400.02 55.875 401.145 56.3672C402.27 56.8477 403.213 57.5215 403.975 58.3887C404.748 59.2559 405.334 60.2812 405.732 61.4648C406.131 62.6367 406.33 63.9199 406.33 65.3145V65.6836C406.33 67.0664 406.131 68.3496 405.732 69.5332C405.334 70.7051 404.748 71.7305 403.975 72.6094C403.213 73.4766 402.275 74.1504 401.162 74.6309C400.049 75.1113 398.771 75.3516 397.33 75.3516C395.889 75.3516 394.605 75.1113 393.48 74.6309C392.367 74.1504 391.424 73.4766 390.65 72.6094C389.889 71.7305 389.309 70.7051 388.91 69.5332C388.512 68.3496 388.312 67.0664 388.312 65.6836ZM393.375 65.3145V65.6836C393.375 66.4805 393.445 67.2246 393.586 67.916C393.727 68.6074 393.949 69.2168 394.254 69.7441C394.57 70.2598 394.98 70.6641 395.484 70.957C395.988 71.25 396.604 71.3965 397.33 71.3965C398.033 71.3965 398.637 71.25 399.141 70.957C399.645 70.6641 400.049 70.2598 400.354 69.7441C400.658 69.2168 400.881 68.6074 401.021 67.916C401.174 67.2246 401.25 66.4805 401.25 65.6836V65.3145C401.25 64.541 401.174 63.8145 401.021 63.1348C400.881 62.4434 400.652 61.834 400.336 61.3066C400.031 60.7676 399.627 60.3457 399.123 60.041C398.619 59.7363 398.01 59.584 397.295 59.584C396.58 59.584 395.971 59.7363 395.467 60.041C394.975 60.3457 394.57 60.7676 394.254 61.3066C393.949 61.834 393.727 62.4434 393.586 63.1348C393.445 63.8145 393.375 64.541 393.375 65.3145ZM419.725 69.7441C419.725 69.3809 419.619 69.0527 419.408 68.7598C419.197 68.4668 418.805 68.1973 418.23 67.9512C417.668 67.6934 416.854 67.459 415.787 67.248C414.826 67.0371 413.93 66.7734 413.098 66.457C412.277 66.1289 411.562 65.7363 410.953 65.2793C410.355 64.8223 409.887 64.2832 409.547 63.6621C409.207 63.0293 409.037 62.3086 409.037 61.5C409.037 60.7031 409.207 59.9531 409.547 59.25C409.898 58.5469 410.396 57.9258 411.041 57.3867C411.697 56.8359 412.494 56.4082 413.432 56.1035C414.381 55.7871 415.447 55.6289 416.631 55.6289C418.283 55.6289 419.701 55.8926 420.885 56.4199C422.08 56.9473 422.994 57.6738 423.627 58.5996C424.271 59.5137 424.594 60.5566 424.594 61.7285H419.531C419.531 61.2363 419.426 60.7969 419.215 60.4102C419.016 60.0117 418.699 59.7012 418.266 59.4785C417.844 59.2441 417.293 59.127 416.613 59.127C416.051 59.127 415.564 59.2266 415.154 59.4258C414.744 59.6133 414.428 59.8711 414.205 60.1992C413.994 60.5156 413.889 60.8672 413.889 61.2539C413.889 61.5469 413.947 61.8105 414.064 62.0449C414.193 62.2676 414.398 62.4727 414.68 62.6602C414.961 62.8477 415.324 63.0234 415.77 63.1875C416.227 63.3398 416.789 63.4805 417.457 63.6094C418.828 63.8906 420.053 64.2598 421.131 64.7168C422.209 65.1621 423.064 65.7715 423.697 66.5449C424.33 67.3066 424.646 68.3086 424.646 69.5508C424.646 70.3945 424.459 71.168 424.084 71.8711C423.709 72.5742 423.17 73.1895 422.467 73.7168C421.764 74.2324 420.92 74.6367 419.936 74.9297C418.963 75.2109 417.867 75.3516 416.648 75.3516C414.879 75.3516 413.379 75.0352 412.148 74.4023C410.93 73.7695 410.004 72.9668 409.371 71.9941C408.75 71.0098 408.439 70.002 408.439 68.9707H413.238C413.262 69.6621 413.438 70.2188 413.766 70.6406C414.105 71.0625 414.533 71.3672 415.049 71.5547C415.576 71.7422 416.145 71.8359 416.754 71.8359C417.41 71.8359 417.955 71.748 418.389 71.5723C418.822 71.3848 419.15 71.1387 419.373 70.834C419.607 70.5176 419.725 70.1543 419.725 69.7441ZM432.873 48V75H427.811V48H432.873ZM432.152 64.8223H430.764C430.775 63.498 430.951 62.2793 431.291 61.166C431.631 60.041 432.117 59.0684 432.75 58.248C433.383 57.416 434.139 56.7715 435.018 56.3145C435.908 55.8574 436.893 55.6289 437.971 55.6289C438.908 55.6289 439.758 55.7637 440.52 56.0332C441.293 56.291 441.955 56.7129 442.506 57.2988C443.068 57.873 443.502 58.6289 443.807 59.5664C444.111 60.5039 444.264 61.6406 444.264 62.9766V75H439.166V62.9414C439.166 62.0977 439.043 61.4355 438.797 60.9551C438.562 60.4629 438.217 60.1172 437.76 59.918C437.314 59.707 436.764 59.6016 436.107 59.6016C435.381 59.6016 434.76 59.7363 434.244 60.0059C433.74 60.2754 433.336 60.6504 433.031 61.1309C432.727 61.5996 432.504 62.1504 432.363 62.7832C432.223 63.416 432.152 64.0957 432.152 64.8223Z" fill="#888888"/>
<path d="M111.102 130.621L119.387 100.188H130.133L116.707 140H109.762L111.102 130.621ZM103.582 100.188L111.867 130.621L113.262 140H106.234L92.8906 100.188H103.582ZM130.215 125.508V124.934C130.215 122.764 130.525 120.768 131.145 118.945C131.764 117.104 132.676 115.509 133.879 114.16C135.082 112.811 136.568 111.763 138.336 111.016C140.104 110.25 142.146 109.867 144.461 109.867C146.794 109.867 148.845 110.25 150.613 111.016C152.4 111.763 153.895 112.811 155.098 114.16C156.301 115.509 157.212 117.104 157.832 118.945C158.452 120.768 158.762 122.764 158.762 124.934V125.508C158.762 127.659 158.452 129.655 157.832 131.496C157.212 133.319 156.301 134.914 155.098 136.281C153.895 137.63 152.409 138.678 150.641 139.426C148.872 140.173 146.831 140.547 144.516 140.547C142.201 140.547 140.15 140.173 138.363 139.426C136.577 138.678 135.082 137.63 133.879 136.281C132.676 134.914 131.764 133.319 131.145 131.496C130.525 129.655 130.215 127.659 130.215 125.508ZM139.43 124.934V125.508C139.43 126.62 139.512 127.659 139.676 128.625C139.84 129.591 140.113 130.439 140.496 131.168C140.879 131.879 141.398 132.435 142.055 132.836C142.711 133.237 143.531 133.438 144.516 133.438C145.482 133.438 146.284 133.237 146.922 132.836C147.578 132.435 148.098 131.879 148.48 131.168C148.863 130.439 149.137 129.591 149.301 128.625C149.465 127.659 149.547 126.62 149.547 125.508V124.934C149.547 123.858 149.465 122.846 149.301 121.898C149.137 120.932 148.863 120.085 148.48 119.355C148.098 118.608 147.578 118.025 146.922 117.605C146.266 117.186 145.445 116.977 144.461 116.977C143.495 116.977 142.684 117.186 142.027 117.605C141.389 118.025 140.879 118.608 140.496 119.355C140.113 120.085 139.84 120.932 139.676 121.898C139.512 122.846 139.43 123.858 139.43 124.934ZM172.598 98V140H163.355V98H172.598ZM195.566 132.809V110.414H204.809V140H196.168L195.566 132.809ZM196.441 126.793L198.848 126.738C198.848 128.725 198.611 130.566 198.137 132.262C197.663 133.939 196.961 135.397 196.031 136.637C195.12 137.876 193.99 138.842 192.641 139.535C191.31 140.21 189.77 140.547 188.02 140.547C186.561 140.547 185.221 140.346 184 139.945C182.797 139.526 181.758 138.879 180.883 138.004C180.008 137.111 179.324 135.971 178.832 134.586C178.358 133.182 178.121 131.505 178.121 129.555V110.414H187.336V129.609C187.336 130.266 187.418 130.831 187.582 131.305C187.746 131.779 187.983 132.18 188.293 132.508C188.603 132.818 188.986 133.055 189.441 133.219C189.915 133.365 190.453 133.438 191.055 133.438C192.44 133.438 193.525 133.146 194.309 132.562C195.092 131.979 195.639 131.186 195.949 130.184C196.277 129.181 196.441 128.051 196.441 126.793ZM218.945 116.73V140H209.73V110.414H218.371L218.945 116.73ZM217.852 124.195L215.691 124.25C215.691 121.99 215.965 119.975 216.512 118.207C217.059 116.421 217.833 114.908 218.836 113.668C219.839 112.428 221.033 111.49 222.418 110.852C223.822 110.195 225.38 109.867 227.094 109.867C228.461 109.867 229.71 110.068 230.84 110.469C231.988 110.87 232.973 111.517 233.793 112.41C234.632 113.303 235.27 114.488 235.707 115.965C236.163 117.423 236.391 119.228 236.391 121.379V140H227.121V121.352C227.121 120.167 226.957 119.264 226.629 118.645C226.301 118.007 225.827 117.569 225.207 117.332C224.587 117.095 223.831 116.977 222.938 116.977C221.99 116.977 221.188 117.159 220.531 117.523C219.875 117.888 219.346 118.398 218.945 119.055C218.562 119.693 218.28 120.449 218.098 121.324C217.934 122.199 217.852 123.156 217.852 124.195ZM261.219 100.188V140H251.621V100.188H261.219ZM273.195 100.188V107.598H239.918V100.188H273.195ZM288.699 140.547C286.293 140.547 284.142 140.173 282.246 139.426C280.35 138.66 278.746 137.612 277.434 136.281C276.139 134.951 275.146 133.419 274.453 131.688C273.779 129.956 273.441 128.124 273.441 126.191V125.152C273.441 122.983 273.742 120.978 274.344 119.137C274.945 117.277 275.839 115.655 277.023 114.27C278.208 112.884 279.694 111.809 281.48 111.043C283.267 110.259 285.345 109.867 287.715 109.867C289.811 109.867 291.689 110.204 293.348 110.879C295.007 111.553 296.41 112.52 297.559 113.777C298.725 115.035 299.609 116.557 300.211 118.344C300.831 120.13 301.141 122.135 301.141 124.359V128.105H276.969V122.336H292.145V121.625C292.163 120.641 291.99 119.802 291.625 119.109C291.279 118.417 290.768 117.888 290.094 117.523C289.419 117.159 288.599 116.977 287.633 116.977C286.63 116.977 285.801 117.195 285.145 117.633C284.507 118.07 284.005 118.672 283.641 119.438C283.294 120.185 283.048 121.051 282.902 122.035C282.757 123.02 282.684 124.059 282.684 125.152V126.191C282.684 127.285 282.829 128.279 283.121 129.172C283.431 130.065 283.868 130.831 284.434 131.469C285.017 132.089 285.71 132.572 286.512 132.918C287.332 133.264 288.262 133.438 289.301 133.438C290.559 133.438 291.798 133.201 293.02 132.727C294.241 132.253 295.289 131.469 296.164 130.375L300.348 135.352C299.746 136.208 298.889 137.038 297.777 137.84C296.684 138.642 295.371 139.298 293.84 139.809C292.309 140.301 290.595 140.547 288.699 140.547ZM320.254 132.562V120.367C320.254 119.529 320.135 118.809 319.898 118.207C319.661 117.605 319.288 117.141 318.777 116.812C318.267 116.466 317.583 116.293 316.727 116.293C316.034 116.293 315.441 116.411 314.949 116.648C314.457 116.885 314.083 117.241 313.828 117.715C313.573 118.189 313.445 118.79 313.445 119.52H304.23C304.23 118.152 304.531 116.885 305.133 115.719C305.753 114.534 306.628 113.504 307.758 112.629C308.906 111.754 310.273 111.079 311.859 110.605C313.464 110.113 315.25 109.867 317.219 109.867C319.57 109.867 321.667 110.259 323.508 111.043C325.367 111.827 326.835 113.003 327.91 114.57C328.986 116.12 329.523 118.07 329.523 120.422V132.535C329.523 134.467 329.633 135.935 329.852 136.938C330.07 137.922 330.38 138.788 330.781 139.535V140H321.539C321.102 139.089 320.773 137.977 320.555 136.664C320.354 135.333 320.254 133.966 320.254 132.562ZM321.375 121.926L321.43 126.848H317.355C316.499 126.848 315.77 126.966 315.168 127.203C314.585 127.44 314.111 127.768 313.746 128.188C313.4 128.589 313.145 129.044 312.98 129.555C312.835 130.065 312.762 130.603 312.762 131.168C312.762 131.715 312.889 132.207 313.145 132.645C313.418 133.064 313.783 133.392 314.238 133.629C314.694 133.866 315.204 133.984 315.77 133.984C316.79 133.984 317.656 133.793 318.367 133.41C319.096 133.009 319.652 132.526 320.035 131.961C320.418 131.396 320.609 130.867 320.609 130.375L322.633 134.148C322.268 134.878 321.849 135.616 321.375 136.363C320.919 137.111 320.345 137.803 319.652 138.441C318.978 139.061 318.148 139.572 317.164 139.973C316.18 140.355 314.986 140.547 313.582 140.547C311.759 140.547 310.082 140.173 308.551 139.426C307.038 138.678 305.826 137.639 304.914 136.309C304.003 134.96 303.547 133.41 303.547 131.66C303.547 130.129 303.82 128.762 304.367 127.559C304.932 126.355 305.78 125.335 306.91 124.496C308.04 123.658 309.48 123.02 311.23 122.582C312.98 122.145 315.04 121.926 317.41 121.926H321.375Z" fill="black"/>
<rect x="93" y="178" width="917" height="77" rx="10" fill="#D3D3D3"/>
<rect x="111" y="196" width="91" height="41" rx="3" fill="#34324E"/>
<path d="M134.141 210.203H139.177C140.161 210.203 141.017 210.35 141.743 210.643C142.47 210.936 143.029 211.369 143.422 211.943C143.82 212.518 144.02 213.227 144.02 214.07C144.02 214.803 143.905 215.415 143.677 215.907C143.448 216.399 143.129 216.807 142.719 217.129C142.314 217.445 141.843 217.706 141.304 217.911L140.293 218.482H136.065L136.048 216.101H139.177C139.569 216.101 139.895 216.03 140.152 215.89C140.41 215.749 140.604 215.55 140.732 215.292C140.867 215.028 140.935 214.715 140.935 214.352C140.935 213.982 140.867 213.666 140.732 213.402C140.598 213.139 140.398 212.937 140.135 212.796C139.877 212.655 139.558 212.585 139.177 212.585H137.226V223H134.141V210.203ZM141.146 223L138.315 217.34L141.585 217.322L144.45 222.868V223H141.146ZM150.348 223.176C149.574 223.176 148.883 223.056 148.273 222.815C147.664 222.569 147.148 222.232 146.727 221.805C146.311 221.377 145.991 220.885 145.769 220.328C145.552 219.771 145.443 219.183 145.443 218.562V218.228C145.443 217.53 145.54 216.886 145.733 216.294C145.927 215.696 146.214 215.175 146.595 214.729C146.976 214.284 147.453 213.938 148.027 213.692C148.602 213.44 149.27 213.314 150.031 213.314C150.705 213.314 151.309 213.423 151.842 213.64C152.375 213.856 152.826 214.167 153.195 214.571C153.57 214.976 153.854 215.465 154.048 216.039C154.247 216.613 154.347 217.258 154.347 217.973V219.177H146.577V217.322H151.455V217.094C151.461 216.777 151.405 216.508 151.288 216.285C151.177 216.062 151.013 215.893 150.796 215.775C150.579 215.658 150.315 215.6 150.005 215.6C149.683 215.6 149.416 215.67 149.205 215.811C149 215.951 148.839 216.145 148.722 216.391C148.61 216.631 148.531 216.909 148.484 217.226C148.438 217.542 148.414 217.876 148.414 218.228V218.562C148.414 218.913 148.461 219.232 148.555 219.52C148.654 219.807 148.795 220.053 148.977 220.258C149.164 220.457 149.387 220.612 149.645 220.724C149.908 220.835 150.207 220.891 150.541 220.891C150.945 220.891 151.344 220.814 151.736 220.662C152.129 220.51 152.466 220.258 152.747 219.906L154.092 221.506C153.898 221.781 153.623 222.048 153.266 222.306C152.914 222.563 152.492 222.774 152 222.938C151.508 223.097 150.957 223.176 150.348 223.176ZM160.49 220.609V216.689C160.49 216.42 160.452 216.188 160.376 215.995C160.3 215.802 160.18 215.652 160.016 215.547C159.852 215.436 159.632 215.38 159.356 215.38C159.134 215.38 158.943 215.418 158.785 215.494C158.627 215.57 158.507 215.685 158.425 215.837C158.343 215.989 158.302 216.183 158.302 216.417H155.34C155.34 215.978 155.437 215.57 155.63 215.195C155.829 214.814 156.11 214.483 156.474 214.202C156.843 213.921 157.282 213.704 157.792 213.552C158.308 213.394 158.882 213.314 159.515 213.314C160.271 213.314 160.944 213.44 161.536 213.692C162.134 213.944 162.605 214.322 162.951 214.826C163.297 215.324 163.47 215.951 163.47 216.707V220.601C163.47 221.222 163.505 221.693 163.575 222.016C163.646 222.332 163.745 222.61 163.874 222.851V223H160.903C160.763 222.707 160.657 222.35 160.587 221.928C160.522 221.5 160.49 221.061 160.49 220.609ZM160.851 217.19L160.868 218.772H159.559C159.283 218.772 159.049 218.811 158.855 218.887C158.668 218.963 158.516 219.068 158.398 219.203C158.287 219.332 158.205 219.479 158.152 219.643C158.105 219.807 158.082 219.979 158.082 220.161C158.082 220.337 158.123 220.495 158.205 220.636C158.293 220.771 158.41 220.876 158.557 220.952C158.703 221.028 158.867 221.066 159.049 221.066C159.377 221.066 159.655 221.005 159.884 220.882C160.118 220.753 160.297 220.598 160.42 220.416C160.543 220.234 160.604 220.064 160.604 219.906L161.255 221.119C161.138 221.354 161.003 221.591 160.851 221.831C160.704 222.071 160.52 222.294 160.297 222.499C160.08 222.698 159.813 222.862 159.497 222.991C159.181 223.114 158.797 223.176 158.346 223.176C157.76 223.176 157.221 223.056 156.729 222.815C156.242 222.575 155.853 222.241 155.56 221.813C155.267 221.38 155.12 220.882 155.12 220.319C155.12 219.827 155.208 219.388 155.384 219.001C155.565 218.614 155.838 218.286 156.201 218.017C156.564 217.747 157.027 217.542 157.59 217.401C158.152 217.261 158.814 217.19 159.576 217.19H160.851ZM169.13 220.891C169.405 220.891 169.64 220.841 169.833 220.741C170.032 220.636 170.182 220.489 170.281 220.302C170.387 220.108 170.437 219.877 170.431 219.607H173.217C173.223 220.322 173.047 220.949 172.689 221.488C172.338 222.021 171.857 222.438 171.248 222.736C170.645 223.029 169.962 223.176 169.2 223.176C168.456 223.176 167.806 223.056 167.249 222.815C166.692 222.569 166.227 222.229 165.852 221.796C165.482 221.356 165.204 220.844 165.017 220.258C164.835 219.672 164.744 219.036 164.744 218.351V218.148C164.744 217.463 164.835 216.827 165.017 216.241C165.204 215.649 165.482 215.137 165.852 214.703C166.227 214.264 166.689 213.924 167.24 213.684C167.797 213.438 168.444 213.314 169.183 213.314C169.974 213.314 170.671 213.464 171.274 213.763C171.884 214.062 172.361 214.495 172.707 215.063C173.053 215.632 173.223 216.32 173.217 217.129H170.431C170.437 216.842 170.393 216.584 170.299 216.355C170.205 216.127 170.059 215.945 169.859 215.811C169.666 215.67 169.417 215.6 169.112 215.6C168.808 215.6 168.562 215.667 168.374 215.802C168.187 215.937 168.043 216.124 167.943 216.364C167.85 216.599 167.785 216.868 167.75 217.173C167.721 217.478 167.706 217.803 167.706 218.148V218.351C167.706 218.702 167.721 219.033 167.75 219.344C167.785 219.648 167.853 219.918 167.952 220.152C168.052 220.381 168.195 220.562 168.383 220.697C168.57 220.826 168.819 220.891 169.13 220.891ZM179.492 213.49V215.547H173.762V213.49H179.492ZM174.966 211.126H177.928V219.897C177.928 220.149 177.957 220.346 178.016 220.486C178.074 220.621 178.174 220.718 178.314 220.776C178.461 220.829 178.654 220.855 178.895 220.855C179.064 220.855 179.205 220.853 179.316 220.847C179.428 220.835 179.533 220.82 179.633 220.803V222.921C179.381 223.003 179.117 223.064 178.842 223.105C178.566 223.152 178.273 223.176 177.963 223.176C177.33 223.176 176.788 223.076 176.337 222.877C175.892 222.678 175.552 222.364 175.317 221.937C175.083 221.509 174.966 220.952 174.966 220.267V211.126Z" fill="white"/>
<rect x="111" y="196" width="91" height="41" rx="3" stroke="#34324E" stroke-width="4"/>
<rect x="222" y="196" width="104" height="41" rx="3" fill="#34324E"/>
<path d="M253.812 220.627V223H247.343V220.627H253.812ZM248.441 210.203V223H245.356V210.203H248.441ZM259.911 220.609V216.689C259.911 216.42 259.873 216.188 259.797 215.995C259.721 215.802 259.601 215.652 259.437 215.547C259.272 215.436 259.053 215.38 258.777 215.38C258.555 215.38 258.364 215.418 258.206 215.494C258.048 215.57 257.928 215.685 257.846 215.837C257.764 215.989 257.723 216.183 257.723 216.417H254.761C254.761 215.978 254.857 215.57 255.051 215.195C255.25 214.814 255.531 214.483 255.895 214.202C256.264 213.921 256.703 213.704 257.213 213.552C257.729 213.394 258.303 213.314 258.936 213.314C259.691 213.314 260.365 213.44 260.957 213.692C261.555 213.944 262.026 214.322 262.372 214.826C262.718 215.324 262.891 215.951 262.891 216.707V220.601C262.891 221.222 262.926 221.693 262.996 222.016C263.066 222.332 263.166 222.61 263.295 222.851V223H260.324C260.184 222.707 260.078 222.35 260.008 221.928C259.943 221.5 259.911 221.061 259.911 220.609ZM260.271 217.19L260.289 218.772H258.979C258.704 218.772 258.47 218.811 258.276 218.887C258.089 218.963 257.937 219.068 257.819 219.203C257.708 219.332 257.626 219.479 257.573 219.643C257.526 219.807 257.503 219.979 257.503 220.161C257.503 220.337 257.544 220.495 257.626 220.636C257.714 220.771 257.831 220.876 257.978 220.952C258.124 221.028 258.288 221.066 258.47 221.066C258.798 221.066 259.076 221.005 259.305 220.882C259.539 220.753 259.718 220.598 259.841 220.416C259.964 220.234 260.025 220.064 260.025 219.906L260.676 221.119C260.559 221.354 260.424 221.591 260.271 221.831C260.125 222.071 259.94 222.294 259.718 222.499C259.501 222.698 259.234 222.862 258.918 222.991C258.602 223.114 258.218 223.176 257.767 223.176C257.181 223.176 256.642 223.056 256.149 222.815C255.663 222.575 255.273 222.241 254.98 221.813C254.688 221.38 254.541 220.882 254.541 220.319C254.541 219.827 254.629 219.388 254.805 219.001C254.986 218.614 255.259 218.286 255.622 218.017C255.985 217.747 256.448 217.542 257.011 217.401C257.573 217.261 258.235 217.19 258.997 217.19H260.271ZM267.522 215.846V223H264.561V213.49H267.329L267.522 215.846ZM270.335 213.42L270.282 216.171C270.165 216.159 270.007 216.145 269.808 216.127C269.608 216.109 269.441 216.101 269.307 216.101C268.961 216.101 268.662 216.142 268.41 216.224C268.164 216.3 267.959 216.417 267.795 216.575C267.637 216.728 267.52 216.921 267.443 217.155C267.373 217.39 267.341 217.662 267.347 217.973L266.811 217.621C266.811 216.982 266.872 216.402 266.995 215.881C267.124 215.354 267.306 214.899 267.54 214.519C267.774 214.132 268.059 213.836 268.393 213.631C268.727 213.42 269.102 213.314 269.518 213.314C269.664 213.314 269.808 213.323 269.948 213.341C270.095 213.358 270.224 213.385 270.335 213.42ZM276.03 220.609V216.689C276.03 216.42 275.992 216.188 275.916 215.995C275.84 215.802 275.72 215.652 275.556 215.547C275.392 215.436 275.172 215.38 274.896 215.38C274.674 215.38 274.483 215.418 274.325 215.494C274.167 215.57 274.047 215.685 273.965 215.837C273.883 215.989 273.842 216.183 273.842 216.417H270.88C270.88 215.978 270.977 215.57 271.17 215.195C271.369 214.814 271.65 214.483 272.014 214.202C272.383 213.921 272.822 213.704 273.332 213.552C273.848 213.394 274.422 213.314 275.055 213.314C275.811 213.314 276.484 213.44 277.076 213.692C277.674 213.944 278.146 214.322 278.491 214.826C278.837 215.324 279.01 215.951 279.01 216.707V220.601C279.01 221.222 279.045 221.693 279.115 222.016C279.186 222.332 279.285 222.61 279.414 222.851V223H276.443C276.303 222.707 276.197 222.35 276.127 221.928C276.062 221.5 276.03 221.061 276.03 220.609ZM276.391 217.19L276.408 218.772H275.099C274.823 218.772 274.589 218.811 274.396 218.887C274.208 218.963 274.056 219.068 273.938 219.203C273.827 219.332 273.745 219.479 273.692 219.643C273.646 219.807 273.622 219.979 273.622 220.161C273.622 220.337 273.663 220.495 273.745 220.636C273.833 220.771 273.95 220.876 274.097 220.952C274.243 221.028 274.407 221.066 274.589 221.066C274.917 221.066 275.195 221.005 275.424 220.882C275.658 220.753 275.837 220.598 275.96 220.416C276.083 220.234 276.145 220.064 276.145 219.906L276.795 221.119C276.678 221.354 276.543 221.591 276.391 221.831C276.244 222.071 276.06 222.294 275.837 222.499C275.62 222.698 275.354 222.862 275.037 222.991C274.721 223.114 274.337 223.176 273.886 223.176C273.3 223.176 272.761 223.056 272.269 222.815C271.782 222.575 271.393 222.241 271.1 221.813C270.807 221.38 270.66 220.882 270.66 220.319C270.66 219.827 270.748 219.388 270.924 219.001C271.105 218.614 271.378 218.286 271.741 218.017C272.104 217.747 272.567 217.542 273.13 217.401C273.692 217.261 274.354 217.19 275.116 217.19H276.391ZM283.94 220.97L285.812 213.49H288.933L285.821 223H283.976L283.94 220.97ZM282.833 213.49L284.679 220.97L284.661 223H282.807L279.704 213.49H282.833ZM294.294 223.176C293.521 223.176 292.829 223.056 292.22 222.815C291.61 222.569 291.095 222.232 290.673 221.805C290.257 221.377 289.938 220.885 289.715 220.328C289.498 219.771 289.39 219.183 289.39 218.562V218.228C289.39 217.53 289.486 216.886 289.68 216.294C289.873 215.696 290.16 215.175 290.541 214.729C290.922 214.284 291.399 213.938 291.974 213.692C292.548 213.44 293.216 213.314 293.978 213.314C294.651 213.314 295.255 213.423 295.788 213.64C296.321 213.856 296.772 214.167 297.142 214.571C297.517 214.976 297.801 215.465 297.994 216.039C298.193 216.613 298.293 217.258 298.293 217.973V219.177H290.523V217.322H295.401V217.094C295.407 216.777 295.352 216.508 295.234 216.285C295.123 216.062 294.959 215.893 294.742 215.775C294.525 215.658 294.262 215.6 293.951 215.6C293.629 215.6 293.362 215.67 293.151 215.811C292.946 215.951 292.785 216.145 292.668 216.391C292.557 216.631 292.478 216.909 292.431 217.226C292.384 217.542 292.36 217.876 292.36 218.228V218.562C292.36 218.913 292.407 219.232 292.501 219.52C292.601 219.807 292.741 220.053 292.923 220.258C293.11 220.457 293.333 220.612 293.591 220.724C293.854 220.835 294.153 220.891 294.487 220.891C294.892 220.891 295.29 220.814 295.683 220.662C296.075 220.51 296.412 220.258 296.693 219.906L298.038 221.506C297.845 221.781 297.569 222.048 297.212 222.306C296.86 222.563 296.438 222.774 295.946 222.938C295.454 223.097 294.903 223.176 294.294 223.176ZM302.626 209.5V223H299.655V209.5H302.626Z" fill="white"/>
<rect x="222" y="196" width="104" height="41" rx="3" stroke="#34324E" stroke-width="4"/>
<rect x="346" y="196" width="114" height="41" rx="3" fill="#34324E"/>
<path d="M372.062 210.203V223H368.978V210.203H372.062ZM377.037 215.529V217.902H371.184V215.529H377.037ZM377.538 210.203V212.585H371.184V210.203H377.538ZM381.81 213.49V223H378.839V213.49H381.81ZM378.663 211.038C378.663 210.616 378.815 210.271 379.12 210.001C379.425 209.731 379.82 209.597 380.307 209.597C380.793 209.597 381.188 209.731 381.493 210.001C381.798 210.271 381.95 210.616 381.95 211.038C381.95 211.46 381.798 211.806 381.493 212.075C381.188 212.345 380.793 212.479 380.307 212.479C379.82 212.479 379.425 212.345 379.12 212.075C378.815 211.806 378.663 211.46 378.663 211.038ZM386.626 215.846V223H383.664V213.49H386.433L386.626 215.846ZM389.438 213.42L389.386 216.171C389.269 216.159 389.11 216.145 388.911 216.127C388.712 216.109 388.545 216.101 388.41 216.101C388.064 216.101 387.766 216.142 387.514 216.224C387.268 216.3 387.062 216.417 386.898 216.575C386.74 216.728 386.623 216.921 386.547 217.155C386.477 217.39 386.444 217.662 386.45 217.973L385.914 217.621C385.914 216.982 385.976 216.402 386.099 215.881C386.228 215.354 386.409 214.899 386.644 214.519C386.878 214.132 387.162 213.836 387.496 213.631C387.83 213.42 388.205 213.314 388.621 213.314C388.768 213.314 388.911 213.323 389.052 213.341C389.198 213.358 389.327 213.385 389.438 213.42ZM394.888 223.176C394.114 223.176 393.423 223.056 392.813 222.815C392.204 222.569 391.688 222.232 391.267 221.805C390.851 221.377 390.531 220.885 390.309 220.328C390.092 219.771 389.983 219.183 389.983 218.562V218.228C389.983 217.53 390.08 216.886 390.273 216.294C390.467 215.696 390.754 215.175 391.135 214.729C391.516 214.284 391.993 213.938 392.567 213.692C393.142 213.44 393.81 213.314 394.571 213.314C395.245 213.314 395.849 213.423 396.382 213.64C396.915 213.856 397.366 214.167 397.735 214.571C398.11 214.976 398.395 215.465 398.588 216.039C398.787 216.613 398.887 217.258 398.887 217.973V219.177H391.117V217.322H395.995V217.094C396.001 216.777 395.945 216.508 395.828 216.285C395.717 216.062 395.553 215.893 395.336 215.775C395.119 215.658 394.855 215.6 394.545 215.6C394.223 215.6 393.956 215.67 393.745 215.811C393.54 215.951 393.379 216.145 393.262 216.391C393.15 216.631 393.071 216.909 393.024 217.226C392.978 217.542 392.954 217.876 392.954 218.228V218.562C392.954 218.913 393.001 219.232 393.095 219.52C393.194 219.807 393.335 220.053 393.517 220.258C393.704 220.457 393.927 220.612 394.185 220.724C394.448 220.835 394.747 220.891 395.081 220.891C395.485 220.891 395.884 220.814 396.276 220.662C396.669 220.51 397.006 220.258 397.287 219.906L398.632 221.506C398.438 221.781 398.163 222.048 397.806 222.306C397.454 222.563 397.032 222.774 396.54 222.938C396.048 223.097 395.497 223.176 394.888 223.176ZM400.117 209.5H403.079V220.662L402.771 223H400.117V209.5ZM408.915 218.14V218.324C408.915 219.045 408.842 219.701 408.695 220.293C408.549 220.885 408.323 221.397 408.019 221.831C407.714 222.259 407.33 222.59 406.867 222.824C406.404 223.059 405.856 223.176 405.224 223.176C404.649 223.176 404.157 223.053 403.747 222.807C403.337 222.555 402.994 222.209 402.719 221.77C402.443 221.324 402.221 220.812 402.051 220.231C401.881 219.646 401.746 219.019 401.646 218.351V218.131C401.746 217.469 401.881 216.848 402.051 216.268C402.221 215.682 402.443 215.169 402.719 214.729C402.994 214.284 403.334 213.938 403.738 213.692C404.148 213.44 404.638 213.314 405.206 213.314C405.845 213.314 406.396 213.435 406.858 213.675C407.327 213.915 407.714 214.252 408.019 214.686C408.323 215.119 408.549 215.629 408.695 216.215C408.842 216.801 408.915 217.442 408.915 218.14ZM405.953 218.324V218.14C405.953 217.794 405.933 217.469 405.892 217.164C405.851 216.859 405.777 216.59 405.672 216.355C405.566 216.121 405.417 215.937 405.224 215.802C405.03 215.667 404.778 215.6 404.468 215.6C404.151 215.6 403.885 215.652 403.668 215.758C403.457 215.863 403.287 216.016 403.158 216.215C403.035 216.408 402.947 216.648 402.895 216.936C402.842 217.217 402.818 217.536 402.824 217.894V218.588C402.812 219.074 402.856 219.49 402.956 219.836C403.056 220.182 403.229 220.445 403.475 220.627C403.721 220.809 404.058 220.899 404.485 220.899C404.802 220.899 405.057 220.838 405.25 220.715C405.449 220.592 405.599 220.416 405.698 220.188C405.798 219.959 405.865 219.687 405.9 219.37C405.936 219.054 405.953 218.705 405.953 218.324ZM415.173 220.609V216.689C415.173 216.42 415.135 216.188 415.059 215.995C414.982 215.802 414.862 215.652 414.698 215.547C414.534 215.436 414.314 215.38 414.039 215.38C413.816 215.38 413.626 215.418 413.468 215.494C413.31 215.57 413.189 215.685 413.107 215.837C413.025 215.989 412.984 216.183 412.984 216.417H410.022C410.022 215.978 410.119 215.57 410.312 215.195C410.512 214.814 410.793 214.483 411.156 214.202C411.525 213.921 411.965 213.704 412.475 213.552C412.99 213.394 413.564 213.314 414.197 213.314C414.953 213.314 415.627 213.44 416.219 213.692C416.816 213.944 417.288 214.322 417.634 214.826C417.979 215.324 418.152 215.951 418.152 216.707V220.601C418.152 221.222 418.188 221.693 418.258 222.016C418.328 222.332 418.428 222.61 418.557 222.851V223H415.586C415.445 222.707 415.34 222.35 415.27 221.928C415.205 221.5 415.173 221.061 415.173 220.609ZM415.533 217.19L415.551 218.772H414.241C413.966 218.772 413.731 218.811 413.538 218.887C413.351 218.963 413.198 219.068 413.081 219.203C412.97 219.332 412.888 219.479 412.835 219.643C412.788 219.807 412.765 219.979 412.765 220.161C412.765 220.337 412.806 220.495 412.888 220.636C412.976 220.771 413.093 220.876 413.239 220.952C413.386 221.028 413.55 221.066 413.731 221.066C414.06 221.066 414.338 221.005 414.566 220.882C414.801 220.753 414.979 220.598 415.103 220.416C415.226 220.234 415.287 220.064 415.287 219.906L415.938 221.119C415.82 221.354 415.686 221.591 415.533 221.831C415.387 222.071 415.202 222.294 414.979 222.499C414.763 222.698 414.496 222.862 414.18 222.991C413.863 223.114 413.479 223.176 413.028 223.176C412.442 223.176 411.903 223.056 411.411 222.815C410.925 222.575 410.535 222.241 410.242 221.813C409.949 221.38 409.803 220.882 409.803 220.319C409.803 219.827 409.891 219.388 410.066 219.001C410.248 218.614 410.521 218.286 410.884 218.017C411.247 217.747 411.71 217.542 412.272 217.401C412.835 217.261 413.497 217.19 414.259 217.19H415.533ZM424.779 220.328C424.779 220.164 424.724 220.023 424.612 219.906C424.507 219.783 424.319 219.672 424.05 219.572C423.78 219.467 423.402 219.361 422.916 219.256C422.453 219.156 422.017 219.024 421.606 218.86C421.202 218.696 420.848 218.497 420.543 218.263C420.238 218.028 419.998 217.75 419.822 217.428C419.652 217.105 419.567 216.736 419.567 216.32C419.567 215.916 419.652 215.535 419.822 215.178C419.998 214.814 420.253 214.495 420.587 214.22C420.927 213.938 421.34 213.719 421.826 213.561C422.312 213.396 422.866 213.314 423.487 213.314C424.343 213.314 425.081 213.446 425.702 213.71C426.323 213.968 426.801 214.331 427.135 214.8C427.475 215.263 427.645 215.799 427.645 216.408H424.683C424.683 216.168 424.642 215.963 424.56 215.793C424.483 215.623 424.357 215.494 424.182 215.406C424.006 215.312 423.771 215.266 423.479 215.266C423.273 215.266 423.086 215.304 422.916 215.38C422.752 215.456 422.62 215.562 422.521 215.696C422.421 215.831 422.371 215.989 422.371 216.171C422.371 216.3 422.4 216.417 422.459 216.522C422.523 216.622 422.62 216.716 422.749 216.804C422.878 216.886 423.042 216.962 423.241 217.032C423.44 217.097 423.681 217.155 423.962 217.208C424.601 217.325 425.198 217.492 425.755 217.709C426.312 217.926 426.763 218.233 427.108 218.632C427.46 219.03 427.636 219.566 427.636 220.24C427.636 220.662 427.539 221.052 427.346 221.409C427.152 221.761 426.874 222.071 426.511 222.341C426.147 222.604 425.711 222.81 425.201 222.956C424.691 223.103 424.117 223.176 423.479 223.176C422.57 223.176 421.803 223.015 421.176 222.692C420.549 222.364 420.074 221.954 419.752 221.462C419.436 220.964 419.277 220.46 419.277 219.95H422.037C422.049 220.243 422.119 220.483 422.248 220.671C422.383 220.858 422.562 220.996 422.784 221.084C423.007 221.172 423.265 221.216 423.558 221.216C423.827 221.216 424.05 221.178 424.226 221.102C424.407 221.025 424.545 220.923 424.639 220.794C424.732 220.659 424.779 220.504 424.779 220.328ZM433.63 223.176C432.856 223.176 432.165 223.056 431.556 222.815C430.946 222.569 430.431 222.232 430.009 221.805C429.593 221.377 429.273 220.885 429.051 220.328C428.834 219.771 428.726 219.183 428.726 218.562V218.228C428.726 217.53 428.822 216.886 429.016 216.294C429.209 215.696 429.496 215.175 429.877 214.729C430.258 214.284 430.735 213.938 431.31 213.692C431.884 213.44 432.552 213.314 433.313 213.314C433.987 213.314 434.591 213.423 435.124 213.64C435.657 213.856 436.108 214.167 436.478 214.571C436.853 214.976 437.137 215.465 437.33 216.039C437.529 216.613 437.629 217.258 437.629 217.973V219.177H429.859V217.322H434.737V217.094C434.743 216.777 434.688 216.508 434.57 216.285C434.459 216.062 434.295 215.893 434.078 215.775C433.861 215.658 433.598 215.6 433.287 215.6C432.965 215.6 432.698 215.67 432.487 215.811C432.282 215.951 432.121 216.145 432.004 216.391C431.893 216.631 431.813 216.909 431.767 217.226C431.72 217.542 431.696 217.876 431.696 218.228V218.562C431.696 218.913 431.743 219.232 431.837 219.52C431.937 219.807 432.077 220.053 432.259 220.258C432.446 220.457 432.669 220.612 432.927 220.724C433.19 220.835 433.489 220.891 433.823 220.891C434.228 220.891 434.626 220.814 435.019 220.662C435.411 220.51 435.748 220.258 436.029 219.906L437.374 221.506C437.181 221.781 436.905 222.048 436.548 222.306C436.196 222.563 435.774 222.774 435.282 222.938C434.79 223.097 434.239 223.176 433.63 223.176Z" fill="white"/>
<rect x="346" y="196" width="114" height="41" rx="3" stroke="#34324E" stroke-width="4"/>
<rect x="480" y="196" width="78" height="41" rx="3" fill="#34324E"/>
<path d="M509.842 219.599C509.842 219.399 509.812 219.221 509.754 219.062C509.695 218.898 509.587 218.746 509.429 218.605C509.271 218.465 509.042 218.324 508.743 218.184C508.45 218.037 508.063 217.885 507.583 217.727C507.021 217.539 506.479 217.328 505.957 217.094C505.436 216.854 504.97 216.575 504.56 216.259C504.149 215.937 503.824 215.562 503.584 215.134C503.344 214.7 503.224 214.196 503.224 213.622C503.224 213.071 503.347 212.576 503.593 212.137C503.839 211.691 504.182 211.313 504.621 211.003C505.066 210.687 505.588 210.446 506.186 210.282C506.783 210.112 507.437 210.027 508.146 210.027C509.083 210.027 509.909 210.191 510.624 210.52C511.345 210.842 511.907 211.302 512.312 211.899C512.722 212.491 512.927 213.191 512.927 214H509.859C509.859 213.678 509.792 213.394 509.657 213.147C509.528 212.901 509.332 212.708 509.068 212.567C508.805 212.427 508.474 212.356 508.075 212.356C507.688 212.356 507.363 212.415 507.1 212.532C506.836 212.649 506.637 212.808 506.502 213.007C506.367 213.2 506.3 213.414 506.3 213.648C506.3 213.842 506.353 214.018 506.458 214.176C506.569 214.328 506.725 214.472 506.924 214.606C507.129 214.741 507.375 214.87 507.662 214.993C507.955 215.116 508.283 215.236 508.646 215.354C509.326 215.57 509.93 215.813 510.457 216.083C510.99 216.347 511.438 216.648 511.802 216.988C512.171 217.322 512.449 217.703 512.637 218.131C512.83 218.559 512.927 219.042 512.927 219.581C512.927 220.155 512.815 220.665 512.593 221.11C512.37 221.556 512.051 221.934 511.635 222.244C511.219 222.549 510.721 222.78 510.141 222.938C509.561 223.097 508.913 223.176 508.198 223.176C507.542 223.176 506.895 223.094 506.256 222.93C505.623 222.76 505.049 222.502 504.533 222.156C504.018 221.805 503.604 221.356 503.294 220.812C502.989 220.261 502.837 219.607 502.837 218.852H505.931C505.931 219.227 505.98 219.543 506.08 219.801C506.18 220.059 506.326 220.267 506.52 220.425C506.713 220.577 506.95 220.688 507.231 220.759C507.513 220.823 507.835 220.855 508.198 220.855C508.591 220.855 508.907 220.8 509.147 220.688C509.388 220.571 509.563 220.419 509.675 220.231C509.786 220.038 509.842 219.827 509.842 219.599ZM521.654 220.891L525.223 223.721L523.307 225.338L519.8 222.508L521.654 220.891ZM525.372 216.347V216.865C525.372 217.844 525.234 218.723 524.959 219.502C524.689 220.275 524.303 220.938 523.799 221.488C523.301 222.033 522.712 222.452 522.032 222.745C521.353 223.032 520.603 223.176 519.782 223.176C518.956 223.176 518.2 223.032 517.515 222.745C516.835 222.452 516.243 222.033 515.739 221.488C515.241 220.938 514.854 220.275 514.579 219.502C514.31 218.723 514.175 217.844 514.175 216.865V216.347C514.175 215.368 514.31 214.489 514.579 213.71C514.854 212.931 515.238 212.269 515.73 211.724C516.229 211.173 516.817 210.754 517.497 210.467C518.183 210.174 518.938 210.027 519.765 210.027C520.585 210.027 521.335 210.174 522.015 210.467C522.7 210.754 523.292 211.173 523.79 211.724C524.294 212.269 524.684 212.931 524.959 213.71C525.234 214.489 525.372 215.368 525.372 216.347ZM522.234 216.865V216.329C522.234 215.696 522.179 215.14 522.067 214.659C521.962 214.173 521.804 213.766 521.593 213.438C521.382 213.109 521.121 212.863 520.811 212.699C520.506 212.529 520.157 212.444 519.765 212.444C519.354 212.444 518.997 212.529 518.692 212.699C518.388 212.863 518.133 213.109 517.928 213.438C517.723 213.766 517.567 214.173 517.462 214.659C517.362 215.14 517.312 215.696 517.312 216.329V216.865C517.312 217.492 517.362 218.049 517.462 218.535C517.567 219.016 517.723 219.423 517.928 219.757C518.139 220.091 518.396 220.343 518.701 220.513C519.012 220.683 519.372 220.768 519.782 220.768C520.175 220.768 520.523 220.683 520.828 220.513C521.133 220.343 521.388 220.091 521.593 219.757C521.804 219.423 521.962 219.016 522.067 218.535C522.179 218.049 522.234 217.492 522.234 216.865ZM535.4 220.627V223H528.932V220.627H535.4ZM530.03 210.203V223H526.945V210.203H530.03Z" fill="white"/>
<rect x="480" y="196" width="78" height="41" rx="3" stroke="#34324E" stroke-width="4"/>
<g clip-path="url(#clip0_3_61)">
<path d="M1066 0H1348C1356.28 0 1363 6.71573 1363 15V282C1363 290.284 1356.28 297 1348 297H1066V0Z" fill="white"/>
<rect x="1066" width="297" height="297" fill="white"/>
<path d="M1097.03 117.294L1074.98 56.5388H1081.4L1100.67 109.656L1120.03 56.5388H1126.45L1104.36 117.294H1097.03ZM1160.69 118.422C1156.58 118.422 1152.72 117.612 1149.1 115.992C1145.48 114.343 1142.3 112.072 1139.55 109.178C1136.8 106.285 1134.65 102.944 1133.09 99.1539C1131.52 95.335 1130.74 91.2558 1130.74 86.9161C1130.74 82.5765 1131.52 78.5117 1133.09 74.7218C1134.65 70.9029 1136.8 67.5469 1139.55 64.6539C1142.3 61.7608 1145.48 59.5042 1149.1 57.884C1152.72 56.235 1156.58 55.4105 1160.69 55.4105C1164.82 55.4105 1168.7 56.235 1172.32 57.884C1175.93 59.5042 1179.12 61.7608 1181.86 64.6539C1184.61 67.5469 1186.75 70.9029 1188.29 74.7218C1189.85 78.5117 1190.63 82.5765 1190.63 86.9161C1190.63 91.2558 1189.85 95.335 1188.29 99.1539C1186.75 102.944 1184.61 106.285 1181.86 109.178C1179.12 112.072 1175.93 114.343 1172.32 115.992C1168.7 117.612 1164.82 118.422 1160.69 118.422ZM1160.69 112.346C1164.01 112.346 1167.11 111.681 1169.97 110.35C1172.87 108.99 1175.4 107.139 1177.57 104.795C1179.77 102.452 1181.47 99.747 1182.69 96.6803C1183.93 93.6136 1184.55 90.3589 1184.55 86.9161C1184.55 83.4444 1183.93 80.1753 1182.69 77.1086C1181.44 74.013 1179.72 71.308 1177.52 68.9935C1175.35 66.6501 1172.82 64.813 1169.93 63.4822C1167.07 62.1513 1163.98 61.4859 1160.69 61.4859C1157.36 61.4859 1154.25 62.1658 1151.36 63.5256C1148.49 64.8564 1145.96 66.6935 1143.76 69.0369C1141.59 71.3803 1139.88 74.0853 1138.64 77.152C1137.43 80.2186 1136.82 83.4734 1136.82 86.9161C1136.82 90.4168 1137.44 93.7004 1138.68 96.7671C1139.93 99.8338 1141.64 102.539 1143.81 104.882C1146 107.226 1148.54 109.063 1151.4 110.394C1154.29 111.695 1157.39 112.346 1160.69 112.346ZM1199.44 117.294V56.5388H1205.51V111.218H1233.42V117.294H1199.44ZM1262.75 118.422C1257.89 118.422 1253.7 117.236 1250.17 114.863C1246.64 112.491 1243.92 109.309 1242.01 105.316C1240.13 101.295 1239.19 96.8394 1239.19 91.9501V56.5388H1245.26V91.9501C1245.26 95.6533 1245.94 99.0526 1247.3 102.148C1248.66 105.244 1250.65 107.717 1253.25 109.569C1255.85 111.421 1259.02 112.346 1262.75 112.346C1266.57 112.346 1269.77 111.421 1272.34 109.569C1274.95 107.688 1276.92 105.2 1278.25 102.105C1279.58 99.0092 1280.24 95.6243 1280.24 91.9501V56.5388H1286.32V91.9501C1286.32 95.6243 1285.77 99.0671 1284.67 102.278C1283.6 105.461 1282.04 108.267 1279.98 110.697C1277.96 113.127 1275.48 115.022 1272.56 116.382C1269.67 117.742 1266.4 118.422 1262.75 118.422ZM1296.32 117.294V56.5388H1302.91L1334.98 106.314V56.5388H1341.06V117.294H1334.51L1302.39 67.518V117.294H1296.32Z" fill="#9EA4DA"/>
<path d="M1142.01 139.453V155.266H1114.27V230.186H1098.46V155.266H1070.72V139.453H1142.01Z" fill="#9EA4DA"/>
<rect x="1171.7" y="139.281" width="76.5362" height="14.8135" fill="#9EA4DA"/>
<rect x="1171.7" y="177.549" width="76.5362" height="14.8135" fill="#9EA4DA"/>
<rect x="1171.7" y="215.818" width="76.5362" height="14.8135" fill="#9EA4DA"/>
<path d="M1326.1 139.631L1359.02 230.363H1342.24L1315.99 158.102L1289.68 230.363H1272.96L1305.88 139.631H1326.1Z" fill="#9EA4DA"/>
</g>
<defs>
<clipPath id="clip0_3_61">
<path d="M1066 0H1348C1356.28 0 1363 6.71573 1363 15V282C1363 290.284 1356.28 297 1348 297H1066V0Z" fill="white"/>
</clipPath>
</defs>
</svg>
