<svg width="1363" height="163" viewBox="0 0 1363 163" fill="none" xmlns="http://www.w3.org/2000/svg">
<path d="M0 15C0 6.71573 6.71573 0 15 0H37V163H15C6.71573 163 0 156.284 0 148V15Z" fill="#34324E"/>
<rect width="1097" height="163" transform="translate(37)" fill="#F0F0F0"/>
<path d="M101.906 53.9219L94.3945 51.2383V48.0859L104.602 52.375V54.6367L101.906 53.9219ZM94.3945 56.1719L101.918 53.4297L104.602 52.7852V55.0352L94.3945 59.3242V56.1719ZM119.051 57.4375L123.07 43.9375H126.984L121.043 61H118.465L119.051 57.4375ZM115.348 43.9375L119.355 57.4375L119.965 61H117.363L111.457 43.9375H115.348ZM127.289 54.7891V54.543C127.289 53.6133 127.422 52.7578 127.688 51.9766C127.953 51.1875 128.34 50.5039 128.848 49.9258C129.355 49.3477 129.98 48.8984 130.723 48.5781C131.465 48.25 132.316 48.0859 133.277 48.0859C134.238 48.0859 135.094 48.25 135.844 48.5781C136.594 48.8984 137.223 49.3477 137.73 49.9258C138.246 50.5039 138.637 51.1875 138.902 51.9766C139.168 52.7578 139.301 53.6133 139.301 54.543V54.7891C139.301 55.7109 139.168 56.5664 138.902 57.3555C138.637 58.1367 138.246 58.8203 137.73 59.4062C137.223 59.9844 136.598 60.4336 135.855 60.7539C135.113 61.0742 134.262 61.2344 133.301 61.2344C132.34 61.2344 131.484 61.0742 130.734 60.7539C129.992 60.4336 129.363 59.9844 128.848 59.4062C128.34 58.8203 127.953 58.1367 127.688 57.3555C127.422 56.5664 127.289 55.7109 127.289 54.7891ZM130.664 54.543V54.7891C130.664 55.3203 130.711 55.8164 130.805 56.2773C130.898 56.7383 131.047 57.1445 131.25 57.4961C131.461 57.8398 131.734 58.1094 132.07 58.3047C132.406 58.5 132.816 58.5977 133.301 58.5977C133.77 58.5977 134.172 58.5 134.508 58.3047C134.844 58.1094 135.113 57.8398 135.316 57.4961C135.52 57.1445 135.668 56.7383 135.762 56.2773C135.863 55.8164 135.914 55.3203 135.914 54.7891V54.543C135.914 54.0273 135.863 53.543 135.762 53.0898C135.668 52.6289 135.516 52.2227 135.305 51.8711C135.102 51.5117 134.832 51.2305 134.496 51.0273C134.16 50.8242 133.754 50.7227 133.277 50.7227C132.801 50.7227 132.395 50.8242 132.059 51.0273C131.73 51.2305 131.461 51.5117 131.25 51.8711C131.047 52.2227 130.898 52.6289 130.805 53.0898C130.711 53.543 130.664 54.0273 130.664 54.543ZM144.938 43V61H141.551V43H144.938ZM155.227 57.9648V48.3203H158.602V61H155.426L155.227 57.9648ZM155.602 55.3633L156.598 55.3398C156.598 56.1836 156.5 56.9688 156.305 57.6953C156.109 58.4141 155.816 59.0391 155.426 59.5703C155.035 60.0938 154.543 60.5039 153.949 60.8008C153.355 61.0898 152.656 61.2344 151.852 61.2344C151.234 61.2344 150.664 61.1484 150.141 60.9766C149.625 60.7969 149.18 60.5195 148.805 60.1445C148.438 59.7617 148.148 59.2734 147.938 58.6797C147.734 58.0781 147.633 57.3555 147.633 56.5117V48.3203H151.008V56.5352C151.008 56.9102 151.051 57.2266 151.137 57.4844C151.23 57.7422 151.359 57.9531 151.523 58.1172C151.688 58.2812 151.879 58.3984 152.098 58.4688C152.324 58.5391 152.574 58.5742 152.848 58.5742C153.543 58.5742 154.09 58.4336 154.488 58.1523C154.895 57.8711 155.18 57.4883 155.344 57.0039C155.516 56.5117 155.602 55.9648 155.602 55.3633ZM164.484 51.0273V61H161.109V48.3203H164.273L164.484 51.0273ZM163.992 54.2148H163.078C163.078 53.2773 163.199 52.4336 163.441 51.6836C163.684 50.9258 164.023 50.2812 164.461 49.75C164.898 49.2109 165.418 48.8008 166.02 48.5195C166.629 48.2305 167.309 48.0859 168.059 48.0859C168.652 48.0859 169.195 48.1719 169.688 48.3438C170.18 48.5156 170.602 48.7891 170.953 49.1641C171.312 49.5391 171.586 50.0352 171.773 50.6523C171.969 51.2695 172.066 52.0234 172.066 52.9141V61H168.668V52.9023C168.668 52.3398 168.59 51.9023 168.434 51.5898C168.277 51.2773 168.047 51.0586 167.742 50.9336C167.445 50.8008 167.078 50.7344 166.641 50.7344C166.188 50.7344 165.793 50.8242 165.457 51.0039C165.129 51.1836 164.855 51.4336 164.637 51.7539C164.426 52.0664 164.266 52.4336 164.156 52.8555C164.047 53.2773 163.992 53.7305 163.992 54.2148ZM182.473 43.9375V61H178.969V43.9375H182.473ZM187.723 43.9375V46.6914H173.801V43.9375H187.723ZM194.25 61.2344C193.266 61.2344 192.383 61.0781 191.602 60.7656C190.82 60.4453 190.156 60.0039 189.609 59.4414C189.07 58.8789 188.656 58.2266 188.367 57.4844C188.078 56.7344 187.934 55.9375 187.934 55.0938V54.625C187.934 53.6641 188.07 52.7852 188.344 51.9883C188.617 51.1914 189.008 50.5 189.516 49.9141C190.031 49.3281 190.656 48.8789 191.391 48.5664C192.125 48.2461 192.953 48.0859 193.875 48.0859C194.773 48.0859 195.57 48.2344 196.266 48.5312C196.961 48.8281 197.543 49.25 198.012 49.7969C198.488 50.3438 198.848 51 199.09 51.7656C199.332 52.5234 199.453 53.3672 199.453 54.2969V55.7031H189.375V53.4531H196.137V53.1953C196.137 52.7266 196.051 52.3086 195.879 51.9414C195.715 51.5664 195.465 51.2695 195.129 51.0508C194.793 50.832 194.363 50.7227 193.84 50.7227C193.395 50.7227 193.012 50.8203 192.691 51.0156C192.371 51.2109 192.109 51.4844 191.906 51.8359C191.711 52.1875 191.562 52.6016 191.461 53.0781C191.367 53.5469 191.32 54.0625 191.32 54.625V55.0938C191.32 55.6016 191.391 56.0703 191.531 56.5C191.68 56.9297 191.887 57.3008 192.152 57.6133C192.426 57.9258 192.754 58.168 193.137 58.3398C193.527 58.5117 193.969 58.5977 194.461 58.5977C195.07 58.5977 195.637 58.4805 196.16 58.2461C196.691 58.0039 197.148 57.6406 197.531 57.1562L199.172 58.9375C198.906 59.3203 198.543 59.6875 198.082 60.0391C197.629 60.3906 197.082 60.6797 196.441 60.9062C195.801 61.125 195.07 61.2344 194.25 61.2344ZM208.219 58.1406V52.4922C208.219 52.0859 208.152 51.7383 208.02 51.4492C207.887 51.1523 207.68 50.9219 207.398 50.7578C207.125 50.5938 206.77 50.5117 206.332 50.5117C205.957 50.5117 205.633 50.5781 205.359 50.7109C205.086 50.8359 204.875 51.0195 204.727 51.2617C204.578 51.4961 204.504 51.7734 204.504 52.0938H201.129C201.129 51.5547 201.254 51.043 201.504 50.5586C201.754 50.0742 202.117 49.6484 202.594 49.2812C203.07 48.9062 203.637 48.6133 204.293 48.4023C204.957 48.1914 205.699 48.0859 206.52 48.0859C207.504 48.0859 208.379 48.25 209.145 48.5781C209.91 48.9062 210.512 49.3984 210.949 50.0547C211.395 50.7109 211.617 51.5312 211.617 52.5156V57.9414C211.617 58.6367 211.66 59.207 211.746 59.6523C211.832 60.0898 211.957 60.4727 212.121 60.8008V61H208.711C208.547 60.6562 208.422 60.2266 208.336 59.7109C208.258 59.1875 208.219 58.6641 208.219 58.1406ZM208.664 53.2773L208.688 55.1875H206.801C206.355 55.1875 205.969 55.2383 205.641 55.3398C205.312 55.4414 205.043 55.5859 204.832 55.7734C204.621 55.9531 204.465 56.1641 204.363 56.4062C204.27 56.6484 204.223 56.9141 204.223 57.2031C204.223 57.4922 204.289 57.7539 204.422 57.9883C204.555 58.2148 204.746 58.3945 204.996 58.5273C205.246 58.6523 205.539 58.7148 205.875 58.7148C206.383 58.7148 206.824 58.6133 207.199 58.4102C207.574 58.207 207.863 57.957 208.066 57.6602C208.277 57.3633 208.387 57.082 208.395 56.8164L209.285 58.2461C209.16 58.5664 208.988 58.8984 208.77 59.2422C208.559 59.5859 208.289 59.9102 207.961 60.2148C207.633 60.5117 207.238 60.7578 206.777 60.9531C206.316 61.1406 205.77 61.2344 205.137 61.2344C204.332 61.2344 203.602 61.0742 202.945 60.7539C202.297 60.4258 201.781 59.9766 201.398 59.4062C201.023 58.8281 200.836 58.1719 200.836 57.4375C200.836 56.7734 200.961 56.1836 201.211 55.668C201.461 55.1523 201.828 54.7188 202.312 54.3672C202.805 54.0078 203.418 53.7383 204.152 53.5586C204.887 53.3711 205.738 53.2773 206.707 53.2773H208.664Z" fill="#888888"/>
<path d="M118.594 98.4219V104.75H101.086V98.4219H118.594ZM103.828 84.875V119H95.6016V84.875H103.828ZM124.125 84.875V119H115.922V84.875H124.125ZM127.992 106.578V106.086C127.992 104.227 128.258 102.516 128.789 100.953C129.32 99.375 130.102 98.0078 131.133 96.8516C132.164 95.6953 133.438 94.7969 134.953 94.1562C136.469 93.5 138.219 93.1719 140.203 93.1719C142.203 93.1719 143.961 93.5 145.477 94.1562C147.008 94.7969 148.289 95.6953 149.32 96.8516C150.352 98.0078 151.133 99.375 151.664 100.953C152.195 102.516 152.461 104.227 152.461 106.086V106.578C152.461 108.422 152.195 110.133 151.664 111.711C151.133 113.273 150.352 114.641 149.32 115.812C148.289 116.969 147.016 117.867 145.5 118.508C143.984 119.148 142.234 119.469 140.25 119.469C138.266 119.469 136.508 119.148 134.977 118.508C133.445 117.867 132.164 116.969 131.133 115.812C130.102 114.641 129.32 113.273 128.789 111.711C128.258 110.133 127.992 108.422 127.992 106.578ZM135.891 106.086V106.578C135.891 107.531 135.961 108.422 136.102 109.25C136.242 110.078 136.477 110.805 136.805 111.43C137.133 112.039 137.578 112.516 138.141 112.859C138.703 113.203 139.406 113.375 140.25 113.375C141.078 113.375 141.766 113.203 142.312 112.859C142.875 112.516 143.32 112.039 143.648 111.43C143.977 110.805 144.211 110.078 144.352 109.25C144.492 108.422 144.562 107.531 144.562 106.578V106.086C144.562 105.164 144.492 104.297 144.352 103.484C144.211 102.656 143.977 101.93 143.648 101.305C143.32 100.664 142.875 100.164 142.312 99.8047C141.75 99.4453 141.047 99.2656 140.203 99.2656C139.375 99.2656 138.68 99.4453 138.117 99.8047C137.57 100.164 137.133 100.664 136.805 101.305C136.477 101.93 136.242 102.656 136.102 103.484C135.961 104.297 135.891 105.164 135.891 106.086ZM163.688 111.453L168.375 93.6406H173.32L171.562 102.57L166.922 119H162.961L163.688 111.453ZM161.836 93.6406L164.742 111.312L165.07 119H160.266L154.266 93.6406H161.836ZM177.492 110.938L180.422 93.6406H187.992L182.039 119H177.234L177.492 110.938ZM173.883 93.6406L178.617 111.406L179.344 119H175.336L170.789 102.617L169.102 93.6406H173.883ZM218.297 84.875V119H210.07V84.875H218.297ZM228.562 84.875V91.2266H200.039V84.875H228.562ZM225.773 106.578V106.086C225.773 104.227 226.039 102.516 226.57 100.953C227.102 99.375 227.883 98.0078 228.914 96.8516C229.945 95.6953 231.219 94.7969 232.734 94.1562C234.25 93.5 236 93.1719 237.984 93.1719C239.984 93.1719 241.742 93.5 243.258 94.1562C244.789 94.7969 246.07 95.6953 247.102 96.8516C248.133 98.0078 248.914 99.375 249.445 100.953C249.977 102.516 250.242 104.227 250.242 106.086V106.578C250.242 108.422 249.977 110.133 249.445 111.711C248.914 113.273 248.133 114.641 247.102 115.812C246.07 116.969 244.797 117.867 243.281 118.508C241.766 119.148 240.016 119.469 238.031 119.469C236.047 119.469 234.289 119.148 232.758 118.508C231.227 117.867 229.945 116.969 228.914 115.812C227.883 114.641 227.102 113.273 226.57 111.711C226.039 110.133 225.773 108.422 225.773 106.578ZM233.672 106.086V106.578C233.672 107.531 233.742 108.422 233.883 109.25C234.023 110.078 234.258 110.805 234.586 111.43C234.914 112.039 235.359 112.516 235.922 112.859C236.484 113.203 237.188 113.375 238.031 113.375C238.859 113.375 239.547 113.203 240.094 112.859C240.656 112.516 241.102 112.039 241.43 111.43C241.758 110.805 241.992 110.078 242.133 109.25C242.273 108.422 242.344 107.531 242.344 106.578V106.086C242.344 105.164 242.273 104.297 242.133 103.484C241.992 102.656 241.758 101.93 241.43 101.305C241.102 100.664 240.656 100.164 240.094 99.8047C239.531 99.4453 238.828 99.2656 237.984 99.2656C237.156 99.2656 236.461 99.4453 235.898 99.8047C235.352 100.164 234.914 100.664 234.586 101.305C234.258 101.93 234.023 102.656 233.883 103.484C233.742 104.297 233.672 105.164 233.672 106.086ZM266.086 84.875H279.516C282.141 84.875 284.422 85.2656 286.359 86.0469C288.297 86.8281 289.789 87.9844 290.836 89.5156C291.898 91.0469 292.43 92.9375 292.43 95.1875C292.43 97.1406 292.125 98.7734 291.516 100.086C290.906 101.398 290.055 102.484 288.961 103.344C287.883 104.188 286.625 104.883 285.188 105.43L282.492 106.953H271.219L271.172 100.602H279.516C280.562 100.602 281.43 100.414 282.117 100.039C282.805 99.6641 283.32 99.1328 283.664 98.4453C284.023 97.7422 284.203 96.9062 284.203 95.9375C284.203 94.9531 284.023 94.1094 283.664 93.4062C283.305 92.7031 282.773 92.1641 282.07 91.7891C281.383 91.4141 280.531 91.2266 279.516 91.2266H274.312V119H266.086V84.875ZM284.766 119L277.219 103.906L285.938 103.859L293.578 118.648V119H284.766ZM311.836 112.836V93.6406H319.758V119H312.352L311.836 112.836ZM312.586 107.68L314.648 107.633C314.648 109.336 314.445 110.914 314.039 112.367C313.633 113.805 313.031 115.055 312.234 116.117C311.453 117.18 310.484 118.008 309.328 118.602C308.188 119.18 306.867 119.469 305.367 119.469C304.117 119.469 302.969 119.297 301.922 118.953C300.891 118.594 300 118.039 299.25 117.289C298.5 116.523 297.914 115.547 297.492 114.359C297.086 113.156 296.883 111.719 296.883 110.047V93.6406H304.781V110.094C304.781 110.656 304.852 111.141 304.992 111.547C305.133 111.953 305.336 112.297 305.602 112.578C305.867 112.844 306.195 113.047 306.586 113.188C306.992 113.312 307.453 113.375 307.969 113.375C309.156 113.375 310.086 113.125 310.758 112.625C311.43 112.125 311.898 111.445 312.164 110.586C312.445 109.727 312.586 108.758 312.586 107.68ZM331.875 99.0547V119H323.977V93.6406H331.383L331.875 99.0547ZM330.938 105.453L329.086 105.5C329.086 103.562 329.32 101.836 329.789 100.32C330.258 98.7891 330.922 97.4922 331.781 96.4297C332.641 95.3672 333.664 94.5625 334.852 94.0156C336.055 93.4531 337.391 93.1719 338.859 93.1719C340.031 93.1719 341.102 93.3438 342.07 93.6875C343.055 94.0312 343.898 94.5859 344.602 95.3516C345.32 96.1172 345.867 97.1328 346.242 98.3984C346.633 99.6484 346.828 101.195 346.828 103.039V119H338.883V103.016C338.883 102 338.742 101.227 338.461 100.695C338.18 100.148 337.773 99.7734 337.242 99.5703C336.711 99.3672 336.062 99.2656 335.297 99.2656C334.484 99.2656 333.797 99.4219 333.234 99.7344C332.672 100.047 332.219 100.484 331.875 101.047C331.547 101.594 331.305 102.242 331.148 102.992C331.008 103.742 330.938 104.562 330.938 105.453ZM363.773 108.195H357.047C357.047 106.82 357.141 105.609 357.328 104.562C357.531 103.5 357.875 102.547 358.359 101.703C358.844 100.859 359.5 100.078 360.328 99.3594C361.062 98.75 361.695 98.1641 362.227 97.6016C362.758 97.0391 363.164 96.4688 363.445 95.8906C363.727 95.3125 363.867 94.6953 363.867 94.0391C363.867 93.2266 363.75 92.5625 363.516 92.0469C363.297 91.5312 362.961 91.1484 362.508 90.8984C362.07 90.6328 361.516 90.5 360.844 90.5C360.297 90.5 359.781 90.6328 359.297 90.8984C358.828 91.1641 358.445 91.5781 358.148 92.1406C357.852 92.6875 357.688 93.4141 357.656 94.3203H349.711C349.758 91.9922 350.273 90.1016 351.258 88.6484C352.258 87.1797 353.586 86.1094 355.242 85.4375C356.914 84.75 358.781 84.4062 360.844 84.4062C363.125 84.4062 365.086 84.7578 366.727 85.4609C368.367 86.1641 369.625 87.2109 370.5 88.6016C371.375 89.9766 371.812 91.6719 371.812 93.6875C371.812 95.0312 371.555 96.2031 371.039 97.2031C370.539 98.1875 369.859 99.1094 369 99.9688C368.156 100.812 367.211 101.719 366.164 102.688C365.258 103.484 364.641 104.297 364.312 105.125C363.984 105.938 363.805 106.961 363.773 108.195ZM356.086 115.32C356.086 114.195 356.492 113.258 357.305 112.508C358.117 111.742 359.172 111.359 360.469 111.359C361.766 111.359 362.82 111.742 363.633 112.508C364.445 113.258 364.852 114.195 364.852 115.32C364.852 116.445 364.445 117.391 363.633 118.156C362.82 118.906 361.766 119.281 360.469 119.281C359.172 119.281 358.117 118.906 357.305 118.156C356.492 117.391 356.086 116.445 356.086 115.32Z" fill="black"/>
<path d="M1134 0H1348C1356.28 0 1363 6.71573 1363 15V148C1363 156.284 1356.28 163 1348 163H1134V0Z" fill="#9EA4DA"/>
<path d="M1260.62 78.8078C1263.81 78.8078 1266.93 79.7552 1269.59 81.5302C1272.25 83.3052 1274.32 85.8281 1275.54 88.7798C1276.76 91.7315 1277.08 94.9795 1276.46 98.1131C1275.84 101.247 1274.3 104.125 1272.04 106.384C1269.78 108.643 1266.9 110.182 1263.77 110.805C1260.63 111.428 1257.39 111.108 1254.43 109.886C1251.48 108.663 1248.96 106.593 1247.18 103.936C1245.41 101.28 1244.46 98.1565 1244.46 94.9616C1244.46 90.6774 1246.16 86.5686 1249.19 83.5392C1252.22 80.5097 1256.33 78.8078 1260.62 78.8078ZM1260.62 73.4232C1256.36 73.4232 1252.19 74.6864 1248.65 77.0531C1245.11 79.4198 1242.35 82.7836 1240.72 86.7192C1239.09 90.6549 1238.66 94.9855 1239.49 99.1636C1240.32 103.342 1242.37 107.179 1245.39 110.192C1248.4 113.204 1252.24 115.255 1256.41 116.086C1260.59 116.917 1264.92 116.491 1268.86 114.861C1272.79 113.23 1276.16 110.47 1278.52 106.928C1280.89 103.386 1282.15 99.2215 1282.15 94.9616C1282.15 89.2493 1279.88 83.7709 1275.85 79.7317C1271.81 75.6924 1266.33 73.4232 1260.62 73.4232Z" fill="white"/>
<path d="M1274.08 46.4999H1220.23C1218.8 46.4999 1217.43 47.0672 1216.42 48.0771C1215.41 49.0869 1214.85 50.4565 1214.85 51.8845V105.731C1214.85 107.159 1215.41 108.528 1216.42 109.538C1217.43 110.548 1218.8 111.115 1220.23 111.115H1231V105.731H1220.23V68.0383H1279.46V51.8845C1279.46 50.4565 1278.89 49.0869 1277.88 48.0771C1276.87 47.0672 1275.5 46.4999 1274.08 46.4999ZM1220.23 62.6537V51.8845H1274.08V62.6537H1220.23Z" fill="white"/>
<path d="M1255.23 86.8848V103.039L1268.69 94.9617L1255.23 86.8848Z" fill="white"/>
</svg>
