<svg width="1363" height="163" viewBox="0 0 1363 163" fill="none" xmlns="http://www.w3.org/2000/svg">
<path d="M0 15C0 6.71573 6.71573 0 15 0H37V163H15C6.71573 163 0 156.284 0 148V15Z" fill="#34324E"/>
<rect width="1097" height="163" transform="translate(37)" fill="#F0F0F0"/>
<path d="M101.906 53.9219L94.3945 51.2383V48.0859L104.602 52.375V54.6367L101.906 53.9219ZM94.3945 56.1719L101.918 53.4297L104.602 52.7852V55.0352L94.3945 59.3242V56.1719ZM119.051 57.4375L123.07 43.9375H126.984L121.043 61H118.465L119.051 57.4375ZM115.348 43.9375L119.355 57.4375L119.965 61H117.363L111.457 43.9375H115.348ZM127.289 54.7891V54.543C127.289 53.6133 127.422 52.7578 127.688 51.9766C127.953 51.1875 128.34 50.5039 128.848 49.9258C129.355 49.3477 129.98 48.8984 130.723 48.5781C131.465 48.25 132.316 48.0859 133.277 48.0859C134.238 48.0859 135.094 48.25 135.844 48.5781C136.594 48.8984 137.223 49.3477 137.73 49.9258C138.246 50.5039 138.637 51.1875 138.902 51.9766C139.168 52.7578 139.301 53.6133 139.301 54.543V54.7891C139.301 55.7109 139.168 56.5664 138.902 57.3555C138.637 58.1367 138.246 58.8203 137.73 59.4062C137.223 59.9844 136.598 60.4336 135.855 60.7539C135.113 61.0742 134.262 61.2344 133.301 61.2344C132.34 61.2344 131.484 61.0742 130.734 60.7539C129.992 60.4336 129.363 59.9844 128.848 59.4062C128.34 58.8203 127.953 58.1367 127.688 57.3555C127.422 56.5664 127.289 55.7109 127.289 54.7891ZM130.664 54.543V54.7891C130.664 55.3203 130.711 55.8164 130.805 56.2773C130.898 56.7383 131.047 57.1445 131.25 57.4961C131.461 57.8398 131.734 58.1094 132.07 58.3047C132.406 58.5 132.816 58.5977 133.301 58.5977C133.77 58.5977 134.172 58.5 134.508 58.3047C134.844 58.1094 135.113 57.8398 135.316 57.4961C135.52 57.1445 135.668 56.7383 135.762 56.2773C135.863 55.8164 135.914 55.3203 135.914 54.7891V54.543C135.914 54.0273 135.863 53.543 135.762 53.0898C135.668 52.6289 135.516 52.2227 135.305 51.8711C135.102 51.5117 134.832 51.2305 134.496 51.0273C134.16 50.8242 133.754 50.7227 133.277 50.7227C132.801 50.7227 132.395 50.8242 132.059 51.0273C131.73 51.2305 131.461 51.5117 131.25 51.8711C131.047 52.2227 130.898 52.6289 130.805 53.0898C130.711 53.543 130.664 54.0273 130.664 54.543ZM144.938 43V61H141.551V43H144.938ZM155.227 57.9648V48.3203H158.602V61H155.426L155.227 57.9648ZM155.602 55.3633L156.598 55.3398C156.598 56.1836 156.5 56.9688 156.305 57.6953C156.109 58.4141 155.816 59.0391 155.426 59.5703C155.035 60.0938 154.543 60.5039 153.949 60.8008C153.355 61.0898 152.656 61.2344 151.852 61.2344C151.234 61.2344 150.664 61.1484 150.141 60.9766C149.625 60.7969 149.18 60.5195 148.805 60.1445C148.438 59.7617 148.148 59.2734 147.938 58.6797C147.734 58.0781 147.633 57.3555 147.633 56.5117V48.3203H151.008V56.5352C151.008 56.9102 151.051 57.2266 151.137 57.4844C151.23 57.7422 151.359 57.9531 151.523 58.1172C151.688 58.2812 151.879 58.3984 152.098 58.4688C152.324 58.5391 152.574 58.5742 152.848 58.5742C153.543 58.5742 154.09 58.4336 154.488 58.1523C154.895 57.8711 155.18 57.4883 155.344 57.0039C155.516 56.5117 155.602 55.9648 155.602 55.3633ZM164.484 51.0273V61H161.109V48.3203H164.273L164.484 51.0273ZM163.992 54.2148H163.078C163.078 53.2773 163.199 52.4336 163.441 51.6836C163.684 50.9258 164.023 50.2812 164.461 49.75C164.898 49.2109 165.418 48.8008 166.02 48.5195C166.629 48.2305 167.309 48.0859 168.059 48.0859C168.652 48.0859 169.195 48.1719 169.688 48.3438C170.18 48.5156 170.602 48.7891 170.953 49.1641C171.312 49.5391 171.586 50.0352 171.773 50.6523C171.969 51.2695 172.066 52.0234 172.066 52.9141V61H168.668V52.9023C168.668 52.3398 168.59 51.9023 168.434 51.5898C168.277 51.2773 168.047 51.0586 167.742 50.9336C167.445 50.8008 167.078 50.7344 166.641 50.7344C166.188 50.7344 165.793 50.8242 165.457 51.0039C165.129 51.1836 164.855 51.4336 164.637 51.7539C164.426 52.0664 164.266 52.4336 164.156 52.8555C164.047 53.2773 163.992 53.7305 163.992 54.2148ZM182.473 43.9375V61H178.969V43.9375H182.473ZM187.723 43.9375V46.6914H173.801V43.9375H187.723ZM194.25 61.2344C193.266 61.2344 192.383 61.0781 191.602 60.7656C190.82 60.4453 190.156 60.0039 189.609 59.4414C189.07 58.8789 188.656 58.2266 188.367 57.4844C188.078 56.7344 187.934 55.9375 187.934 55.0938V54.625C187.934 53.6641 188.07 52.7852 188.344 51.9883C188.617 51.1914 189.008 50.5 189.516 49.9141C190.031 49.3281 190.656 48.8789 191.391 48.5664C192.125 48.2461 192.953 48.0859 193.875 48.0859C194.773 48.0859 195.57 48.2344 196.266 48.5312C196.961 48.8281 197.543 49.25 198.012 49.7969C198.488 50.3438 198.848 51 199.09 51.7656C199.332 52.5234 199.453 53.3672 199.453 54.2969V55.7031H189.375V53.4531H196.137V53.1953C196.137 52.7266 196.051 52.3086 195.879 51.9414C195.715 51.5664 195.465 51.2695 195.129 51.0508C194.793 50.832 194.363 50.7227 193.84 50.7227C193.395 50.7227 193.012 50.8203 192.691 51.0156C192.371 51.2109 192.109 51.4844 191.906 51.8359C191.711 52.1875 191.562 52.6016 191.461 53.0781C191.367 53.5469 191.32 54.0625 191.32 54.625V55.0938C191.32 55.6016 191.391 56.0703 191.531 56.5C191.68 56.9297 191.887 57.3008 192.152 57.6133C192.426 57.9258 192.754 58.168 193.137 58.3398C193.527 58.5117 193.969 58.5977 194.461 58.5977C195.07 58.5977 195.637 58.4805 196.16 58.2461C196.691 58.0039 197.148 57.6406 197.531 57.1562L199.172 58.9375C198.906 59.3203 198.543 59.6875 198.082 60.0391C197.629 60.3906 197.082 60.6797 196.441 60.9062C195.801 61.125 195.07 61.2344 194.25 61.2344ZM208.219 58.1406V52.4922C208.219 52.0859 208.152 51.7383 208.02 51.4492C207.887 51.1523 207.68 50.9219 207.398 50.7578C207.125 50.5938 206.77 50.5117 206.332 50.5117C205.957 50.5117 205.633 50.5781 205.359 50.7109C205.086 50.8359 204.875 51.0195 204.727 51.2617C204.578 51.4961 204.504 51.7734 204.504 52.0938H201.129C201.129 51.5547 201.254 51.043 201.504 50.5586C201.754 50.0742 202.117 49.6484 202.594 49.2812C203.07 48.9062 203.637 48.6133 204.293 48.4023C204.957 48.1914 205.699 48.0859 206.52 48.0859C207.504 48.0859 208.379 48.25 209.145 48.5781C209.91 48.9062 210.512 49.3984 210.949 50.0547C211.395 50.7109 211.617 51.5312 211.617 52.5156V57.9414C211.617 58.6367 211.66 59.207 211.746 59.6523C211.832 60.0898 211.957 60.4727 212.121 60.8008V61H208.711C208.547 60.6562 208.422 60.2266 208.336 59.7109C208.258 59.1875 208.219 58.6641 208.219 58.1406ZM208.664 53.2773L208.688 55.1875H206.801C206.355 55.1875 205.969 55.2383 205.641 55.3398C205.312 55.4414 205.043 55.5859 204.832 55.7734C204.621 55.9531 204.465 56.1641 204.363 56.4062C204.27 56.6484 204.223 56.9141 204.223 57.2031C204.223 57.4922 204.289 57.7539 204.422 57.9883C204.555 58.2148 204.746 58.3945 204.996 58.5273C205.246 58.6523 205.539 58.7148 205.875 58.7148C206.383 58.7148 206.824 58.6133 207.199 58.4102C207.574 58.207 207.863 57.957 208.066 57.6602C208.277 57.3633 208.387 57.082 208.395 56.8164L209.285 58.2461C209.16 58.5664 208.988 58.8984 208.77 59.2422C208.559 59.5859 208.289 59.9102 207.961 60.2148C207.633 60.5117 207.238 60.7578 206.777 60.9531C206.316 61.1406 205.77 61.2344 205.137 61.2344C204.332 61.2344 203.602 61.0742 202.945 60.7539C202.297 60.4258 201.781 59.9766 201.398 59.4062C201.023 58.8281 200.836 58.1719 200.836 57.4375C200.836 56.7734 200.961 56.1836 201.211 55.668C201.461 55.1523 201.828 54.7188 202.312 54.3672C202.805 54.0078 203.418 53.7383 204.152 53.5586C204.887 53.3711 205.738 53.2773 206.707 53.2773H208.664Z" fill="#888888"/>
<path d="M112.125 84.875V119H103.898V84.875H112.125ZM122.391 84.875V91.2266H93.8672V84.875H122.391ZM135.68 119.469C133.617 119.469 131.773 119.148 130.148 118.508C128.523 117.852 127.148 116.953 126.023 115.812C124.914 114.672 124.062 113.359 123.469 111.875C122.891 110.391 122.602 108.82 122.602 107.164V106.273C122.602 104.414 122.859 102.695 123.375 101.117C123.891 99.5234 124.656 98.1328 125.672 96.9453C126.688 95.7578 127.961 94.8359 129.492 94.1797C131.023 93.5078 132.805 93.1719 134.836 93.1719C136.633 93.1719 138.242 93.4609 139.664 94.0391C141.086 94.6172 142.289 95.4453 143.273 96.5234C144.273 97.6016 145.031 98.9062 145.547 100.438C146.078 101.969 146.344 103.688 146.344 105.594V108.805H125.625V103.859H138.633V103.25C138.648 102.406 138.5 101.688 138.188 101.094C137.891 100.5 137.453 100.047 136.875 99.7344C136.297 99.4219 135.594 99.2656 134.766 99.2656C133.906 99.2656 133.195 99.4531 132.633 99.8281C132.086 100.203 131.656 100.719 131.344 101.375C131.047 102.016 130.836 102.758 130.711 103.602C130.586 104.445 130.523 105.336 130.523 106.273V107.164C130.523 108.102 130.648 108.953 130.898 109.719C131.164 110.484 131.539 111.141 132.023 111.688C132.523 112.219 133.117 112.633 133.805 112.93C134.508 113.227 135.305 113.375 136.195 113.375C137.273 113.375 138.336 113.172 139.383 112.766C140.43 112.359 141.328 111.688 142.078 110.75L145.664 115.016C145.148 115.75 144.414 116.461 143.461 117.148C142.523 117.836 141.398 118.398 140.086 118.836C138.773 119.258 137.305 119.469 135.68 119.469ZM160.266 113.375C161 113.375 161.625 113.242 162.141 112.977C162.672 112.695 163.07 112.305 163.336 111.805C163.617 111.289 163.75 110.672 163.734 109.953H171.164C171.18 111.859 170.711 113.531 169.758 114.969C168.82 116.391 167.539 117.5 165.914 118.297C164.305 119.078 162.484 119.469 160.453 119.469C158.469 119.469 156.734 119.148 155.25 118.508C153.766 117.852 152.523 116.945 151.523 115.789C150.539 114.617 149.797 113.25 149.297 111.688C148.812 110.125 148.57 108.43 148.57 106.602V106.062C148.57 104.234 148.812 102.539 149.297 100.977C149.797 99.3984 150.539 98.0312 151.523 96.875C152.523 95.7031 153.758 94.7969 155.227 94.1562C156.711 93.5 158.438 93.1719 160.406 93.1719C162.516 93.1719 164.375 93.5703 165.984 94.3672C167.609 95.1641 168.883 96.3203 169.805 97.8359C170.727 99.3516 171.18 101.188 171.164 103.344H163.734C163.75 102.578 163.633 101.891 163.383 101.281C163.133 100.672 162.742 100.188 162.211 99.8281C161.695 99.4531 161.031 99.2656 160.219 99.2656C159.406 99.2656 158.75 99.4453 158.25 99.8047C157.75 100.164 157.367 100.664 157.102 101.305C156.852 101.93 156.68 102.648 156.586 103.461C156.508 104.273 156.469 105.141 156.469 106.062V106.602C156.469 107.539 156.508 108.422 156.586 109.25C156.68 110.062 156.859 110.781 157.125 111.406C157.391 112.016 157.773 112.5 158.273 112.859C158.773 113.203 159.438 113.375 160.266 113.375ZM182.273 83V119H174.375V83H182.273ZM181.336 105.453L179.484 105.5C179.484 103.719 179.703 102.078 180.141 100.578C180.578 99.0781 181.203 97.7734 182.016 96.6641C182.828 95.5547 183.805 94.6953 184.945 94.0859C186.086 93.4766 187.352 93.1719 188.742 93.1719C189.992 93.1719 191.133 93.3516 192.164 93.7109C193.211 94.0703 194.109 94.6484 194.859 95.4453C195.625 96.2422 196.211 97.2812 196.617 98.5625C197.039 99.8438 197.25 101.406 197.25 103.25V119H189.305V103.203C189.305 102.172 189.156 101.375 188.859 100.812C188.578 100.234 188.172 99.8359 187.641 99.6172C187.109 99.3828 186.461 99.2656 185.695 99.2656C184.773 99.2656 184.023 99.4219 183.445 99.7344C182.867 100.047 182.422 100.484 182.109 101.047C181.812 101.594 181.609 102.242 181.5 102.992C181.391 103.742 181.336 104.562 181.336 105.453ZM231.539 109.93C231.539 109.398 231.461 108.922 231.305 108.5C231.148 108.062 230.859 107.656 230.438 107.281C230.016 106.906 229.406 106.531 228.609 106.156C227.828 105.766 226.797 105.359 225.516 104.938C224.016 104.438 222.57 103.875 221.18 103.25C219.789 102.609 218.547 101.867 217.453 101.023C216.359 100.164 215.492 99.1641 214.852 98.0234C214.211 96.8672 213.891 95.5234 213.891 93.9922C213.891 92.5234 214.219 91.2031 214.875 90.0312C215.531 88.8438 216.445 87.8359 217.617 87.0078C218.805 86.1641 220.195 85.5234 221.789 85.0859C223.383 84.6328 225.125 84.4062 227.016 84.4062C229.516 84.4062 231.719 84.8438 233.625 85.7188C235.547 86.5781 237.047 87.8047 238.125 89.3984C239.219 90.9766 239.766 92.8438 239.766 95H231.586C231.586 94.1406 231.406 93.3828 231.047 92.7266C230.703 92.0703 230.18 91.5547 229.477 91.1797C228.773 90.8047 227.891 90.6172 226.828 90.6172C225.797 90.6172 224.93 90.7734 224.227 91.0859C223.523 91.3984 222.992 91.8203 222.633 92.3516C222.273 92.8672 222.094 93.4375 222.094 94.0625C222.094 94.5781 222.234 95.0469 222.516 95.4688C222.812 95.875 223.227 96.2578 223.758 96.6172C224.305 96.9766 224.961 97.3203 225.727 97.6484C226.508 97.9766 227.383 98.2969 228.352 98.6094C230.164 99.1875 231.773 99.8359 233.18 100.555C234.602 101.258 235.797 102.062 236.766 102.969C237.75 103.859 238.492 104.875 238.992 106.016C239.508 107.156 239.766 108.445 239.766 109.883C239.766 111.414 239.469 112.773 238.875 113.961C238.281 115.148 237.43 116.156 236.32 116.984C235.211 117.797 233.883 118.414 232.336 118.836C230.789 119.258 229.062 119.469 227.156 119.469C225.406 119.469 223.68 119.25 221.977 118.812C220.289 118.359 218.758 117.672 217.383 116.75C216.008 115.812 214.906 114.617 214.078 113.164C213.266 111.695 212.859 109.953 212.859 107.938H221.109C221.109 108.938 221.242 109.781 221.508 110.469C221.773 111.156 222.164 111.711 222.68 112.133C223.195 112.539 223.828 112.836 224.578 113.023C225.328 113.195 226.188 113.281 227.156 113.281C228.203 113.281 229.047 113.133 229.688 112.836C230.328 112.523 230.797 112.117 231.094 111.617C231.391 111.102 231.539 110.539 231.539 109.93ZM256.992 93.6406V99.125H241.711V93.6406H256.992ZM244.922 87.3359H252.82V110.727C252.82 111.398 252.898 111.922 253.055 112.297C253.211 112.656 253.477 112.914 253.852 113.07C254.242 113.211 254.758 113.281 255.398 113.281C255.852 113.281 256.227 113.273 256.523 113.258C256.82 113.227 257.102 113.188 257.367 113.141V118.789C256.695 119.008 255.992 119.172 255.258 119.281C254.523 119.406 253.742 119.469 252.914 119.469C251.227 119.469 249.781 119.203 248.578 118.672C247.391 118.141 246.484 117.305 245.859 116.164C245.234 115.023 244.922 113.539 244.922 111.711V87.3359ZM273.305 112.625V102.172C273.305 101.453 273.203 100.836 273 100.32C272.797 99.8047 272.477 99.4062 272.039 99.125C271.602 98.8281 271.016 98.6797 270.281 98.6797C269.688 98.6797 269.18 98.7812 268.758 98.9844C268.336 99.1875 268.016 99.4922 267.797 99.8984C267.578 100.305 267.469 100.82 267.469 101.445H259.57C259.57 100.273 259.828 99.1875 260.344 98.1875C260.875 97.1719 261.625 96.2891 262.594 95.5391C263.578 94.7891 264.75 94.2109 266.109 93.8047C267.484 93.3828 269.016 93.1719 270.703 93.1719C272.719 93.1719 274.516 93.5078 276.094 94.1797C277.688 94.8516 278.945 95.8594 279.867 97.2031C280.789 98.5312 281.25 100.203 281.25 102.219V112.602C281.25 114.258 281.344 115.516 281.531 116.375C281.719 117.219 281.984 117.961 282.328 118.602V119H274.406C274.031 118.219 273.75 117.266 273.562 116.141C273.391 115 273.305 113.828 273.305 112.625ZM274.266 103.508L274.312 107.727H270.82C270.086 107.727 269.461 107.828 268.945 108.031C268.445 108.234 268.039 108.516 267.727 108.875C267.43 109.219 267.211 109.609 267.07 110.047C266.945 110.484 266.883 110.945 266.883 111.43C266.883 111.898 266.992 112.32 267.211 112.695C267.445 113.055 267.758 113.336 268.148 113.539C268.539 113.742 268.977 113.844 269.461 113.844C270.336 113.844 271.078 113.68 271.688 113.352C272.312 113.008 272.789 112.594 273.117 112.109C273.445 111.625 273.609 111.172 273.609 110.75L275.344 113.984C275.031 114.609 274.672 115.242 274.266 115.883C273.875 116.523 273.383 117.117 272.789 117.664C272.211 118.195 271.5 118.633 270.656 118.977C269.812 119.305 268.789 119.469 267.586 119.469C266.023 119.469 264.586 119.148 263.273 118.508C261.977 117.867 260.938 116.977 260.156 115.836C259.375 114.68 258.984 113.352 258.984 111.852C258.984 110.539 259.219 109.367 259.688 108.336C260.172 107.305 260.898 106.43 261.867 105.711C262.836 104.992 264.07 104.445 265.57 104.07C267.07 103.695 268.836 103.508 270.867 103.508H274.266ZM296.344 113.375C297.078 113.375 297.703 113.242 298.219 112.977C298.75 112.695 299.148 112.305 299.414 111.805C299.695 111.289 299.828 110.672 299.812 109.953H307.242C307.258 111.859 306.789 113.531 305.836 114.969C304.898 116.391 303.617 117.5 301.992 118.297C300.383 119.078 298.562 119.469 296.531 119.469C294.547 119.469 292.812 119.148 291.328 118.508C289.844 117.852 288.602 116.945 287.602 115.789C286.617 114.617 285.875 113.25 285.375 111.688C284.891 110.125 284.648 108.43 284.648 106.602V106.062C284.648 104.234 284.891 102.539 285.375 100.977C285.875 99.3984 286.617 98.0312 287.602 96.875C288.602 95.7031 289.836 94.7969 291.305 94.1562C292.789 93.5 294.516 93.1719 296.484 93.1719C298.594 93.1719 300.453 93.5703 302.062 94.3672C303.688 95.1641 304.961 96.3203 305.883 97.8359C306.805 99.3516 307.258 101.188 307.242 103.344H299.812C299.828 102.578 299.711 101.891 299.461 101.281C299.211 100.672 298.82 100.188 298.289 99.8281C297.773 99.4531 297.109 99.2656 296.297 99.2656C295.484 99.2656 294.828 99.4453 294.328 99.8047C293.828 100.164 293.445 100.664 293.18 101.305C292.93 101.93 292.758 102.648 292.664 103.461C292.586 104.273 292.547 105.141 292.547 106.062V106.602C292.547 107.539 292.586 108.422 292.664 109.25C292.758 110.062 292.938 110.781 293.203 111.406C293.469 112.016 293.852 112.5 294.352 112.859C294.852 113.203 295.516 113.375 296.344 113.375ZM318.586 82.9766V119H310.688V82.9766H318.586ZM334.805 93.6406L323.789 106.555L318.023 112.32L314.578 107.305L319.383 101.047L325.336 93.6406H334.805ZM326.344 119L319.57 107.445L325.406 103.297L335.391 119H326.344Z" fill="black"/>
<path d="M1134 0H1348C1356.28 0 1363 6.71573 1363 15V148C1363 156.284 1356.28 163 1348 163H1134V0Z" fill="#9EA4DA"/>
<path fill-rule="evenodd" clip-rule="evenodd" d="M1218.75 53C1218.62 53 1218.49 53.0527 1218.4 53.1464C1218.3 53.2402 1218.25 53.3674 1218.25 53.5V109.5C1218.25 109.633 1218.3 109.76 1218.4 109.854C1218.49 109.947 1218.62 110 1218.75 110H1278.25C1278.38 110 1278.51 109.947 1278.6 109.854C1278.7 109.76 1278.75 109.633 1278.75 109.5V64C1278.75 63.8674 1278.7 63.7402 1278.6 63.6464C1278.51 63.5527 1278.38 63.5 1278.25 63.5H1248.5C1247.61 63.5 1246.77 63.1045 1246.2 62.4206L1238.34 53H1218.75ZM1214.15 48.9038C1215.37 47.6848 1217.03 47 1218.75 47H1239.75C1240.64 47 1241.48 47.3955 1242.05 48.0794L1249.91 57.5H1278.25C1279.97 57.5 1281.63 58.1848 1282.85 59.4038C1284.07 60.6228 1284.75 62.2761 1284.75 64V109.5C1284.75 111.224 1284.07 112.877 1282.85 114.096C1281.63 115.315 1279.97 116 1278.25 116H1218.75C1217.03 116 1215.37 115.315 1214.15 114.096C1212.93 112.877 1212.25 111.224 1212.25 109.5V53.5C1212.25 51.7761 1212.93 50.1228 1214.15 48.9038Z" fill="white"/>
<path fill-rule="evenodd" clip-rule="evenodd" d="M1243.97 75.5251C1245.34 76.892 1245.34 79.108 1243.97 80.4749L1237.7 86.75L1243.97 93.0251C1245.34 94.392 1245.34 96.608 1243.97 97.9749C1242.61 99.3417 1240.39 99.3417 1239.03 97.9749L1230.28 89.2249C1228.91 87.858 1228.91 85.642 1230.28 84.2751L1239.03 75.5251C1240.39 74.1583 1242.61 74.1583 1243.97 75.5251Z" fill="white"/>
<path fill-rule="evenodd" clip-rule="evenodd" d="M1252.28 97.9749C1250.91 96.608 1250.91 94.392 1252.28 93.0251L1258.55 86.75L1252.28 80.4749C1250.91 79.108 1250.91 76.892 1252.28 75.5251C1253.64 74.1583 1255.86 74.1583 1257.22 75.5251L1265.97 84.2751C1267.34 85.642 1267.34 87.858 1265.97 89.2249L1257.22 97.9749C1255.86 99.3417 1253.64 99.3417 1252.28 97.9749Z" fill="white"/>
</svg>
