<svg width="1363" height="163" viewBox="0 0 1363 163" fill="none" xmlns="http://www.w3.org/2000/svg">
<path d="M0 15C0 6.71573 6.71573 0 15 0H37V163H15C6.71573 163 0 156.284 0 148V15Z" fill="#34324E"/>
<rect width="1097" height="163" transform="translate(37)" fill="#F0F0F0"/>
<path d="M101.906 53.9219L94.3945 51.2383V48.0859L104.602 52.375V54.6367L101.906 53.9219ZM94.3945 56.1719L101.918 53.4297L104.602 52.7852V55.0352L94.3945 59.3242V56.1719ZM119.051 57.4375L123.07 43.9375H126.984L121.043 61H118.465L119.051 57.4375ZM115.348 43.9375L119.355 57.4375L119.965 61H117.363L111.457 43.9375H115.348ZM127.289 54.7891V54.543C127.289 53.6133 127.422 52.7578 127.688 51.9766C127.953 51.1875 128.34 50.5039 128.848 49.9258C129.355 49.3477 129.98 48.8984 130.723 48.5781C131.465 48.25 132.316 48.0859 133.277 48.0859C134.238 48.0859 135.094 48.25 135.844 48.5781C136.594 48.8984 137.223 49.3477 137.73 49.9258C138.246 50.5039 138.637 51.1875 138.902 51.9766C139.168 52.7578 139.301 53.6133 139.301 54.543V54.7891C139.301 55.7109 139.168 56.5664 138.902 57.3555C138.637 58.1367 138.246 58.8203 137.73 59.4062C137.223 59.9844 136.598 60.4336 135.855 60.7539C135.113 61.0742 134.262 61.2344 133.301 61.2344C132.34 61.2344 131.484 61.0742 130.734 60.7539C129.992 60.4336 129.363 59.9844 128.848 59.4062C128.34 58.8203 127.953 58.1367 127.688 57.3555C127.422 56.5664 127.289 55.7109 127.289 54.7891ZM130.664 54.543V54.7891C130.664 55.3203 130.711 55.8164 130.805 56.2773C130.898 56.7383 131.047 57.1445 131.25 57.4961C131.461 57.8398 131.734 58.1094 132.07 58.3047C132.406 58.5 132.816 58.5977 133.301 58.5977C133.77 58.5977 134.172 58.5 134.508 58.3047C134.844 58.1094 135.113 57.8398 135.316 57.4961C135.52 57.1445 135.668 56.7383 135.762 56.2773C135.863 55.8164 135.914 55.3203 135.914 54.7891V54.543C135.914 54.0273 135.863 53.543 135.762 53.0898C135.668 52.6289 135.516 52.2227 135.305 51.8711C135.102 51.5117 134.832 51.2305 134.496 51.0273C134.16 50.8242 133.754 50.7227 133.277 50.7227C132.801 50.7227 132.395 50.8242 132.059 51.0273C131.73 51.2305 131.461 51.5117 131.25 51.8711C131.047 52.2227 130.898 52.6289 130.805 53.0898C130.711 53.543 130.664 54.0273 130.664 54.543ZM144.938 43V61H141.551V43H144.938ZM155.227 57.9648V48.3203H158.602V61H155.426L155.227 57.9648ZM155.602 55.3633L156.598 55.3398C156.598 56.1836 156.5 56.9688 156.305 57.6953C156.109 58.4141 155.816 59.0391 155.426 59.5703C155.035 60.0938 154.543 60.5039 153.949 60.8008C153.355 61.0898 152.656 61.2344 151.852 61.2344C151.234 61.2344 150.664 61.1484 150.141 60.9766C149.625 60.7969 149.18 60.5195 148.805 60.1445C148.438 59.7617 148.148 59.2734 147.938 58.6797C147.734 58.0781 147.633 57.3555 147.633 56.5117V48.3203H151.008V56.5352C151.008 56.9102 151.051 57.2266 151.137 57.4844C151.23 57.7422 151.359 57.9531 151.523 58.1172C151.688 58.2812 151.879 58.3984 152.098 58.4688C152.324 58.5391 152.574 58.5742 152.848 58.5742C153.543 58.5742 154.09 58.4336 154.488 58.1523C154.895 57.8711 155.18 57.4883 155.344 57.0039C155.516 56.5117 155.602 55.9648 155.602 55.3633ZM164.484 51.0273V61H161.109V48.3203H164.273L164.484 51.0273ZM163.992 54.2148H163.078C163.078 53.2773 163.199 52.4336 163.441 51.6836C163.684 50.9258 164.023 50.2812 164.461 49.75C164.898 49.2109 165.418 48.8008 166.02 48.5195C166.629 48.2305 167.309 48.0859 168.059 48.0859C168.652 48.0859 169.195 48.1719 169.688 48.3438C170.18 48.5156 170.602 48.7891 170.953 49.1641C171.312 49.5391 171.586 50.0352 171.773 50.6523C171.969 51.2695 172.066 52.0234 172.066 52.9141V61H168.668V52.9023C168.668 52.3398 168.59 51.9023 168.434 51.5898C168.277 51.2773 168.047 51.0586 167.742 50.9336C167.445 50.8008 167.078 50.7344 166.641 50.7344C166.188 50.7344 165.793 50.8242 165.457 51.0039C165.129 51.1836 164.855 51.4336 164.637 51.7539C164.426 52.0664 164.266 52.4336 164.156 52.8555C164.047 53.2773 163.992 53.7305 163.992 54.2148ZM182.473 43.9375V61H178.969V43.9375H182.473ZM187.723 43.9375V46.6914H173.801V43.9375H187.723ZM194.25 61.2344C193.266 61.2344 192.383 61.0781 191.602 60.7656C190.82 60.4453 190.156 60.0039 189.609 59.4414C189.07 58.8789 188.656 58.2266 188.367 57.4844C188.078 56.7344 187.934 55.9375 187.934 55.0938V54.625C187.934 53.6641 188.07 52.7852 188.344 51.9883C188.617 51.1914 189.008 50.5 189.516 49.9141C190.031 49.3281 190.656 48.8789 191.391 48.5664C192.125 48.2461 192.953 48.0859 193.875 48.0859C194.773 48.0859 195.57 48.2344 196.266 48.5312C196.961 48.8281 197.543 49.25 198.012 49.7969C198.488 50.3438 198.848 51 199.09 51.7656C199.332 52.5234 199.453 53.3672 199.453 54.2969V55.7031H189.375V53.4531H196.137V53.1953C196.137 52.7266 196.051 52.3086 195.879 51.9414C195.715 51.5664 195.465 51.2695 195.129 51.0508C194.793 50.832 194.363 50.7227 193.84 50.7227C193.395 50.7227 193.012 50.8203 192.691 51.0156C192.371 51.2109 192.109 51.4844 191.906 51.8359C191.711 52.1875 191.562 52.6016 191.461 53.0781C191.367 53.5469 191.32 54.0625 191.32 54.625V55.0938C191.32 55.6016 191.391 56.0703 191.531 56.5C191.68 56.9297 191.887 57.3008 192.152 57.6133C192.426 57.9258 192.754 58.168 193.137 58.3398C193.527 58.5117 193.969 58.5977 194.461 58.5977C195.07 58.5977 195.637 58.4805 196.16 58.2461C196.691 58.0039 197.148 57.6406 197.531 57.1562L199.172 58.9375C198.906 59.3203 198.543 59.6875 198.082 60.0391C197.629 60.3906 197.082 60.6797 196.441 60.9062C195.801 61.125 195.07 61.2344 194.25 61.2344ZM208.219 58.1406V52.4922C208.219 52.0859 208.152 51.7383 208.02 51.4492C207.887 51.1523 207.68 50.9219 207.398 50.7578C207.125 50.5938 206.77 50.5117 206.332 50.5117C205.957 50.5117 205.633 50.5781 205.359 50.7109C205.086 50.8359 204.875 51.0195 204.727 51.2617C204.578 51.4961 204.504 51.7734 204.504 52.0938H201.129C201.129 51.5547 201.254 51.043 201.504 50.5586C201.754 50.0742 202.117 49.6484 202.594 49.2812C203.07 48.9062 203.637 48.6133 204.293 48.4023C204.957 48.1914 205.699 48.0859 206.52 48.0859C207.504 48.0859 208.379 48.25 209.145 48.5781C209.91 48.9062 210.512 49.3984 210.949 50.0547C211.395 50.7109 211.617 51.5312 211.617 52.5156V57.9414C211.617 58.6367 211.66 59.207 211.746 59.6523C211.832 60.0898 211.957 60.4727 212.121 60.8008V61H208.711C208.547 60.6562 208.422 60.2266 208.336 59.7109C208.258 59.1875 208.219 58.6641 208.219 58.1406ZM208.664 53.2773L208.688 55.1875H206.801C206.355 55.1875 205.969 55.2383 205.641 55.3398C205.312 55.4414 205.043 55.5859 204.832 55.7734C204.621 55.9531 204.465 56.1641 204.363 56.4062C204.27 56.6484 204.223 56.9141 204.223 57.2031C204.223 57.4922 204.289 57.7539 204.422 57.9883C204.555 58.2148 204.746 58.3945 204.996 58.5273C205.246 58.6523 205.539 58.7148 205.875 58.7148C206.383 58.7148 206.824 58.6133 207.199 58.4102C207.574 58.207 207.863 57.957 208.066 57.6602C208.277 57.3633 208.387 57.082 208.395 56.8164L209.285 58.2461C209.16 58.5664 208.988 58.8984 208.77 59.2422C208.559 59.5859 208.289 59.9102 207.961 60.2148C207.633 60.5117 207.238 60.7578 206.777 60.9531C206.316 61.1406 205.77 61.2344 205.137 61.2344C204.332 61.2344 203.602 61.0742 202.945 60.7539C202.297 60.4258 201.781 59.9766 201.398 59.4062C201.023 58.8281 200.836 58.1719 200.836 57.4375C200.836 56.7734 200.961 56.1836 201.211 55.668C201.461 55.1523 201.828 54.7188 202.312 54.3672C202.805 54.0078 203.418 53.7383 204.152 53.5586C204.887 53.3711 205.738 53.2773 206.707 53.2773H208.664Z" fill="#888888"/>
<path d="M104.344 84.875V119H96.1406V84.875H104.344ZM117.727 99.0078V119H109.828V93.6406H117.234L117.727 99.0078ZM116.766 105.453L114.961 105.5C114.961 103.719 115.172 102.078 115.594 100.578C116.016 99.0781 116.641 97.7734 117.469 96.6641C118.297 95.5547 119.312 94.6953 120.516 94.0859C121.734 93.4766 123.141 93.1719 124.734 93.1719C125.844 93.1719 126.852 93.3438 127.758 93.6875C128.664 94.0156 129.445 94.5391 130.102 95.2578C130.758 95.9609 131.258 96.8828 131.602 98.0234C131.961 99.1484 132.141 100.5 132.141 102.078V119H124.242V103.086C124.242 102.008 124.117 101.195 123.867 100.648C123.633 100.102 123.289 99.7344 122.836 99.5469C122.383 99.3594 121.828 99.2656 121.172 99.2656C120.484 99.2656 119.867 99.4219 119.32 99.7344C118.773 100.047 118.305 100.484 117.914 101.047C117.539 101.594 117.25 102.242 117.047 102.992C116.859 103.742 116.766 104.562 116.766 105.453ZM131.25 105.453L129.047 105.5C129.047 103.719 129.242 102.078 129.633 100.578C130.039 99.0781 130.641 97.7734 131.438 96.6641C132.25 95.5547 133.258 94.6953 134.461 94.0859C135.664 93.4766 137.062 93.1719 138.656 93.1719C139.812 93.1719 140.875 93.3438 141.844 93.6875C142.812 94.0312 143.648 94.5859 144.352 95.3516C145.055 96.1172 145.602 97.1328 145.992 98.3984C146.383 99.6484 146.578 101.195 146.578 103.039V119H138.656V103.039C138.656 101.992 138.531 101.203 138.281 100.672C138.047 100.125 137.703 99.7578 137.25 99.5703C136.797 99.3672 136.258 99.2656 135.633 99.2656C134.883 99.2656 134.234 99.4219 133.688 99.7344C133.141 100.047 132.68 100.484 132.305 101.047C131.945 101.594 131.68 102.242 131.508 102.992C131.336 103.742 131.25 104.562 131.25 105.453ZM159.07 98.5156V128.75H151.172V93.6406H158.531L159.07 98.5156ZM174.633 106.016V106.508C174.633 108.352 174.422 110.062 174 111.641C173.578 113.219 172.953 114.594 172.125 115.766C171.297 116.938 170.266 117.852 169.031 118.508C167.812 119.148 166.398 119.469 164.789 119.469C163.273 119.469 161.969 119.133 160.875 118.461C159.781 117.789 158.867 116.859 158.133 115.672C157.398 114.484 156.805 113.125 156.352 111.594C155.898 110.062 155.539 108.445 155.273 106.742V106.109C155.539 104.281 155.898 102.586 156.352 101.023C156.805 99.4453 157.398 98.0703 158.133 96.8984C158.867 95.7266 159.773 94.8125 160.852 94.1562C161.945 93.5 163.25 93.1719 164.766 93.1719C166.375 93.1719 167.789 93.4766 169.008 94.0859C170.242 94.6953 171.273 95.5703 172.102 96.7109C172.945 97.8359 173.578 99.1875 174 100.766C174.422 102.344 174.633 104.094 174.633 106.016ZM166.734 106.508V106.016C166.734 105.031 166.664 104.133 166.523 103.32C166.383 102.492 166.156 101.773 165.844 101.164C165.547 100.555 165.148 100.086 164.648 99.7578C164.148 99.4297 163.531 99.2656 162.797 99.2656C161.953 99.2656 161.242 99.3984 160.664 99.6641C160.102 99.9141 159.648 100.305 159.305 100.836C158.977 101.352 158.742 102 158.602 102.781C158.477 103.547 158.422 104.445 158.438 105.477V107.398C158.406 108.586 158.523 109.633 158.789 110.539C159.055 111.43 159.516 112.125 160.172 112.625C160.828 113.125 161.719 113.375 162.844 113.375C163.594 113.375 164.219 113.203 164.719 112.859C165.219 112.5 165.617 112.008 165.914 111.383C166.211 110.742 166.422 110.008 166.547 109.18C166.672 108.352 166.734 107.461 166.734 106.508ZM186.492 83V119H178.57V83H186.492ZM203.648 119.469C201.586 119.469 199.742 119.148 198.117 118.508C196.492 117.852 195.117 116.953 193.992 115.812C192.883 114.672 192.031 113.359 191.438 111.875C190.859 110.391 190.57 108.82 190.57 107.164V106.273C190.57 104.414 190.828 102.695 191.344 101.117C191.859 99.5234 192.625 98.1328 193.641 96.9453C194.656 95.7578 195.93 94.8359 197.461 94.1797C198.992 93.5078 200.773 93.1719 202.805 93.1719C204.602 93.1719 206.211 93.4609 207.633 94.0391C209.055 94.6172 210.258 95.4453 211.242 96.5234C212.242 97.6016 213 98.9062 213.516 100.438C214.047 101.969 214.312 103.688 214.312 105.594V108.805H193.594V103.859H206.602V103.25C206.617 102.406 206.469 101.688 206.156 101.094C205.859 100.5 205.422 100.047 204.844 99.7344C204.266 99.4219 203.562 99.2656 202.734 99.2656C201.875 99.2656 201.164 99.4531 200.602 99.8281C200.055 100.203 199.625 100.719 199.312 101.375C199.016 102.016 198.805 102.758 198.68 103.602C198.555 104.445 198.492 105.336 198.492 106.273V107.164C198.492 108.102 198.617 108.953 198.867 109.719C199.133 110.484 199.508 111.141 199.992 111.688C200.492 112.219 201.086 112.633 201.773 112.93C202.477 113.227 203.273 113.375 204.164 113.375C205.242 113.375 206.305 113.172 207.352 112.766C208.398 112.359 209.297 111.688 210.047 110.75L213.633 115.016C213.117 115.75 212.383 116.461 211.43 117.148C210.492 117.836 209.367 118.398 208.055 118.836C206.742 119.258 205.273 119.469 203.648 119.469ZM225.492 99.0078V119H217.594V93.6406H225L225.492 99.0078ZM224.531 105.453L222.727 105.5C222.727 103.719 222.938 102.078 223.359 100.578C223.781 99.0781 224.406 97.7734 225.234 96.6641C226.062 95.5547 227.078 94.6953 228.281 94.0859C229.5 93.4766 230.906 93.1719 232.5 93.1719C233.609 93.1719 234.617 93.3438 235.523 93.6875C236.43 94.0156 237.211 94.5391 237.867 95.2578C238.523 95.9609 239.023 96.8828 239.367 98.0234C239.727 99.1484 239.906 100.5 239.906 102.078V119H232.008V103.086C232.008 102.008 231.883 101.195 231.633 100.648C231.398 100.102 231.055 99.7344 230.602 99.5469C230.148 99.3594 229.594 99.2656 228.938 99.2656C228.25 99.2656 227.633 99.4219 227.086 99.7344C226.539 100.047 226.07 100.484 225.68 101.047C225.305 101.594 225.016 102.242 224.812 102.992C224.625 103.742 224.531 104.562 224.531 105.453ZM239.016 105.453L236.812 105.5C236.812 103.719 237.008 102.078 237.398 100.578C237.805 99.0781 238.406 97.7734 239.203 96.6641C240.016 95.5547 241.023 94.6953 242.227 94.0859C243.43 93.4766 244.828 93.1719 246.422 93.1719C247.578 93.1719 248.641 93.3438 249.609 93.6875C250.578 94.0312 251.414 94.5859 252.117 95.3516C252.82 96.1172 253.367 97.1328 253.758 98.3984C254.148 99.6484 254.344 101.195 254.344 103.039V119H246.422V103.039C246.422 101.992 246.297 101.203 246.047 100.672C245.812 100.125 245.469 99.7578 245.016 99.5703C244.562 99.3672 244.023 99.2656 243.398 99.2656C242.648 99.2656 242 99.4219 241.453 99.7344C240.906 100.047 240.445 100.484 240.07 101.047C239.711 101.594 239.445 102.242 239.273 102.992C239.102 103.742 239.016 104.562 239.016 105.453ZM271.148 119.469C269.086 119.469 267.242 119.148 265.617 118.508C263.992 117.852 262.617 116.953 261.492 115.812C260.383 114.672 259.531 113.359 258.938 111.875C258.359 110.391 258.07 108.82 258.07 107.164V106.273C258.07 104.414 258.328 102.695 258.844 101.117C259.359 99.5234 260.125 98.1328 261.141 96.9453C262.156 95.7578 263.43 94.8359 264.961 94.1797C266.492 93.5078 268.273 93.1719 270.305 93.1719C272.102 93.1719 273.711 93.4609 275.133 94.0391C276.555 94.6172 277.758 95.4453 278.742 96.5234C279.742 97.6016 280.5 98.9062 281.016 100.438C281.547 101.969 281.812 103.688 281.812 105.594V108.805H261.094V103.859H274.102V103.25C274.117 102.406 273.969 101.688 273.656 101.094C273.359 100.5 272.922 100.047 272.344 99.7344C271.766 99.4219 271.062 99.2656 270.234 99.2656C269.375 99.2656 268.664 99.4531 268.102 99.8281C267.555 100.203 267.125 100.719 266.812 101.375C266.516 102.016 266.305 102.758 266.18 103.602C266.055 104.445 265.992 105.336 265.992 106.273V107.164C265.992 108.102 266.117 108.953 266.367 109.719C266.633 110.484 267.008 111.141 267.492 111.688C267.992 112.219 268.586 112.633 269.273 112.93C269.977 113.227 270.773 113.375 271.664 113.375C272.742 113.375 273.805 113.172 274.852 112.766C275.898 112.359 276.797 111.688 277.547 110.75L281.133 115.016C280.617 115.75 279.883 116.461 278.93 117.148C277.992 117.836 276.867 118.398 275.555 118.836C274.242 119.258 272.773 119.469 271.148 119.469ZM292.781 99.0547V119H284.883V93.6406H292.289L292.781 99.0547ZM291.844 105.453L289.992 105.5C289.992 103.562 290.227 101.836 290.695 100.32C291.164 98.7891 291.828 97.4922 292.688 96.4297C293.547 95.3672 294.57 94.5625 295.758 94.0156C296.961 93.4531 298.297 93.1719 299.766 93.1719C300.938 93.1719 302.008 93.3438 302.977 93.6875C303.961 94.0312 304.805 94.5859 305.508 95.3516C306.227 96.1172 306.773 97.1328 307.148 98.3984C307.539 99.6484 307.734 101.195 307.734 103.039V119H299.789V103.016C299.789 102 299.648 101.227 299.367 100.695C299.086 100.148 298.68 99.7734 298.148 99.5703C297.617 99.3672 296.969 99.2656 296.203 99.2656C295.391 99.2656 294.703 99.4219 294.141 99.7344C293.578 100.047 293.125 100.484 292.781 101.047C292.453 101.594 292.211 102.242 292.055 102.992C291.914 103.742 291.844 104.562 291.844 105.453ZM325.477 93.6406V99.125H310.195V93.6406H325.477ZM313.406 87.3359H321.305V110.727C321.305 111.398 321.383 111.922 321.539 112.297C321.695 112.656 321.961 112.914 322.336 113.07C322.727 113.211 323.242 113.281 323.883 113.281C324.336 113.281 324.711 113.273 325.008 113.258C325.305 113.227 325.586 113.188 325.852 113.141V118.789C325.18 119.008 324.477 119.172 323.742 119.281C323.008 119.406 322.227 119.469 321.398 119.469C319.711 119.469 318.266 119.203 317.062 118.672C315.875 118.141 314.969 117.305 314.344 116.164C313.719 115.023 313.406 113.539 313.406 111.711V87.3359ZM341.789 112.625V102.172C341.789 101.453 341.688 100.836 341.484 100.32C341.281 99.8047 340.961 99.4062 340.523 99.125C340.086 98.8281 339.5 98.6797 338.766 98.6797C338.172 98.6797 337.664 98.7812 337.242 98.9844C336.82 99.1875 336.5 99.4922 336.281 99.8984C336.062 100.305 335.953 100.82 335.953 101.445H328.055C328.055 100.273 328.312 99.1875 328.828 98.1875C329.359 97.1719 330.109 96.2891 331.078 95.5391C332.062 94.7891 333.234 94.2109 334.594 93.8047C335.969 93.3828 337.5 93.1719 339.188 93.1719C341.203 93.1719 343 93.5078 344.578 94.1797C346.172 94.8516 347.43 95.8594 348.352 97.2031C349.273 98.5312 349.734 100.203 349.734 102.219V112.602C349.734 114.258 349.828 115.516 350.016 116.375C350.203 117.219 350.469 117.961 350.812 118.602V119H342.891C342.516 118.219 342.234 117.266 342.047 116.141C341.875 115 341.789 113.828 341.789 112.625ZM342.75 103.508L342.797 107.727H339.305C338.57 107.727 337.945 107.828 337.43 108.031C336.93 108.234 336.523 108.516 336.211 108.875C335.914 109.219 335.695 109.609 335.555 110.047C335.43 110.484 335.367 110.945 335.367 111.43C335.367 111.898 335.477 112.32 335.695 112.695C335.93 113.055 336.242 113.336 336.633 113.539C337.023 113.742 337.461 113.844 337.945 113.844C338.82 113.844 339.562 113.68 340.172 113.352C340.797 113.008 341.273 112.594 341.602 112.109C341.93 111.625 342.094 111.172 342.094 110.75L343.828 113.984C343.516 114.609 343.156 115.242 342.75 115.883C342.359 116.523 341.867 117.117 341.273 117.664C340.695 118.195 339.984 118.633 339.141 118.977C338.297 119.305 337.273 119.469 336.07 119.469C334.508 119.469 333.07 119.148 331.758 118.508C330.461 117.867 329.422 116.977 328.641 115.836C327.859 114.68 327.469 113.352 327.469 111.852C327.469 110.539 327.703 109.367 328.172 108.336C328.656 107.305 329.383 106.43 330.352 105.711C331.32 104.992 332.555 104.445 334.055 104.07C335.555 103.695 337.32 103.508 339.352 103.508H342.75ZM367.477 93.6406V99.125H352.195V93.6406H367.477ZM355.406 87.3359H363.305V110.727C363.305 111.398 363.383 111.922 363.539 112.297C363.695 112.656 363.961 112.914 364.336 113.07C364.727 113.211 365.242 113.281 365.883 113.281C366.336 113.281 366.711 113.273 367.008 113.258C367.305 113.227 367.586 113.188 367.852 113.141V118.789C367.18 119.008 366.477 119.172 365.742 119.281C365.008 119.406 364.227 119.469 363.398 119.469C361.711 119.469 360.266 119.203 359.062 118.672C357.875 118.141 356.969 117.305 356.344 116.164C355.719 115.023 355.406 113.539 355.406 111.711V87.3359ZM378.961 93.6406V119H371.039V93.6406H378.961ZM370.57 87.1016C370.57 85.9766 370.977 85.0547 371.789 84.3359C372.602 83.6172 373.656 83.2578 374.953 83.2578C376.25 83.2578 377.305 83.6172 378.117 84.3359C378.93 85.0547 379.336 85.9766 379.336 87.1016C379.336 88.2266 378.93 89.1484 378.117 89.8672C377.305 90.5859 376.25 90.9453 374.953 90.9453C373.656 90.9453 372.602 90.5859 371.789 89.8672C370.977 89.1484 370.57 88.2266 370.57 87.1016ZM382.852 106.578V106.086C382.852 104.227 383.117 102.516 383.648 100.953C384.18 99.375 384.961 98.0078 385.992 96.8516C387.023 95.6953 388.297 94.7969 389.812 94.1562C391.328 93.5 393.078 93.1719 395.062 93.1719C397.062 93.1719 398.82 93.5 400.336 94.1562C401.867 94.7969 403.148 95.6953 404.18 96.8516C405.211 98.0078 405.992 99.375 406.523 100.953C407.055 102.516 407.32 104.227 407.32 106.086V106.578C407.32 108.422 407.055 110.133 406.523 111.711C405.992 113.273 405.211 114.641 404.18 115.812C403.148 116.969 401.875 117.867 400.359 118.508C398.844 119.148 397.094 119.469 395.109 119.469C393.125 119.469 391.367 119.148 389.836 118.508C388.305 117.867 387.023 116.969 385.992 115.812C384.961 114.641 384.18 113.273 383.648 111.711C383.117 110.133 382.852 108.422 382.852 106.578ZM390.75 106.086V106.578C390.75 107.531 390.82 108.422 390.961 109.25C391.102 110.078 391.336 110.805 391.664 111.43C391.992 112.039 392.438 112.516 393 112.859C393.562 113.203 394.266 113.375 395.109 113.375C395.938 113.375 396.625 113.203 397.172 112.859C397.734 112.516 398.18 112.039 398.508 111.43C398.836 110.805 399.07 110.078 399.211 109.25C399.352 108.422 399.422 107.531 399.422 106.578V106.086C399.422 105.164 399.352 104.297 399.211 103.484C399.07 102.656 398.836 101.93 398.508 101.305C398.18 100.664 397.734 100.164 397.172 99.8047C396.609 99.4453 395.906 99.2656 395.062 99.2656C394.234 99.2656 393.539 99.4453 392.977 99.8047C392.43 100.164 391.992 100.664 391.664 101.305C391.336 101.93 391.102 102.656 390.961 103.484C390.82 104.297 390.75 105.164 390.75 106.086ZM418.594 99.0547V119H410.695V93.6406H418.102L418.594 99.0547ZM417.656 105.453L415.805 105.5C415.805 103.562 416.039 101.836 416.508 100.32C416.977 98.7891 417.641 97.4922 418.5 96.4297C419.359 95.3672 420.383 94.5625 421.57 94.0156C422.773 93.4531 424.109 93.1719 425.578 93.1719C426.75 93.1719 427.82 93.3438 428.789 93.6875C429.773 94.0312 430.617 94.5859 431.32 95.3516C432.039 96.1172 432.586 97.1328 432.961 98.3984C433.352 99.6484 433.547 101.195 433.547 103.039V119H425.602V103.016C425.602 102 425.461 101.227 425.18 100.695C424.898 100.148 424.492 99.7734 423.961 99.5703C423.43 99.3672 422.781 99.2656 422.016 99.2656C421.203 99.2656 420.516 99.4219 419.953 99.7344C419.391 100.047 418.938 100.484 418.594 101.047C418.266 101.594 418.023 102.242 417.867 102.992C417.727 103.742 417.656 104.562 417.656 105.453Z" fill="black"/>
<path d="M1134 0H1348C1356.28 0 1363 6.71573 1363 15V148C1363 156.284 1356.28 163 1348 163H1134V0Z" fill="#9EA4DA"/>
<path d="M1281 46.5H1216L1213.5 49V114L1216 116.5H1281L1283.5 114V49L1281 46.5ZM1278.5 111.5H1233.5V101.5H1245C1246.5 104.5 1250 106.5 1253.5 106.5C1259 106.5 1263.5 102 1263.5 96.5C1263.5 91 1259 86.5 1253.5 86.5C1248 86.5 1243.5 91 1243.5 96.5H1228.5V111.5H1218.5V51.5H1228.5V63C1225.5 64.5 1223.5 68 1223.5 71.5C1223.5 77 1228 81.5 1233.5 81.5C1239 81.5 1243.5 77 1243.5 71.5H1253.5C1253.5 77 1258 81.5 1263.5 81.5C1269 81.5 1273.5 77 1273.5 71.5C1273.5 66 1269 61.5 1263.5 61.5C1260 61.5 1256.5 63.5 1255 66.5H1242C1240.5 63.5 1237 61.5 1233.5 61.5V51.5H1278.5V111.5ZM1248.5 96.5C1248.5 93.5 1250.5 91.5 1253.5 91.5C1256.5 91.5 1258.5 93.5 1258.5 96.5C1258.5 99.5 1256.5 101.5 1253.5 101.5C1250.5 101.5 1248.5 99.5 1248.5 96.5ZM1233.5 66.5C1236.5 66.5 1238.5 68.5 1238.5 71.5C1238.5 74.5 1236.5 76.5 1233.5 76.5C1230.5 76.5 1228.5 74.5 1228.5 71.5C1228.5 68.5 1230.5 66.5 1233.5 66.5ZM1263.5 66.5C1266.5 66.5 1268.5 68.5 1268.5 71.5C1268.5 74.5 1266.5 76.5 1263.5 76.5C1260.5 76.5 1258.5 74.5 1258.5 71.5C1258.5 68.5 1260.5 66.5 1263.5 66.5Z" fill="white"/>
</svg>
